<svg width="66" height="48" viewBox="0 0 66 48" fill="none" xmlns="http://www.w3.org/2000/svg">
<path d="M28.8415 1.41148C28.7544 1.67198 28.493 1.84564 28.188 1.80223C27.9266 1.7154 27.7523 1.45489 27.7959 1.15098C27.883 0.89047 28.1444 0.716803 28.4494 0.760219C28.7108 0.847054 28.8851 1.10756 28.8415 1.41148Z" fill="#4A6CF7"/>
<path d="M23.9181 0.760221C23.8309 1.10756 23.4823 1.28122 23.1774 1.19439C22.8288 1.10756 22.6546 0.76022 22.7417 0.456301C22.8288 0.108963 23.1774 -0.0647061 23.4823 0.0221283C23.8309 0.108963 24.0053 0.456301 23.9181 0.760221Z" fill="#4A6CF7"/>
<path d="M19.1689 1.23782C19.0818 1.62858 18.6897 1.84567 18.341 1.75883C17.9489 1.672 17.7311 1.28124 17.8182 0.933903C17.9053 0.543148 18.2974 0.326062 18.6461 0.412896C19.0382 0.49973 19.2561 0.890485 19.1689 1.23782Z" fill="#4A6CF7"/>
<path d="M14.7247 2.75743C14.6375 3.19161 14.2019 3.40869 13.7662 3.32185C13.3304 3.23502 13.1126 2.80084 13.1997 2.36668C13.2868 1.9325 13.7226 1.71542 14.1583 1.80225C14.5504 1.9325 14.8118 2.36668 14.7247 2.75743Z" fill="#4A6CF7"/>
<path d="M10.7162 5.23219C10.5855 5.70978 10.1498 5.97029 9.67054 5.84004C9.19126 5.70978 8.92983 5.27562 9.06054 4.79803C9.19126 4.32044 9.62696 4.05993 10.1062 4.19019C10.5419 4.27702 10.8034 4.75461 10.7162 5.23219Z" fill="#4A6CF7"/>
<path d="M7.31767 8.53189C7.18696 9.05289 6.66411 9.35681 6.18484 9.22657C5.66199 9.09631 5.357 8.5753 5.48771 8.09771C5.61841 7.57671 6.14126 7.27279 6.62054 7.40304C7.09982 7.53329 7.44838 8.01088 7.31767 8.53189Z" fill="#4A6CF7"/>
<path d="M4.70343 12.5697C4.57272 13.1342 4.0063 13.4381 3.43988 13.3078C2.87347 13.1775 2.56847 12.6131 2.69919 12.0487C2.82989 11.4843 3.39631 11.1804 3.96273 11.3106C4.48557 11.4409 4.83414 12.0053 4.70343 12.5697Z" fill="#4A6CF7"/>
<path d="M3.00422 17.2588C2.8735 17.8666 2.26352 18.2139 1.65353 18.0837C1.04353 17.9534 0.694976 17.3455 0.825687 16.7377C0.956399 16.1298 1.56639 15.7826 2.17637 15.9128C2.78637 16.0431 3.13493 16.6509 3.00422 17.2588Z" fill="#4A6CF7"/>
<path d="M2.39422 22.2517C2.21994 22.903 1.56638 23.2938 0.912816 23.1201C0.259257 22.9464 -0.132878 22.2952 0.0414051 21.6439C0.215687 20.9926 0.869246 20.6019 1.52281 20.7756C2.17637 20.9492 2.5685 21.6005 2.39422 22.2517Z" fill="#4A6CF7"/>
<path d="M2.96067 27.0711C2.78639 27.7658 2.08925 28.1564 1.39212 27.9828C0.694991 27.8092 0.302857 27.1145 0.477139 26.4198C0.651421 25.7251 1.34855 25.3344 2.04568 25.508C2.69924 25.7251 3.13495 26.4198 2.96067 27.0711Z" fill="#4A6CF7"/>
<path d="M4.52919 31.6299C4.35491 32.3679 3.61422 32.8021 2.87351 32.6284C2.13281 32.4548 1.6971 31.7166 1.87139 30.9786C2.04567 30.2405 2.78637 29.8064 3.52707 29.98C4.26777 30.1537 4.74704 30.8917 4.52919 31.6299Z" fill="#4A6CF7"/>
<path d="M7.05626 35.7545C6.83841 36.5359 6.05414 37.0136 5.26986 36.7964C4.4856 36.5794 4.00632 35.7979 4.22417 35.0163C4.44202 34.2349 5.22629 33.7573 6.01057 33.9744C6.79483 34.148 7.27411 34.973 7.05626 35.7545Z" fill="#4A6CF7"/>
<path d="M10.4548 39.2278C10.2369 40.0528 9.40908 40.5304 8.58124 40.3567C7.75339 40.1396 7.27411 39.3147 7.4484 38.4898C7.66626 37.6649 8.49409 37.1872 9.32193 37.361C10.1498 37.578 10.6291 38.4029 10.4548 39.2278Z" fill="#4A6CF7"/>
<path d="M14.5504 41.9197C14.3326 42.7881 13.4611 43.3091 12.5898 43.0919C11.7183 42.8749 11.1955 42.0065 11.4133 41.1382C11.6312 40.2699 12.5026 39.7489 13.374 39.9659C14.2454 40.183 14.7683 41.0513 14.5504 41.9197Z" fill="#4A6CF7"/>
<path d="M19.3432 43.7432C19.1254 44.655 18.1668 45.2194 17.2518 44.9589C16.3368 44.7418 15.7704 43.7866 16.0318 42.8749C16.2497 41.9631 17.2083 41.3987 18.1232 41.6592C18.9947 41.8762 19.561 42.8314 19.3432 43.7432Z" fill="#4A6CF7"/>
<path d="M24.3974 44.3945C24.136 45.3497 23.1774 45.9141 22.2188 45.697C21.2603 45.4366 20.6939 44.4814 20.9118 43.5262C21.1732 42.571 22.1316 42.0065 23.0903 42.2236C24.0489 42.4841 24.6588 43.4393 24.3974 44.3945Z" fill="#4A6CF7"/>
<path d="M29.3209 43.9602C29.0595 44.9589 28.0573 45.5667 27.0551 45.3062C26.0531 45.0457 25.443 44.0471 25.7045 43.0486C25.9659 42.05 26.968 41.4421 27.9702 41.7026C28.9723 41.9631 29.5823 42.9617 29.3209 43.9602Z" fill="#4A6CF7"/>
<path d="M33.9393 42.4841C33.6779 43.5261 32.5886 44.1774 31.5429 43.9169C30.4972 43.6564 29.8437 42.5709 30.1051 41.529C30.3665 40.4869 31.4558 39.8356 32.5014 40.0961C33.5907 40.3567 34.2007 41.4421 33.9393 42.4841Z" fill="#4A6CF7"/>
<path d="M38.1221 40.0961C37.8607 41.1816 36.7278 41.8329 35.6386 41.5723C34.5493 41.3118 33.8958 40.183 34.1572 39.0976C34.4186 38.0121 35.5515 37.361 36.6407 37.6214C37.73 37.8819 38.3835 38.9673 38.1221 40.0961Z" fill="#4A6CF7"/>
<path d="M41.6513 36.8399C41.3463 37.9687 40.2134 38.6634 39.0806 38.3595C37.9478 38.0555 37.2506 36.9267 37.5557 35.7979C37.8607 34.669 38.9934 33.9744 40.1263 34.2783C41.2592 34.5388 41.9563 35.6676 41.6513 36.8399Z" fill="#4A6CF7"/>
<path d="M44.4399 32.8021C44.1349 33.9744 42.9149 34.7124 41.7384 34.4085C40.562 34.1046 39.8214 32.889 40.1263 31.7166C40.4313 30.5444 41.6513 29.8063 42.8277 30.1103C44.0478 30.4142 44.7448 31.6299 44.4399 32.8021Z" fill="#4A6CF7"/>
<path d="M46.3134 28.1564C46.0084 29.3721 44.7448 30.1103 43.5248 29.8064C42.3048 29.5024 41.5642 28.2433 41.8691 27.0276C42.1741 25.8119 43.4377 25.0739 44.6577 25.3778C45.8776 25.6818 46.6184 26.9408 46.3134 28.1564Z" fill="#4A6CF7"/>
<path d="M25.8788 5.05853C25.8352 5.27562 25.6174 5.40587 25.3996 5.31904C25.1816 5.27562 25.0509 5.05853 25.138 4.84144C25.1816 4.62436 25.3996 4.49411 25.6174 4.58094C25.7917 4.62436 25.9224 4.84144 25.8788 5.05853Z" fill="#4A6CF7"/>
<path d="M22.3496 4.58092C22.306 4.79801 22.0446 4.97167 21.8267 4.88484C21.6088 4.84143 21.4346 4.58092 21.5217 4.36383C21.5653 4.14675 21.8267 3.97307 22.0446 4.05992C22.2625 4.10333 22.3932 4.36383 22.3496 4.58092Z" fill="#4A6CF7"/>
<path d="M18.9075 4.92827C18.8203 5.18878 18.5589 5.36245 18.2974 5.27562C18.036 5.18878 17.8618 4.92828 17.9489 4.66777C18.036 4.40727 18.2974 4.23361 18.5589 4.32044C18.8203 4.40727 18.9946 4.66777 18.9075 4.92827Z" fill="#4A6CF7"/>
<path d="M15.6833 6.05712C15.5961 6.36104 15.2912 6.53471 14.9861 6.44787C14.6811 6.36104 14.5068 6.05712 14.594 5.7532C14.6811 5.44927 14.9861 5.27561 15.2912 5.36244C15.5961 5.44927 15.7704 5.7532 15.6833 6.05712Z" fill="#4A6CF7"/>
<path d="M12.8076 7.79382C12.7205 8.14116 12.3719 8.31483 12.0668 8.22799C11.7183 8.14116 11.544 7.79382 11.6311 7.48991C11.7183 7.14256 12.0668 6.96889 12.3719 7.05573C12.6769 7.14256 12.8512 7.48989 12.8076 7.79382Z" fill="#4A6CF7"/>
<path d="M10.3241 10.1817C10.2369 10.5291 9.84482 10.7896 9.49625 10.6593C9.14769 10.5725 8.88626 10.1817 9.01698 9.83441C9.10411 9.48708 9.49625 9.22657 9.84482 9.35682C10.1934 9.44365 10.4112 9.83441 10.3241 10.1817Z" fill="#4A6CF7"/>
<path d="M8.45052 13.1341C8.36339 13.5249 7.92768 13.7853 7.53555 13.6552C7.14342 13.5683 6.88199 13.1341 7.0127 12.7434C7.09984 12.3526 7.53555 12.0921 7.92768 12.2223C8.27624 12.3092 8.53767 12.7 8.45052 13.1341Z" fill="#4A6CF7"/>
<path d="M7.23057 16.5207C7.09985 16.9549 6.66415 17.2154 6.22844 17.0851C5.79274 16.9549 5.53132 16.5207 5.66203 16.0865C5.79274 15.6523 6.22844 15.3918 6.66415 15.522C7.05629 15.6523 7.31771 16.0865 7.23057 16.5207Z" fill="#4A6CF7"/>
<path d="M6.79484 20.1243C6.66412 20.6019 6.18484 20.8624 5.74914 20.7321C5.26987 20.6019 5.00845 20.1243 5.13915 19.6902C5.26987 19.2125 5.74914 18.952 6.18484 19.0823C6.62055 19.1691 6.92555 19.6467 6.79484 20.1243Z" fill="#4A6CF7"/>
<path d="M7.18699 23.5976C7.05628 24.0753 6.53343 24.3792 6.05415 24.2489C5.57489 24.1187 5.26989 23.5976 5.40059 23.1201C5.53131 22.6425 6.05415 22.3386 6.53343 22.4688C7.01271 22.5991 7.31771 23.1201 7.18699 23.5976Z" fill="#4A6CF7"/>
<path d="M8.31982 26.8973C8.18911 27.4184 7.66626 27.7658 7.09985 27.6355C6.57699 27.5052 6.22843 26.9842 6.35914 26.4198C6.48985 25.8988 7.0127 25.5514 7.57911 25.6818C8.14554 25.8119 8.45052 26.3763 8.31982 26.8973Z" fill="#4A6CF7"/>
<path d="M10.1497 29.8498C10.019 30.4142 9.45262 30.7615 8.8862 30.6312C8.31979 30.5011 7.97123 29.9365 8.10193 29.3721C8.23264 28.8077 8.79907 28.4604 9.36548 28.5907C9.97546 28.721 10.2805 29.2854 10.1497 29.8498Z" fill="#4A6CF7"/>
<path d="M12.5897 32.3679C12.459 32.9757 11.849 33.3231 11.239 33.1929C10.629 33.0626 10.2805 32.4548 10.4112 31.8469C10.5419 31.2391 11.1519 30.8917 11.7618 31.022C12.3719 31.1956 12.764 31.8035 12.5897 32.3679Z" fill="#4A6CF7"/>
<path d="M15.5526 34.3218C15.3783 34.9296 14.7683 35.3203 14.1147 35.1901C13.5048 35.0163 13.1126 34.4085 13.2433 33.7572C13.4177 33.1494 14.0276 32.7587 14.6811 32.8889C15.3347 33.0626 15.7269 33.7139 15.5526 34.3218Z" fill="#4A6CF7"/>
<path d="M19.0382 35.6242C18.864 36.2755 18.2103 36.6663 17.5568 36.536C16.9032 36.3623 16.5111 35.7111 16.6418 35.0598C16.816 34.4085 17.4697 34.0178 18.1232 34.148C18.7767 34.2783 19.1689 34.973 19.0382 35.6242Z" fill="#4A6CF7"/>
<path d="M22.6981 36.1453C22.5239 36.8399 21.8267 37.2741 21.1296 37.1005C20.4325 36.9267 19.9967 36.232 20.171 35.5374C20.3453 34.8427 21.0425 34.4086 21.7395 34.5822C22.4367 34.7558 22.8724 35.4506 22.6981 36.1453Z" fill="#4A6CF7"/>
<path d="M26.2273 35.7979C26.0531 36.5359 25.3123 36.9702 24.5716 36.7964C23.8309 36.6228 23.3952 35.8847 23.5695 35.1466C23.7437 34.4085 24.4845 33.9744 25.2252 34.148C25.9659 34.3652 26.4016 35.1032 26.2273 35.7979Z" fill="#4A6CF7"/>
<path d="M29.5823 34.7559C29.408 35.494 28.6237 35.9715 27.8395 35.7979C27.0987 35.6242 26.6194 34.8427 26.7937 34.0613C26.968 33.3231 27.7523 32.8456 28.5365 33.0192C29.3209 33.2362 29.7565 33.9744 29.5823 34.7559Z" fill="#4A6CF7"/>
<path d="M32.5887 32.9758C32.3707 33.7573 31.5865 34.2349 30.8023 34.0613C30.0179 33.8441 29.5387 33.0626 29.713 32.2812C29.9308 31.4996 30.715 31.022 31.4994 31.1957C32.3271 31.4127 32.8065 32.1943 32.5887 32.9758Z" fill="#4A6CF7"/>
<path d="M35.1593 30.6312C34.9414 31.4561 34.1135 31.9338 33.2858 31.7601C32.4579 31.543 31.9786 30.7181 32.1529 29.8931C32.3707 29.0682 33.1986 28.5906 34.0264 28.7643C34.8543 28.9814 35.3771 29.8063 35.1593 30.6312Z" fill="#4A6CF7"/>
<path d="M37.1635 27.7658C36.9457 28.6341 36.0743 29.1551 35.2029 28.938C34.3315 28.7208 33.8086 27.8525 34.0265 26.9842C34.2444 26.1158 35.1157 25.5949 35.9872 25.8119C36.8585 26.029 37.3815 26.8973 37.1635 27.7658Z" fill="#4A6CF7"/>
<path d="M38.5142 24.3792C38.2964 25.2475 37.3815 25.8119 36.51 25.5949C35.6386 25.3778 35.0721 24.4661 35.29 23.5976C35.5079 22.7293 36.4228 22.1649 37.2943 22.382C38.2092 22.5991 38.732 23.5109 38.5142 24.3792Z" fill="#4A6CF7"/>
<path d="M41.2592 46.6522C41.2592 46.3483 41.5206 46.1311 41.8256 46.1311C42.1305 46.1311 42.3484 46.3916 42.3484 46.6955C42.3484 46.9995 42.087 47.2166 41.782 47.2166C41.477 47.1732 41.2592 46.9127 41.2592 46.6522Z" fill="#4A6CF7"/>
<path d="M46.1827 46.218C46.1827 45.8707 46.4876 45.6102 46.8362 45.6102C47.1847 45.6102 47.4461 45.9141 47.4461 46.2614C47.4461 46.6088 47.1412 46.8693 46.7926 46.8693C46.4441 46.8693 46.1827 46.5654 46.1827 46.218Z" fill="#4A6CF7"/>
<path d="M50.714 44.7418C50.714 44.351 51.0626 44.0471 51.4547 44.0906C51.8468 44.0906 52.1518 44.4379 52.1082 44.8287C52.1082 45.2194 51.7597 45.5233 51.3676 45.4799C51.0191 45.4799 50.714 45.1326 50.714 44.7418Z" fill="#4A6CF7"/>
<path d="M54.7661 42.3539C54.7661 41.9197 55.1582 41.5723 55.5939 41.6157C56.0295 41.6592 56.3782 42.0065 56.3346 42.4408C56.3346 42.8749 55.9424 43.2222 55.5067 43.1788C55.1146 43.1353 54.7661 42.788 54.7661 42.3539Z" fill="#4A6CF7"/>
<path d="M58.1646 39.0976C58.1646 38.62 58.6003 38.2293 59.0795 38.2726C59.5589 38.2726 59.951 38.7068 59.9074 39.1844C59.9074 39.662 59.4717 40.0528 58.9924 40.0094C58.5131 39.966 58.1646 39.5752 58.1646 39.0976Z" fill="#4A6CF7"/>
<path d="M60.7787 35.1466C60.7787 34.6257 61.258 34.2349 61.7809 34.2349C62.3037 34.2349 62.6958 34.6691 62.6958 35.2335C62.6958 35.7545 62.2602 36.1453 61.6938 36.1453C61.1709 36.1018 60.7787 35.6676 60.7787 35.1466Z" fill="#4A6CF7"/>
<path d="M62.478 30.6312C62.478 30.0668 62.9572 29.6326 63.5673 29.6326C64.1337 29.6326 64.5694 30.1103 64.5694 30.7181C64.5694 31.2825 64.0901 31.7166 63.4802 31.7166C62.9137 31.7166 62.478 31.2391 62.478 30.6312Z" fill="#4A6CF7"/>
<path d="M63.1752 25.6817C63.1752 25.0739 63.698 24.5962 64.3516 24.5962C64.9616 24.5962 65.4408 25.1172 65.4408 25.7685C65.4408 26.3763 64.918 26.854 64.2645 26.854C63.6109 26.8105 63.1316 26.3329 63.1752 25.6817Z" fill="#4A6CF7"/>
<path d="M62.6523 20.7321C62.696 20.0809 63.2188 19.5599 63.9159 19.5599C64.5695 19.6033 65.0923 20.1243 65.0923 20.819C65.0487 21.4703 64.5259 21.9913 63.8287 21.9913C63.1752 21.9478 62.6523 21.3834 62.6523 20.7321Z" fill="#4A6CF7"/>
<path d="M61.1274 16.0865C61.171 15.3918 61.7374 14.8274 62.478 14.8274C63.1752 14.8709 63.7416 15.4353 63.7416 16.1733C63.698 16.868 63.1317 17.4324 62.3909 17.4324C61.6502 17.389 61.0837 16.7811 61.1274 16.0865Z" fill="#4A6CF7"/>
<path d="M58.6003 11.9618C58.6438 11.2238 59.2538 10.6159 60.0381 10.6593C60.7788 10.7027 61.3888 11.3106 61.3452 12.0921C61.3017 12.8301 60.6916 13.438 59.9074 13.3947C59.1666 13.3512 58.5567 12.7434 58.6003 11.9618Z" fill="#4A6CF7"/>
<path d="M55.2453 8.48848C55.2889 7.70697 55.9424 7.05572 56.7703 7.09913C57.5981 7.14255 58.2082 7.79381 58.1646 8.61874C58.121 9.40024 57.4674 10.0515 56.6396 10.0081C55.8553 9.96467 55.2453 9.3134 55.2453 8.48848Z" fill="#4A6CF7"/>
<path d="M51.2369 5.79662C51.2805 4.92827 51.9775 4.27702 52.849 4.32044C53.7204 4.36385 54.374 5.05853 54.3303 5.92687C54.2867 6.79521 53.5897 7.44647 52.7183 7.40306C51.8468 7.35964 51.1933 6.66496 51.2369 5.79662Z" fill="#4A6CF7"/>
<path d="M46.6184 4.01652C46.6619 3.10475 47.4027 2.41008 48.3176 2.4535C49.2327 2.49691 49.9297 3.23501 49.8862 4.14676C49.8426 5.05853 49.102 5.75321 48.1869 5.70978C47.3155 5.66637 46.5748 4.92827 46.6184 4.01652Z" fill="#4A6CF7"/>
<path d="M41.5642 3.27841C41.6077 2.32324 42.392 1.58514 43.3506 1.62856C44.3091 1.67197 45.0498 2.45348 45.0062 3.40866C44.9627 4.36385 44.1783 5.10193 43.2199 5.05851C42.2613 5.0151 41.5206 4.23359 41.5642 3.27841Z" fill="#4A6CF7"/>
<path d="M36.4664 3.6692C36.51 2.6706 37.3379 1.88909 38.3399 1.93251C39.3421 1.97592 40.1263 2.80086 40.0827 3.79944C40.0392 4.79804 39.2114 5.57955 38.2092 5.53613C37.2072 5.49272 36.4664 4.66779 36.4664 3.6692Z" fill="#4A6CF7"/>
<path d="M31.7608 5.14537C31.8043 4.10335 32.6758 3.32184 33.7214 3.32184C34.7672 3.36526 35.5515 4.2336 35.5515 5.27561C35.5079 6.31762 34.6365 7.09913 33.5907 7.09913C32.5451 7.05572 31.7172 6.18738 31.7608 5.14537Z" fill="#4A6CF7"/>
<path d="M27.5781 7.5767C27.6216 6.49128 28.5365 5.66635 29.6259 5.66635C30.715 5.70977 31.5429 6.62153 31.5429 7.70696C31.4994 8.79239 30.5843 9.61733 29.4951 9.61733C28.3623 9.53048 27.5345 8.66214 27.5781 7.5767Z" fill="#4A6CF7"/>
<path d="M24.0053 10.7896C24.0488 9.66075 25.0073 8.79241 26.1402 8.83582C27.2729 8.87924 28.1444 9.83442 28.1008 10.9633C28.0573 12.0921 27.0987 12.9605 25.9659 12.917C24.833 12.8736 23.9617 11.9184 24.0053 10.7896Z" fill="#4A6CF7"/>
<path d="M21.2167 14.7406C21.2603 13.5683 22.2624 12.6565 23.4388 12.7C24.6152 12.7434 25.5302 13.7419 25.4867 14.9142C25.4431 16.0866 24.4409 16.9983 23.2645 16.9549C22.0882 16.9114 21.1731 15.9128 21.2167 14.7406Z" fill="#4A6CF7"/>
<path d="M19.3432 19.256C19.3868 18.0403 20.4324 17.0851 21.6524 17.1285C22.8724 17.1719 23.8309 18.2139 23.7873 19.4296C23.7438 20.6453 22.6981 21.6005 21.4781 21.557C20.2581 21.4703 19.2996 20.4716 19.3432 19.256Z" fill="#4A6CF7"/>
<path d="M18.5153 24.1621C18.5589 22.903 19.6046 21.9044 20.9117 21.9478C22.1753 21.9912 23.1774 23.0332 23.1338 24.3357C23.0902 25.5949 22.0445 26.5934 20.7375 26.5501C19.4739 26.5066 18.4717 25.4646 18.5153 24.1621Z" fill="#4A6CF7"/>
<path d="M43.3941 42.4408C43.3941 42.2236 43.5684 42.05 43.7863 42.0934C44.0041 42.0934 44.1785 42.267 44.1349 42.4842C44.1349 42.7012 43.9605 42.8749 43.7427 42.8314C43.5248 42.8314 43.3506 42.6578 43.3941 42.4408Z" fill="#4A6CF7"/>
<path d="M46.9233 42.1801C46.9233 41.9197 47.1412 41.746 47.4026 41.746C47.664 41.746 47.8384 41.9631 47.8384 42.2236C47.8384 42.4841 47.6204 42.6578 47.4026 42.6578C47.0976 42.6144 46.9233 42.3973 46.9233 42.1801Z" fill="#4A6CF7"/>
<path d="M50.2347 41.0948C50.2347 40.8343 50.4961 40.6172 50.7575 40.6172C51.019 40.6172 51.2369 40.8777 51.2369 41.1382C51.2369 41.3987 50.9755 41.6158 50.7139 41.6158C50.409 41.6158 50.1911 41.3987 50.2347 41.0948Z" fill="#4A6CF7"/>
<path d="M53.154 39.3581C53.154 39.0542 53.4154 38.7937 53.7204 38.7937C54.0253 38.7937 54.2867 39.0542 54.2867 39.3581C54.2867 39.662 54.0253 39.9225 53.7204 39.9225C53.3718 39.9225 53.1104 39.662 53.154 39.3581Z" fill="#4A6CF7"/>
<path d="M55.5939 37.0136C55.5939 36.6663 55.8988 36.4058 56.2475 36.4058C56.596 36.4058 56.8574 36.7097 56.8574 37.057C56.8574 37.4044 56.5525 37.6649 56.2039 37.6649C55.8553 37.6215 55.5939 37.361 55.5939 37.0136Z" fill="#4A6CF7"/>
<path d="M57.4674 34.148C57.4674 33.7573 57.8159 33.4534 58.1646 33.4968C58.5567 33.4968 58.8617 33.8441 58.8181 34.1914C58.8181 34.5822 58.4695 34.8862 58.121 34.8427C57.7724 34.8427 57.4674 34.5388 57.4674 34.148Z" fill="#4A6CF7"/>
<path d="M58.731 30.8917C58.731 30.5009 59.0795 30.1537 59.5153 30.1537C59.9074 30.1537 60.256 30.5009 60.256 30.9351C60.256 31.3259 59.9074 31.6732 59.4717 31.6732C59.036 31.6732 58.6874 31.3259 58.731 30.8917Z" fill="#4A6CF7"/>
<path d="M59.2102 27.3315C59.2102 26.8973 59.6024 26.5501 60.0381 26.5501C60.4738 26.5501 60.8223 26.9408 60.8223 27.375C60.8223 27.8091 60.4302 28.1564 59.9946 28.1564C59.5153 28.1564 59.1667 27.7658 59.2102 27.3315Z" fill="#4A6CF7"/>
<path d="M58.8617 23.7279C58.8617 23.2503 59.2974 22.8596 59.7767 22.903C60.256 22.903 60.6481 23.3371 60.6045 23.8148C60.6045 24.2923 60.1688 24.6831 59.6896 24.6397C59.2102 24.5962 58.8181 24.2054 58.8617 23.7279Z" fill="#4A6CF7"/>
<path d="M57.7288 20.3848C57.7288 19.8638 58.1646 19.473 58.6874 19.473C59.2102 19.473 59.6024 19.9072 59.6024 20.4282C59.6024 20.9492 59.1666 21.34 58.6438 21.34C58.0775 21.34 57.6852 20.9057 57.7288 20.3848Z" fill="#4A6CF7"/>
<path d="M55.8988 17.4324C55.8988 16.868 56.3782 16.4772 56.9446 16.4772C57.5109 16.4772 57.9032 16.9549 57.9032 17.5193C57.9032 18.0837 57.4238 18.4745 56.8574 18.4745C56.2911 18.431 55.8988 17.9534 55.8988 17.4324Z" fill="#4A6CF7"/>
<path d="M53.5025 14.9142C53.5025 14.3498 54.0253 13.8722 54.5918 13.9157C55.1582 13.9157 55.6374 14.4366 55.5939 15.001C55.5939 15.5654 55.0711 16.0431 54.5047 15.9997C53.9382 15.9562 53.4589 15.4786 53.5025 14.9142Z" fill="#4A6CF7"/>
<path d="M50.5833 12.9604C50.5833 12.3526 51.1062 11.8751 51.7161 11.8751C52.3261 11.8751 52.8054 12.396 52.8054 13.0039C52.8054 13.6117 52.2825 14.0893 51.6726 14.0893C51.019 14.0893 50.5397 13.5683 50.5833 12.9604Z" fill="#4A6CF7"/>
<path d="M47.2283 11.6579C47.2719 11.0067 47.7948 10.4857 48.4483 10.5291C49.1019 10.5725 49.6248 11.0935 49.5812 11.7448C49.5812 12.396 49.0147 12.917 48.3612 12.8736C47.7512 12.8301 47.2283 12.3092 47.2283 11.6579Z" fill="#4A6CF7"/>
<path d="M43.612 11.1369C43.6555 10.4423 44.2219 9.92124 44.8755 9.96465C45.5726 10.0081 46.0956 10.5725 46.052 11.2238C46.0084 11.9184 45.4419 12.4395 44.7884 12.396C44.0912 12.3526 43.5684 11.7882 43.612 11.1369Z" fill="#4A6CF7"/>
<path d="M39.9085 11.3974C39.952 10.7028 40.5184 10.1383 41.2592 10.1383C41.9563 10.1817 42.5228 10.7462 42.5228 11.4843C42.4792 12.179 41.9127 12.7434 41.1721 12.7434C40.4749 12.7 39.9085 12.1355 39.9085 11.3974Z" fill="#4A6CF7"/>
<path d="M36.51 12.4829C36.5535 11.7448 37.1635 11.1369 37.9043 11.1804C38.6449 11.2238 39.255 11.8316 39.2114 12.5697C39.1678 13.3078 38.5578 13.9157 37.8171 13.8722C37.0764 13.8288 36.4664 13.2209 36.51 12.4829Z" fill="#4A6CF7"/>
<path d="M33.46 14.2196C33.5036 13.438 34.1571 12.8302 34.9414 12.8736C35.7257 12.917 36.3357 13.5683 36.2921 14.3498C36.2486 15.1313 35.5949 15.7392 34.8107 15.6958C34.07 15.6523 33.46 15.001 33.46 14.2196Z" fill="#4A6CF7"/>
<path d="M30.8894 16.5641C30.933 15.7392 31.5865 15.1313 32.4144 15.1313C33.2422 15.1747 33.8521 15.8259 33.8521 16.651C33.8086 17.4759 33.1551 18.0837 32.3273 18.0837C31.4994 18.0403 30.8459 17.389 30.8894 16.5641Z" fill="#4A6CF7"/>
<path d="M28.8851 19.3862C28.9287 18.5178 29.6258 17.8666 30.4972 17.9099C31.3687 17.9534 32.0222 18.6481 31.9786 19.5164C31.935 20.3847 31.238 21.036 30.3665 20.9926C29.4951 20.9492 28.8415 20.2546 28.8851 19.3862Z" fill="#4A6CF7"/>
<path d="M27.5345 22.6425C27.5781 21.7742 28.3187 21.0795 29.1902 21.0795C30.0615 21.1229 30.7587 21.8609 30.7587 22.7293C30.7152 23.5976 29.9744 24.2923 29.103 24.2923C28.188 24.2923 27.4909 23.5543 27.5345 22.6425Z" fill="#4A6CF7"/>
<path d="M26.9245 26.2461C26.9681 25.3344 27.7088 24.5962 28.6238 24.6397C29.5387 24.6831 30.2795 25.4211 30.2358 26.3329C30.1922 27.2447 29.4516 27.9828 28.5365 27.9394C27.6216 27.8959 26.8809 27.1579 26.9245 26.2461Z" fill="#4A6CF7"/>
</svg>
