<svg width="222" height="41" viewBox="0 0 222 41" fill="none" xmlns="http://www.w3.org/2000/svg">
<path d="M24.7498 1.26585C24.6754 1.48836 24.4522 1.6367 24.1918 1.59962C23.9686 1.52545 23.8198 1.30293 23.857 1.04334C23.9314 0.820823 24.1546 0.672482 24.415 0.709567C24.6382 0.783738 24.787 1.00625 24.7498 1.26585Z" fill="#354A9D"/>
<path d="M20.546 0.709567C20.4715 1.00625 20.1739 1.15459 19.9135 1.08042C19.6159 1.00625 19.4671 0.709566 19.5415 0.449968C19.6159 0.153284 19.9135 0.00494145 20.1739 0.0791125C20.4715 0.153284 20.6204 0.449968 20.546 0.709567Z" fill="#354A9D"/>
<path d="M16.4909 1.11751C16.4165 1.45128 16.0817 1.63671 15.784 1.56254C15.4492 1.48837 15.2632 1.1546 15.3376 0.857913C15.412 0.524143 15.7468 0.338715 16.0445 0.412886C16.3793 0.487057 16.5653 0.820827 16.4909 1.11751Z" fill="#354A9D"/>
<path d="M12.6962 2.41551C12.6218 2.78637 12.2498 2.97179 11.8778 2.89762C11.5057 2.82345 11.3197 2.45259 11.3941 2.08174C11.4685 1.71088 11.8406 1.52546 12.2126 1.59963C12.5474 1.71088 12.7706 2.08174 12.6962 2.41551Z" fill="#354A9D"/>
<path d="M9.2736 4.52937C9.16199 4.93731 8.78996 5.15983 8.38074 5.04857C7.97151 4.93731 7.74829 4.56646 7.8599 4.15852C7.97151 3.75058 8.34353 3.52806 8.75276 3.63932C9.12479 3.71349 9.348 4.12143 9.2736 4.52937Z" fill="#354A9D"/>
<path d="M6.37176 7.34788C6.26016 7.7929 5.81372 8.0525 5.4045 7.94125C4.95807 7.82999 4.69765 7.38496 4.80926 6.97702C4.92086 6.532 5.36729 6.2724 5.77652 6.38365C6.18575 6.49491 6.48337 6.90285 6.37176 7.34788Z" fill="#354A9D"/>
<path d="M4.13961 10.7968C4.028 11.279 3.54436 11.5386 3.06073 11.4273C2.5771 11.316 2.31668 10.8339 2.42829 10.3518C2.53989 9.8697 3.02353 9.6101 3.50716 9.72136C3.95359 9.83261 4.25121 10.3147 4.13961 10.7968Z" fill="#354A9D"/>
<path d="M2.68872 14.8021C2.57711 15.3213 2.05628 15.6179 1.53544 15.5067C1.0146 15.3954 0.716984 14.8762 0.828591 14.357C0.940199 13.8378 1.46104 13.5412 1.98187 13.6524C2.50271 13.7637 2.80033 14.2829 2.68872 14.8021Z" fill="#354A9D"/>
<path d="M2.16789 19.0669C2.01908 19.6232 1.46104 19.957 0.903001 19.8086C0.344962 19.6603 0.0101394 19.104 0.15895 18.5477C0.30776 17.9914 0.865799 17.6577 1.42384 17.806C1.98188 17.9543 2.3167 18.5106 2.16789 19.0669Z" fill="#354A9D"/>
<path d="M2.65154 23.1834C2.50273 23.7768 1.90748 24.1105 1.31224 23.9622C0.717001 23.8139 0.382179 23.2205 0.530989 22.6271C0.679799 22.0337 1.27504 21.7 1.87028 21.8483C2.42832 22.0337 2.80035 22.6271 2.65154 23.1834Z" fill="#354A9D"/>
<path d="M3.99083 27.0774C3.84202 27.7078 3.20958 28.0787 2.57713 27.9303C1.94469 27.782 1.57266 27.1515 1.72147 26.5211C1.87028 25.8906 2.50273 25.5198 3.13517 25.6681C3.76761 25.8165 4.17684 26.4469 3.99083 27.0774Z" fill="#354A9D"/>
<path d="M6.14856 30.6005C5.96255 31.268 5.2929 31.676 4.62325 31.4905C3.95361 31.3051 3.54438 30.6376 3.73039 29.97C3.9164 29.3025 4.58605 28.8946 5.2557 29.08C5.92534 29.2283 6.33457 29.933 6.14856 30.6005Z" fill="#354A9D"/>
<path d="M9.05036 33.5673C8.86435 34.272 8.1575 34.6799 7.45065 34.5316C6.7438 34.3461 6.33457 33.6415 6.48338 32.9369C6.6694 32.2323 7.37624 31.8243 8.08309 31.9727C8.78994 32.1581 9.19917 32.8627 9.05036 33.5673Z" fill="#354A9D"/>
<path d="M12.5474 35.8666C12.3614 36.6084 11.6173 37.0534 10.8733 36.8679C10.1292 36.6825 9.68281 35.9408 9.86882 35.1991C10.0548 34.4574 10.7989 34.0124 11.5429 34.1978C12.287 34.3832 12.7334 35.1249 12.5474 35.8666Z" fill="#354A9D"/>
<path d="M16.6397 37.4242C16.4537 38.203 15.6352 38.6851 14.854 38.4626C14.0727 38.2772 13.5891 37.4613 13.8123 36.6825C13.9983 35.9037 14.8168 35.4216 15.598 35.6441C16.3421 35.8295 16.8257 36.6454 16.6397 37.4242Z" fill="#354A9D"/>
<path d="M20.9552 37.9805C20.732 38.7964 19.9135 39.2785 19.095 39.0931C18.2766 38.8706 17.793 38.0547 17.979 37.2388C18.2022 36.4229 19.0206 35.9408 19.8391 36.1262C20.6576 36.3487 21.1784 37.1646 20.9552 37.9805Z" fill="#354A9D"/>
<path d="M25.1591 37.6096C24.9359 38.4626 24.0802 38.9818 23.2245 38.7593C22.3689 38.5368 21.848 37.6838 22.0713 36.8309C22.2945 35.9779 23.1501 35.4587 24.0058 35.6812C24.8615 35.9037 25.3823 36.7567 25.1591 37.6096Z" fill="#354A9D"/>
<path d="M29.1025 36.3487C28.8793 37.2388 27.9492 37.7951 27.0564 37.5726C26.1635 37.3501 25.6055 36.4229 25.8287 35.5329C26.0519 34.6428 26.982 34.0865 27.8748 34.309C28.8049 34.5316 29.3257 35.4587 29.1025 36.3487Z" fill="#354A9D"/>
<path d="M32.674 34.309C32.4508 35.2362 31.4835 35.7925 30.5535 35.5699C29.6234 35.3474 29.0654 34.3832 29.2886 33.4561C29.5118 32.5289 30.4791 31.9727 31.4091 32.1952C32.3392 32.4177 32.8972 33.3448 32.674 34.309Z" fill="#354A9D"/>
<path d="M35.6874 31.5276C35.427 32.4918 34.4597 33.0852 33.4924 32.8256C32.5252 32.566 31.9299 31.6018 32.1904 30.6376C32.4508 29.6733 33.418 29.08 34.3853 29.3396C35.3526 29.5621 35.9478 30.5263 35.6874 31.5276Z" fill="#354A9D"/>
<path d="M38.0684 28.0787C37.808 29.08 36.7663 29.7104 35.7618 29.4508C34.7573 29.1912 34.1249 28.1529 34.3853 27.1515C34.6457 26.1502 35.6874 25.5198 36.6919 25.7794C37.7336 26.039 38.3288 27.0774 38.0684 28.0787Z" fill="#354A9D"/>
<path d="M39.6681 24.1105C39.4077 25.1489 38.3288 25.7794 37.2871 25.5198C36.2454 25.2602 35.613 24.1847 35.8734 23.1463C36.1338 22.1079 37.2127 21.4775 38.2544 21.7371C39.296 21.9967 39.9285 23.0721 39.6681 24.1105Z" fill="#354A9D"/>
<path d="M22.2201 4.38103C22.1829 4.56646 21.9969 4.67772 21.8109 4.60355C21.6248 4.56646 21.5132 4.38103 21.5876 4.1956C21.6248 4.01018 21.8109 3.89892 21.9969 3.97309C22.1457 4.01018 22.2573 4.1956 22.2201 4.38103Z" fill="#354A9D"/>
<path d="M19.2067 3.97309C19.1695 4.15852 18.9463 4.30686 18.7602 4.23269C18.5742 4.19561 18.4254 3.97309 18.4998 3.78766C18.537 3.60224 18.7602 3.45389 18.9463 3.52807C19.1323 3.56515 19.2439 3.78766 19.2067 3.97309Z" fill="#354A9D"/>
<path d="M16.2677 4.26978C16.1932 4.4923 15.97 4.64064 15.7468 4.56647C15.5236 4.4923 15.3748 4.26979 15.4492 4.04727C15.5236 3.82476 15.7468 3.67642 15.97 3.75059C16.1932 3.82476 16.3421 4.04727 16.2677 4.26978Z" fill="#354A9D"/>
<path d="M13.5147 5.234C13.4403 5.4936 13.1799 5.64194 12.9194 5.56777C12.659 5.4936 12.5102 5.234 12.5846 4.9744C12.659 4.7148 12.9194 4.56646 13.1799 4.64063C13.4403 4.7148 13.5891 4.9744 13.5147 5.234Z" fill="#354A9D"/>
<path d="M11.0593 6.71742C10.9849 7.01411 10.6873 7.16245 10.4268 7.08828C10.1292 7.01411 9.98041 6.71742 10.0548 6.45783C10.1292 6.16114 10.4268 6.0128 10.6873 6.08697C10.9477 6.16114 11.0965 6.45782 11.0593 6.71742Z" fill="#354A9D"/>
<path d="M8.93878 8.75712C8.86437 9.05381 8.52955 9.27632 8.23193 9.16506C7.93431 9.09089 7.71109 8.75712 7.8227 8.46044C7.8971 8.16376 8.23193 7.94124 8.52955 8.0525C8.82717 8.12667 9.01318 8.46044 8.93878 8.75712Z" fill="#354A9D"/>
<path d="M7.33905 11.2789C7.26465 11.6127 6.89262 11.8352 6.5578 11.724C6.22298 11.6498 5.99976 11.2789 6.11137 10.9452C6.18577 10.6114 6.5578 10.3889 6.89262 10.5001C7.19024 10.5743 7.41346 10.9081 7.33905 11.2789Z" fill="#354A9D"/>
<path d="M6.29738 14.1716C6.18577 14.5425 5.81375 14.765 5.44172 14.6537C5.0697 14.5425 4.84648 14.1716 4.95809 13.8008C5.0697 13.4299 5.44172 13.2074 5.81375 13.3186C6.14857 13.4299 6.37179 13.8008 6.29738 14.1716Z" fill="#354A9D"/>
<path d="M5.92533 17.2497C5.81372 17.6577 5.40449 17.8802 5.03247 17.7689C4.62324 17.6577 4.40003 17.2497 4.51163 16.8789C4.62324 16.4709 5.03247 16.2484 5.40449 16.3597C5.77652 16.4338 6.03694 16.8418 5.92533 17.2497Z" fill="#354A9D"/>
<path d="M6.26018 20.2165C6.14857 20.6245 5.70214 20.8841 5.29291 20.7728C4.88369 20.6616 4.62327 20.2165 4.73487 19.8086C4.84648 19.4007 5.29291 19.1411 5.70214 19.2523C6.11137 19.3636 6.37179 19.8086 6.26018 20.2165Z" fill="#354A9D"/>
<path d="M7.22744 23.035C7.11583 23.4801 6.6694 23.7768 6.18577 23.6655C5.73933 23.5542 5.44171 23.1092 5.55332 22.6271C5.66493 22.1821 6.11136 21.8854 6.59499 21.9967C7.07863 22.1079 7.33904 22.59 7.22744 23.035Z" fill="#354A9D"/>
<path d="M8.78992 25.5569C8.67832 26.039 8.19468 26.3357 7.71105 26.2244C7.22742 26.1132 6.9298 25.631 7.0414 25.1489C7.15301 24.6668 7.63665 24.3701 8.12028 24.4814C8.64111 24.5927 8.90153 25.0748 8.78992 25.5569Z" fill="#354A9D"/>
<path d="M10.8733 27.7078C10.7617 28.227 10.2408 28.5237 9.72001 28.4125C9.19917 28.3012 8.90155 27.782 9.01316 27.2628C9.12477 26.7436 9.64561 26.4469 10.1664 26.5582C10.6873 26.7065 11.0221 27.2257 10.8733 27.7078Z" fill="#354A9D"/>
<path d="M13.4031 29.3767C13.2543 29.8959 12.7334 30.2296 12.1754 30.1184C11.6546 29.97 11.3197 29.4508 11.4313 28.8945C11.5802 28.3753 12.101 28.0416 12.659 28.1528C13.2171 28.3012 13.5519 28.8575 13.4031 29.3767Z" fill="#354A9D"/>
<path d="M16.3793 30.4892C16.2305 31.0455 15.6724 31.3793 15.1144 31.268C14.5563 31.1197 14.2215 30.5634 14.3331 30.0071C14.4819 29.4508 15.04 29.1171 15.598 29.2283C16.156 29.3396 16.4909 29.933 16.3793 30.4892Z" fill="#354A9D"/>
<path d="M19.5043 30.9343C19.3555 31.5276 18.7602 31.8985 18.165 31.7502C17.5698 31.6018 17.1977 31.0084 17.3465 30.4151C17.4953 29.8217 18.0906 29.4509 18.6858 29.5992C19.2811 29.7475 19.6531 30.3409 19.5043 30.9343Z" fill="#354A9D"/>
<path d="M22.5177 30.6376C22.3689 31.268 21.7364 31.6389 21.104 31.4905C20.4715 31.3422 20.0995 30.7117 20.2483 30.0813C20.3971 29.4508 21.0296 29.08 21.662 29.2283C22.2945 29.4138 22.6665 30.0442 22.5177 30.6376Z" fill="#354A9D"/>
<path d="M25.3823 29.7475C25.2335 30.378 24.5638 30.7859 23.8942 30.6376C23.2617 30.4892 22.8525 29.8217 23.0013 29.1542C23.1501 28.5237 23.8198 28.1158 24.4894 28.2641C25.1591 28.4495 25.5311 29.08 25.3823 29.7475Z" fill="#354A9D"/>
<path d="M27.9493 28.227C27.7632 28.8946 27.0936 29.3025 26.424 29.1542C25.7543 28.9687 25.3451 28.3012 25.4939 27.6337C25.6799 26.9661 26.3495 26.5582 27.0192 26.7065C27.726 26.8919 28.1353 27.5595 27.9493 28.227Z" fill="#354A9D"/>
<path d="M30.1442 26.2244C29.9582 26.929 29.2513 27.337 28.5445 27.1886C27.8376 27.0032 27.4284 26.2986 27.5772 25.5939C27.7632 24.8893 28.4701 24.4814 29.1769 24.6297C29.8838 24.8152 30.3302 25.5198 30.1442 26.2244Z" fill="#354A9D"/>
<path d="M31.8555 23.7768C31.6695 24.5185 30.9255 24.9635 30.1814 24.7781C29.4374 24.5926 28.9909 23.8509 29.177 23.1092C29.363 22.3675 30.107 21.9225 30.8511 22.1079C31.5951 22.2933 32.0416 23.035 31.8555 23.7768Z" fill="#354A9D"/>
<path d="M33.0088 20.8841C32.8228 21.6258 32.0416 22.1079 31.2975 21.9225C30.5535 21.7371 30.0698 20.9583 30.2558 20.2165C30.4419 19.4748 31.2231 18.9927 31.9672 19.1782C32.7484 19.3636 33.1948 20.1424 33.0088 20.8841Z" fill="#354A9D"/>
<path d="M35.3526 39.909C35.3526 39.6494 35.5758 39.4639 35.8362 39.4639C36.0966 39.4639 36.2826 39.6864 36.2826 39.946C36.2826 40.2056 36.0594 40.3911 35.799 40.3911C35.5386 40.354 35.3526 40.1315 35.3526 39.909Z" fill="#354A9D"/>
<path d="M39.5565 39.5381C39.5565 39.2414 39.8169 39.0189 40.1145 39.0189C40.4121 39.0189 40.6353 39.2785 40.6353 39.5752C40.6353 39.8719 40.3749 40.0944 40.0773 40.0944C39.7797 40.0944 39.5565 39.8348 39.5565 39.5381Z" fill="#354A9D"/>
<path d="M43.4255 38.2772C43.4255 37.9434 43.7232 37.6838 44.058 37.7209C44.3928 37.7209 44.6532 38.0176 44.616 38.3514C44.616 38.6851 44.3184 38.9447 43.9836 38.9076C43.686 38.9076 43.4255 38.611 43.4255 38.2772Z" fill="#354A9D"/>
<path d="M46.8854 36.2375C46.8854 35.8666 47.2202 35.5699 47.5922 35.607C47.9642 35.6441 48.2619 35.9408 48.2247 36.3117C48.2247 36.6825 47.8898 36.9792 47.5178 36.9421C47.183 36.905 46.8854 36.6083 46.8854 36.2375Z" fill="#354A9D"/>
<path d="M49.7872 33.4561C49.7872 33.0481 50.1592 32.7144 50.5684 32.7514C50.9777 32.7514 51.3125 33.1223 51.2753 33.5302C51.2753 33.9382 50.9033 34.272 50.494 34.2349C50.0848 34.1978 49.7872 33.864 49.7872 33.4561Z" fill="#354A9D"/>
<path d="M52.0193 30.0813C52.0193 29.6363 52.4285 29.3025 52.875 29.3025C53.3214 29.3025 53.6562 29.6734 53.6562 30.1555C53.6562 30.6005 53.2842 30.9343 52.8006 30.9343C52.3541 30.8972 52.0193 30.5263 52.0193 30.0813Z" fill="#354A9D"/>
<path d="M53.4702 26.2244C53.4702 25.7423 53.8794 25.3714 54.4003 25.3714C54.8839 25.3714 55.2559 25.7794 55.2559 26.2986C55.2559 26.7807 54.8467 27.1515 54.3259 27.1515C53.8422 27.1515 53.4702 26.7436 53.4702 26.2244Z" fill="#354A9D"/>
<path d="M54.0655 21.9967C54.0655 21.4775 54.5119 21.0695 55.07 21.0695C55.5908 21.0695 56 21.5145 56 22.0708C56 22.59 55.5536 22.998 54.9956 22.998C54.4375 22.9609 54.0283 22.5529 54.0655 21.9967Z" fill="#354A9D"/>
<path d="M53.619 17.7689C53.6563 17.2126 54.1027 16.7676 54.6979 16.7676C55.256 16.8047 55.7024 17.2497 55.7024 17.8431C55.6652 18.3994 55.2188 18.8444 54.6235 18.8444C54.0655 18.8073 53.619 18.3252 53.619 17.7689Z" fill="#354A9D"/>
<path d="M52.317 13.8008C52.3542 13.2074 52.8378 12.7253 53.4702 12.7253C54.0655 12.7624 54.5491 13.2445 54.5491 13.8749C54.5119 14.4683 54.0283 14.9504 53.3958 14.9504C52.7634 14.9133 52.2797 14.3941 52.317 13.8008Z" fill="#354A9D"/>
<path d="M50.1592 10.2776C50.1964 9.64718 50.7172 9.12798 51.3869 9.16506C52.0193 9.20215 52.5402 9.72135 52.503 10.3889C52.4658 11.0193 51.9449 11.5385 51.2753 11.5015C50.6428 11.4644 50.122 10.9452 50.1592 10.2776Z" fill="#354A9D"/>
<path d="M47.2946 7.31079C47.3318 6.64325 47.8898 6.08697 48.5967 6.12405C49.3035 6.16114 49.8244 6.71742 49.7872 7.42205C49.75 8.08958 49.1919 8.64587 48.4851 8.60878C47.8154 8.5717 47.2946 8.01541 47.2946 7.31079Z" fill="#354A9D"/>
<path d="M43.872 5.01148C43.9092 4.26977 44.5044 3.71349 45.2485 3.75058C45.9925 3.78766 46.5506 4.38103 46.5133 5.12274C46.4761 5.86445 45.8809 6.42073 45.1369 6.38365C44.3928 6.34656 43.8348 5.75319 43.872 5.01148Z" fill="#354A9D"/>
<path d="M39.9285 3.49098C39.9657 2.71218 40.5982 2.11881 41.3794 2.1559C42.1607 2.19298 42.7559 2.82344 42.7187 3.60223C42.6815 4.38103 42.0491 4.9744 41.2678 4.93731C40.5237 4.90023 39.8913 4.26977 39.9285 3.49098Z" fill="#354A9D"/>
<path d="M35.613 2.86053C35.6502 2.04465 36.3198 1.41419 37.1383 1.45128C37.9567 1.48836 38.5892 2.1559 38.552 2.97178C38.5148 3.78767 37.8451 4.41812 37.0267 4.38103C36.2082 4.34395 35.5758 3.67641 35.613 2.86053Z" fill="#354A9D"/>
<path d="M31.2603 3.19431C31.2975 2.34134 32.0044 1.6738 32.86 1.71089C33.7157 1.74797 34.3853 2.4526 34.3481 3.30556C34.3109 4.15853 33.6041 4.82607 32.7484 4.78898C31.8928 4.7519 31.2603 4.04727 31.2603 3.19431Z" fill="#354A9D"/>
<path d="M27.2424 4.45521C27.2796 3.56515 28.0237 2.89761 28.9165 2.89761C29.8094 2.9347 30.4791 3.67641 30.4791 4.56646C30.4419 5.45651 29.6978 6.12405 28.8049 6.12405C27.9121 6.08697 27.2052 5.34526 27.2424 4.45521Z" fill="#354A9D"/>
<path d="M23.671 6.53198C23.7082 5.60485 24.4894 4.90022 25.4195 4.90022C26.3495 4.93731 27.0564 5.7161 27.0564 6.64324C27.0192 7.57038 26.2379 8.27501 25.3079 8.27501C24.3406 8.20083 23.6338 7.45912 23.671 6.53198Z" fill="#354A9D"/>
<path d="M20.6204 9.27632C20.6576 8.3121 21.476 7.57039 22.4433 7.60747C23.4105 7.64456 24.1546 8.46044 24.1174 9.42466C24.0802 10.3889 23.2617 11.1306 22.2945 11.0935C21.3272 11.0564 20.5832 10.2405 20.6204 9.27632Z" fill="#354A9D"/>
<path d="M18.2394 12.6511C18.2766 11.6498 19.1323 10.871 20.1367 10.9081C21.1412 10.9452 21.9225 11.7981 21.8853 12.7994C21.8481 13.8008 20.9924 14.5796 19.9879 14.5425C18.9835 14.5054 18.2022 13.6524 18.2394 12.6511Z" fill="#354A9D"/>
<path d="M16.6397 16.508C16.6769 15.4696 17.5697 14.6537 18.6114 14.6908C19.6531 14.7279 20.4715 15.6179 20.4343 16.6563C20.3971 17.6947 19.5043 18.5106 18.4626 18.4735C17.4209 18.3994 16.6025 17.5464 16.6397 16.508Z" fill="#354A9D"/>
<path d="M15.9328 20.6987C15.97 19.6232 16.8629 18.7702 17.979 18.8073C19.0579 18.8444 19.9135 19.7344 19.8763 20.847C19.8391 21.9225 18.9462 22.7754 17.8302 22.7384C16.7513 22.7013 15.8956 21.8112 15.9328 20.6987Z" fill="#354A9D"/>
<path d="M37.1755 36.3117C37.1755 36.1262 37.3243 35.9779 37.5103 36.015C37.6963 36.015 37.8452 36.1633 37.808 36.3488C37.808 36.5342 37.6591 36.6825 37.4731 36.6454C37.2871 36.6454 37.1383 36.4971 37.1755 36.3117Z" fill="#354A9D"/>
<path d="M40.1889 36.0891C40.1889 35.8666 40.3749 35.7183 40.5981 35.7183C40.8213 35.7183 40.9702 35.9037 40.9702 36.1262C40.9702 36.3487 40.7841 36.4971 40.5981 36.4971C40.3377 36.46 40.1889 36.2746 40.1889 36.0891Z" fill="#354A9D"/>
<path d="M43.0163 35.162C43.0163 34.9395 43.2395 34.7541 43.4627 34.7541C43.686 34.7541 43.872 34.9766 43.872 35.1991C43.872 35.4216 43.6488 35.607 43.4255 35.607C43.1651 35.607 42.9791 35.4216 43.0163 35.162Z" fill="#354A9D"/>
<path d="M45.5089 33.6786C45.5089 33.419 45.7321 33.1965 45.9925 33.1965C46.2529 33.1965 46.4761 33.419 46.4761 33.6786C46.4761 33.9382 46.2529 34.1607 45.9925 34.1607C45.6949 34.1607 45.4717 33.9382 45.5089 33.6786Z" fill="#354A9D"/>
<path d="M47.5922 31.676C47.5922 31.3793 47.8526 31.1568 48.1503 31.1568C48.4479 31.1568 48.6711 31.4164 48.6711 31.7131C48.6711 32.0098 48.4107 32.2323 48.1131 32.2323C47.8154 32.1952 47.5922 31.9727 47.5922 31.676Z" fill="#354A9D"/>
<path d="M49.1919 29.2283C49.1919 28.8946 49.4895 28.635 49.7872 28.6721C50.122 28.6721 50.3824 28.9687 50.3452 29.2654C50.3452 29.5992 50.0476 29.8588 49.75 29.8217C49.4523 29.8217 49.1919 29.5621 49.1919 29.2283Z" fill="#354A9D"/>
<path d="M50.2708 26.4469C50.2708 26.1131 50.5684 25.8165 50.9405 25.8165C51.2753 25.8165 51.5729 26.1131 51.5729 26.484C51.5729 26.8178 51.2753 27.1144 50.9033 27.1144C50.5312 27.1144 50.2336 26.8178 50.2708 26.4469Z" fill="#354A9D"/>
<path d="M50.68 23.4059C50.68 23.035 51.0149 22.7384 51.3869 22.7384C51.7589 22.7384 52.0565 23.0721 52.0565 23.443C52.0565 23.8138 51.7217 24.1105 51.3497 24.1105C50.9405 24.1105 50.6428 23.7768 50.68 23.4059Z" fill="#354A9D"/>
<path d="M50.3824 20.3278C50.3824 19.9199 50.7544 19.5861 51.1637 19.6232C51.5729 19.6232 51.9077 19.994 51.8705 20.402C51.8705 20.8099 51.4985 21.1437 51.0893 21.1066C50.68 21.0695 50.3452 20.7357 50.3824 20.3278Z" fill="#354A9D"/>
<path d="M49.4151 17.4722C49.4151 17.0272 49.7872 16.6934 50.2336 16.6934C50.68 16.6934 51.0149 17.0643 51.0149 17.5093C51.0149 17.9543 50.6428 18.2881 50.1964 18.2881C49.7128 18.2881 49.3779 17.9172 49.4151 17.4722Z" fill="#354A9D"/>
<path d="M47.8526 14.9504C47.8526 14.4683 48.2619 14.1345 48.7455 14.1345C49.2291 14.1345 49.564 14.5425 49.564 15.0246C49.564 15.5067 49.1547 15.8405 48.6711 15.8405C48.1875 15.8034 47.8526 15.3954 47.8526 14.9504Z" fill="#354A9D"/>
<path d="M45.8065 12.7994C45.8065 12.3173 46.2529 11.9094 46.7366 11.9465C47.2202 11.9465 47.6294 12.3915 47.5922 12.8736C47.5922 13.3557 47.1458 13.7637 46.6622 13.7266C46.1785 13.6895 45.7693 13.2815 45.8065 12.7994Z" fill="#354A9D"/>
<path d="M43.3139 11.1306C43.3139 10.6114 43.7604 10.2035 44.2812 10.2035C44.802 10.2035 45.2113 10.6485 45.2113 11.1677C45.2113 11.6869 44.7648 12.0948 44.244 12.0948C43.686 12.0948 43.2767 11.6498 43.3139 11.1306Z" fill="#354A9D"/>
<path d="M40.4493 10.018C40.4865 9.46175 40.933 9.01673 41.491 9.05381C42.0491 9.0909 42.4955 9.53592 42.4583 10.0922C42.4583 10.6485 41.9746 11.0935 41.4166 11.0564C40.8958 11.0193 40.4493 10.5743 40.4493 10.018Z" fill="#354A9D"/>
<path d="M37.3615 9.573C37.3987 8.97964 37.8823 8.53461 38.4404 8.57169C39.0356 8.60878 39.4821 9.09089 39.4449 9.64717C39.4077 10.2405 38.924 10.6856 38.366 10.6485C37.7707 10.6114 37.3243 10.1293 37.3615 9.573Z" fill="#354A9D"/>
<path d="M34.1993 9.79553C34.2365 9.20216 34.7201 8.72005 35.3526 8.72005C35.9478 8.75713 36.4315 9.23924 36.4315 9.8697C36.3943 10.4631 35.9106 10.9452 35.2782 10.9452C34.6829 10.9081 34.1993 10.426 34.1993 9.79553Z" fill="#354A9D"/>
<path d="M31.2975 10.7227C31.3347 10.0922 31.8555 9.573 32.488 9.61009C33.1204 9.64717 33.6413 10.1664 33.6041 10.7968C33.5669 11.4273 33.046 11.9465 32.4136 11.9094C31.7811 11.8723 31.2603 11.3531 31.2975 10.7227Z" fill="#354A9D"/>
<path d="M28.6933 12.2061C28.7305 11.5385 29.2885 11.0193 29.9582 11.0564C30.6278 11.0935 31.1487 11.6498 31.1115 12.3173C31.0743 12.9849 30.5162 13.5041 29.8466 13.467C29.2141 13.4299 28.6933 12.8736 28.6933 12.2061Z" fill="#354A9D"/>
<path d="M26.4984 14.2087C26.5356 13.5041 27.0936 12.9849 27.8005 12.9849C28.5073 13.0219 29.0281 13.5782 29.0281 14.2829C28.9909 14.9875 28.4329 15.5067 27.7261 15.5067C27.0192 15.4696 26.4612 14.9133 26.4984 14.2087Z" fill="#354A9D"/>
<path d="M24.787 16.6193C24.8242 15.8775 25.4195 15.3213 26.1635 15.3583C26.9076 15.3954 27.4656 15.9888 27.4284 16.7305C27.3912 17.4722 26.796 18.0285 26.0519 17.9914C25.3079 17.9543 24.7498 17.361 24.787 16.6193Z" fill="#354A9D"/>
<path d="M23.6338 19.4007C23.671 18.659 24.3034 18.0656 25.0475 18.0656C25.7915 18.1027 26.3868 18.7331 26.3868 19.4748C26.3496 20.2165 25.7171 20.8099 24.9731 20.8099C24.1918 20.8099 23.5966 20.1795 23.6338 19.4007Z" fill="#354A9D"/>
<path d="M23.113 22.4788C23.1502 21.7 23.7826 21.0695 24.5639 21.1066C25.3451 21.1437 25.9776 21.7741 25.9403 22.5529C25.9031 23.3317 25.2707 23.9622 24.4894 23.9251C23.7082 23.888 23.0757 23.2576 23.113 22.4788Z" fill="#354A9D"/>
<mask id="path-89-outside-1_1_94" maskUnits="userSpaceOnUse" x="69" y="6.59091" width="153" height="24" fill="black">
<rect fill="white" x="69" y="6.59091" width="153" height="24"/>
<path d="M78.048 26.1669C79.52 26.1669 80.608 25.7402 81.312 24.8869C82.016 24.0336 82.368 22.9349 82.368 21.5909V10.0069H86.208V21.5909C86.208 22.7216 86.0267 23.7882 85.664 24.7909C85.3013 25.7722 84.768 26.6362 84.064 27.3829C83.3813 28.1082 82.528 28.6842 81.504 29.1109C80.5013 29.5376 79.3493 29.7509 78.048 29.7509C76.7467 29.7509 75.584 29.5376 74.56 29.1109C73.5573 28.6842 72.704 28.1082 72 27.3829C71.3173 26.6362 70.7947 25.7722 70.432 24.7909C70.0693 23.7882 69.888 22.7216 69.888 21.5909V10.0069H73.728V21.5909C73.728 22.9349 74.08 24.0336 74.784 24.8869C75.488 25.7402 76.576 26.1669 78.048 26.1669ZM97.8225 17.0149C96.4572 17.0149 95.4438 17.4416 94.7825 18.2949C94.1425 19.1482 93.8225 20.2469 93.8225 21.5909V29.5909H89.9825V21.5909C89.9825 20.4602 90.1532 19.4042 90.4945 18.4229C90.8572 17.4202 91.3692 16.5562 92.0305 15.8309C92.7132 15.0842 93.5345 14.4976 94.4945 14.0709C95.4758 13.6442 96.5852 13.4309 97.8225 13.4309C99.0598 13.4309 100.159 13.6442 101.119 14.0709C102.1 14.4976 102.921 15.0842 103.583 15.8309C104.265 16.5562 104.777 17.4202 105.119 18.4229C105.481 19.4042 105.663 20.4602 105.663 21.5909V29.5909H101.823V21.5909C101.823 20.2469 101.492 19.1482 100.831 18.2949C100.191 17.4416 99.1878 17.0149 97.8225 17.0149ZM113.073 29.5909H109.233V13.5909H113.073V29.5909ZM108.689 9.30291C108.689 8.62024 108.902 8.04424 109.329 7.57491C109.777 7.10558 110.385 6.87091 111.153 6.87091C111.921 6.87091 112.518 7.11624 112.945 7.60691C113.371 8.07624 113.585 8.64158 113.585 9.30291C113.585 9.98558 113.371 10.5722 112.945 11.0629C112.518 11.5322 111.921 11.7669 111.153 11.7669C110.385 11.7669 109.777 11.5322 109.329 11.0629C108.902 10.5722 108.689 9.98558 108.689 9.30291ZM120.76 29.5909H116.92V7.19091H120.76V29.5909ZM128 19.7989C128 20.6949 128.096 21.5269 128.288 22.2949C128.501 23.0629 128.842 23.7349 129.312 24.3109C129.802 24.8656 130.442 25.3029 131.232 25.6229C132.042 25.9429 133.034 26.1029 134.208 26.1029C135.21 26.1029 136.202 26.0282 137.184 25.8789C138.165 25.7082 138.965 25.4736 139.583 25.1749V29.1109C138.794 29.3456 137.92 29.5162 136.96 29.6229C136 29.7509 135.018 29.8149 134.016 29.8149C132.437 29.8149 131.029 29.5589 129.792 29.0469C128.576 28.5136 127.552 27.7989 126.72 26.9029C125.888 26.0069 125.248 24.9509 124.799 23.7349C124.373 22.5189 124.16 21.2176 124.16 19.8309C124.16 18.4442 124.373 17.1429 124.799 15.9269C125.248 14.7109 125.888 13.6549 126.72 12.7589C127.552 11.8629 128.576 11.1589 129.792 10.6469C131.029 10.1136 132.437 9.84691 134.016 9.84691C135.018 9.84691 136 9.91091 136.96 10.0389C137.92 10.1456 138.794 10.3162 139.583 10.5509V14.4869C138.965 14.1882 138.165 13.9642 137.184 13.8149C136.202 13.6442 135.21 13.5589 134.208 13.5589C133.034 13.5589 132.042 13.7189 131.232 14.0389C130.442 14.3589 129.802 14.8069 129.312 15.3829C128.842 15.9376 128.501 16.5989 128.288 17.3669C128.096 18.1136 128 18.9242 128 19.7989ZM150.379 26.1669C151.744 26.1669 152.747 25.7402 153.387 24.8869C154.048 24.0336 154.379 22.9349 154.379 21.5909V13.5909H158.219V21.5909C158.219 22.7216 158.038 23.7882 157.675 24.7909C157.334 25.7722 156.822 26.6362 156.139 27.3829C155.478 28.1082 154.656 28.6842 153.675 29.1109C152.715 29.5376 151.616 29.7509 150.379 29.7509C149.142 29.7509 148.032 29.5376 147.051 29.1109C146.091 28.6842 145.27 28.1082 144.587 27.3829C143.926 26.6362 143.414 25.7722 143.051 24.7909C142.71 23.7882 142.539 22.7216 142.539 21.5909V13.5909H146.379V21.5909C146.379 22.9349 146.699 24.0336 147.339 24.8869C148 25.7402 149.014 26.1669 150.379 26.1669ZM165.885 29.5909H162.045V21.6229C162.045 20.4922 162.226 19.4256 162.589 18.4229C162.952 17.4202 163.485 16.5562 164.189 15.8309C164.893 15.0842 165.757 14.4976 166.781 14.0709C167.805 13.6442 168.978 13.4309 170.301 13.4309C170.536 13.4309 170.77 13.4522 171.005 13.4949C171.24 13.5162 171.474 13.5482 171.709 13.5909V17.3029C171.496 17.2602 171.293 17.2282 171.101 17.2069C170.909 17.1642 170.706 17.1429 170.493 17.1429C169.618 17.1429 168.882 17.2602 168.285 17.4949C167.709 17.7296 167.24 18.0496 166.877 18.4549C166.514 18.8389 166.258 19.3082 166.109 19.8629C165.96 20.3962 165.885 20.9722 165.885 21.5909V29.5909ZM180.858 19.9269C181.647 20.0762 182.405 20.2469 183.13 20.4389C183.877 20.6096 184.538 20.8656 185.114 21.2069C185.69 21.5269 186.149 21.9642 186.49 22.5189C186.831 23.0522 187.002 23.7562 187.002 24.6309C187.002 25.5269 186.81 26.3056 186.426 26.9669C186.042 27.6069 185.509 28.1402 184.826 28.5669C184.165 28.9722 183.386 29.2816 182.49 29.4949C181.594 29.6869 180.623 29.7829 179.578 29.7829C179.151 29.7829 178.671 29.7616 178.138 29.7189C177.626 29.6976 177.093 29.6549 176.538 29.5909C175.983 29.5269 175.439 29.4522 174.906 29.3669C174.373 29.2816 173.882 29.1856 173.434 29.0789V25.4629C173.797 25.5696 174.234 25.6656 174.746 25.7509C175.279 25.8149 175.834 25.8789 176.41 25.9429C176.986 25.9856 177.562 26.0282 178.138 26.0709C178.735 26.0922 179.279 26.1029 179.77 26.1029C181.05 26.1029 181.957 26.0069 182.49 25.8149C183.045 25.6016 183.322 25.2709 183.322 24.8229C183.322 24.6736 183.269 24.5456 183.162 24.4389C183.077 24.3109 182.885 24.1936 182.586 24.0869C182.309 23.9589 181.903 23.8416 181.37 23.7349C180.837 23.6069 180.133 23.4576 179.258 23.2869C178.853 23.2016 178.33 23.0949 177.69 22.9669C177.05 22.8389 176.421 22.6042 175.802 22.2629C175.205 21.9216 174.682 21.4522 174.234 20.8549C173.786 20.2576 173.562 19.4576 173.562 18.4549C173.562 17.6016 173.733 16.8656 174.074 16.2469C174.415 15.6069 174.885 15.0842 175.482 14.6789C176.101 14.2522 176.826 13.9429 177.658 13.7509C178.49 13.5376 179.397 13.4309 180.378 13.4309C180.762 13.4309 181.199 13.4522 181.69 13.4949C182.202 13.5162 182.714 13.5589 183.226 13.6229C183.738 13.6869 184.25 13.7616 184.762 13.8469C185.274 13.9322 185.743 14.0282 186.17 14.1349V17.7509C185.871 17.6656 185.477 17.5909 184.986 17.5269C184.495 17.4416 183.973 17.3669 183.418 17.3029C182.885 17.2389 182.33 17.1962 181.754 17.1749C181.199 17.1322 180.698 17.1109 180.25 17.1109C179.119 17.1109 178.33 17.2176 177.882 17.4309C177.455 17.6442 177.242 17.9429 177.242 18.3269C177.242 18.5402 177.295 18.7216 177.402 18.8709C177.53 18.9989 177.733 19.1269 178.01 19.2549C178.287 19.3616 178.661 19.4682 179.13 19.5749C179.599 19.6816 180.175 19.7989 180.858 19.9269ZM192.707 21.5909C192.707 22.2309 192.782 22.8282 192.931 23.3829C193.102 23.9376 193.358 24.4282 193.699 24.8549C194.062 25.2602 194.51 25.5802 195.043 25.8149C195.598 26.0496 196.259 26.1669 197.027 26.1669C197.795 26.1669 198.446 26.0496 198.979 25.8149C199.534 25.5802 199.982 25.2602 200.323 24.8549C200.686 24.4282 200.942 23.9376 201.091 23.3829C201.262 22.8282 201.347 22.2309 201.347 21.5909C201.347 20.9509 201.262 20.3536 201.091 19.7989C200.942 19.2442 200.686 18.7642 200.323 18.3589C199.982 17.9322 199.534 17.6016 198.979 17.3669C198.446 17.1322 197.795 17.0149 197.027 17.0149C196.259 17.0149 195.598 17.1322 195.043 17.3669C194.51 17.6016 194.062 17.9322 193.699 18.3589C193.358 18.7642 193.102 19.2442 192.931 19.7989C192.782 20.3536 192.707 20.9509 192.707 21.5909ZM188.867 21.5909C188.867 20.4602 189.048 19.4042 189.411 18.4229C189.774 17.4202 190.307 16.5562 191.011 15.8309C191.715 15.0842 192.568 14.4976 193.571 14.0709C194.595 13.6442 195.747 13.4309 197.027 13.4309C198.307 13.4309 199.448 13.6442 200.451 14.0709C201.475 14.4976 202.339 15.0842 203.043 15.8309C203.747 16.5562 204.28 17.4202 204.643 18.4229C205.006 19.4042 205.187 20.4602 205.187 21.5909C205.187 22.7216 205.006 23.7882 204.643 24.7909C204.28 25.7722 203.747 26.6362 203.043 27.3829C202.339 28.1082 201.475 28.6842 200.451 29.1109C199.448 29.5376 198.307 29.7509 197.027 29.7509C195.747 29.7509 194.595 29.5376 193.571 29.1109C192.568 28.6842 191.715 28.1082 191.011 27.3829C190.307 26.6362 189.774 25.7722 189.411 24.7909C189.048 23.7882 188.867 22.7216 188.867 21.5909ZM214.733 19.9269C215.522 20.0762 216.28 20.2469 217.005 20.4389C217.752 20.6096 218.413 20.8656 218.989 21.2069C219.565 21.5269 220.024 21.9642 220.365 22.5189C220.706 23.0522 220.877 23.7562 220.877 24.6309C220.877 25.5269 220.685 26.3056 220.301 26.9669C219.917 27.6069 219.384 28.1402 218.701 28.5669C218.04 28.9722 217.261 29.2816 216.365 29.4949C215.469 29.6869 214.498 29.7829 213.453 29.7829C213.026 29.7829 212.546 29.7616 212.013 29.7189C211.501 29.6976 210.968 29.6549 210.413 29.5909C209.858 29.5269 209.314 29.4522 208.781 29.3669C208.248 29.2816 207.757 29.1856 207.309 29.0789V25.4629C207.672 25.5696 208.109 25.6656 208.621 25.7509C209.154 25.8149 209.709 25.8789 210.285 25.9429C210.861 25.9856 211.437 26.0282 212.013 26.0709C212.61 26.0922 213.154 26.1029 213.645 26.1029C214.925 26.1029 215.832 26.0069 216.365 25.8149C216.92 25.6016 217.197 25.2709 217.197 24.8229C217.197 24.6736 217.144 24.5456 217.037 24.4389C216.952 24.3109 216.76 24.1936 216.461 24.0869C216.184 23.9589 215.778 23.8416 215.245 23.7349C214.712 23.6069 214.008 23.4576 213.133 23.2869C212.728 23.2016 212.205 23.0949 211.565 22.9669C210.925 22.8389 210.296 22.6042 209.677 22.2629C209.08 21.9216 208.557 21.4522 208.109 20.8549C207.661 20.2576 207.437 19.4576 207.437 18.4549C207.437 17.6016 207.608 16.8656 207.949 16.2469C208.29 15.6069 208.76 15.0842 209.357 14.6789C209.976 14.2522 210.701 13.9429 211.533 13.7509C212.365 13.5376 213.272 13.4309 214.253 13.4309C214.637 13.4309 215.074 13.4522 215.565 13.4949C216.077 13.5162 216.589 13.5589 217.101 13.6229C217.613 13.6869 218.125 13.7616 218.637 13.8469C219.149 13.9322 219.618 14.0282 220.045 14.1349V17.7509C219.746 17.6656 219.352 17.5909 218.861 17.5269C218.37 17.4416 217.848 17.3669 217.293 17.3029C216.76 17.2389 216.205 17.1962 215.629 17.1749C215.074 17.1322 214.573 17.1109 214.125 17.1109C212.994 17.1109 212.205 17.2176 211.757 17.4309C211.33 17.6442 211.117 17.9429 211.117 18.3269C211.117 18.5402 211.17 18.7216 211.277 18.8709C211.405 18.9989 211.608 19.1269 211.885 19.2549C212.162 19.3616 212.536 19.4682 213.005 19.5749C213.474 19.6816 214.05 19.7989 214.733 19.9269Z"/>
</mask>
<path d="M78.048 26.1669C79.52 26.1669 80.608 25.7402 81.312 24.8869C82.016 24.0336 82.368 22.9349 82.368 21.5909V10.0069H86.208V21.5909C86.208 22.7216 86.0267 23.7882 85.664 24.7909C85.3013 25.7722 84.768 26.6362 84.064 27.3829C83.3813 28.1082 82.528 28.6842 81.504 29.1109C80.5013 29.5376 79.3493 29.7509 78.048 29.7509C76.7467 29.7509 75.584 29.5376 74.56 29.1109C73.5573 28.6842 72.704 28.1082 72 27.3829C71.3173 26.6362 70.7947 25.7722 70.432 24.7909C70.0693 23.7882 69.888 22.7216 69.888 21.5909V10.0069H73.728V21.5909C73.728 22.9349 74.08 24.0336 74.784 24.8869C75.488 25.7402 76.576 26.1669 78.048 26.1669ZM97.8225 17.0149C96.4572 17.0149 95.4438 17.4416 94.7825 18.2949C94.1425 19.1482 93.8225 20.2469 93.8225 21.5909V29.5909H89.9825V21.5909C89.9825 20.4602 90.1532 19.4042 90.4945 18.4229C90.8572 17.4202 91.3692 16.5562 92.0305 15.8309C92.7132 15.0842 93.5345 14.4976 94.4945 14.0709C95.4758 13.6442 96.5852 13.4309 97.8225 13.4309C99.0598 13.4309 100.159 13.6442 101.119 14.0709C102.1 14.4976 102.921 15.0842 103.583 15.8309C104.265 16.5562 104.777 17.4202 105.119 18.4229C105.481 19.4042 105.663 20.4602 105.663 21.5909V29.5909H101.823V21.5909C101.823 20.2469 101.492 19.1482 100.831 18.2949C100.191 17.4416 99.1878 17.0149 97.8225 17.0149ZM113.073 29.5909H109.233V13.5909H113.073V29.5909ZM108.689 9.30291C108.689 8.62024 108.902 8.04424 109.329 7.57491C109.777 7.10558 110.385 6.87091 111.153 6.87091C111.921 6.87091 112.518 7.11624 112.945 7.60691C113.371 8.07624 113.585 8.64158 113.585 9.30291C113.585 9.98558 113.371 10.5722 112.945 11.0629C112.518 11.5322 111.921 11.7669 111.153 11.7669C110.385 11.7669 109.777 11.5322 109.329 11.0629C108.902 10.5722 108.689 9.98558 108.689 9.30291ZM120.76 29.5909H116.92V7.19091H120.76V29.5909ZM128 19.7989C128 20.6949 128.096 21.5269 128.288 22.2949C128.501 23.0629 128.842 23.7349 129.312 24.3109C129.802 24.8656 130.442 25.3029 131.232 25.6229C132.042 25.9429 133.034 26.1029 134.208 26.1029C135.21 26.1029 136.202 26.0282 137.184 25.8789C138.165 25.7082 138.965 25.4736 139.583 25.1749V29.1109C138.794 29.3456 137.92 29.5162 136.96 29.6229C136 29.7509 135.018 29.8149 134.016 29.8149C132.437 29.8149 131.029 29.5589 129.792 29.0469C128.576 28.5136 127.552 27.7989 126.72 26.9029C125.888 26.0069 125.248 24.9509 124.799 23.7349C124.373 22.5189 124.16 21.2176 124.16 19.8309C124.16 18.4442 124.373 17.1429 124.799 15.9269C125.248 14.7109 125.888 13.6549 126.72 12.7589C127.552 11.8629 128.576 11.1589 129.792 10.6469C131.029 10.1136 132.437 9.84691 134.016 9.84691C135.018 9.84691 136 9.91091 136.96 10.0389C137.92 10.1456 138.794 10.3162 139.583 10.5509V14.4869C138.965 14.1882 138.165 13.9642 137.184 13.8149C136.202 13.6442 135.21 13.5589 134.208 13.5589C133.034 13.5589 132.042 13.7189 131.232 14.0389C130.442 14.3589 129.802 14.8069 129.312 15.3829C128.842 15.9376 128.501 16.5989 128.288 17.3669C128.096 18.1136 128 18.9242 128 19.7989ZM150.379 26.1669C151.744 26.1669 152.747 25.7402 153.387 24.8869C154.048 24.0336 154.379 22.9349 154.379 21.5909V13.5909H158.219V21.5909C158.219 22.7216 158.038 23.7882 157.675 24.7909C157.334 25.7722 156.822 26.6362 156.139 27.3829C155.478 28.1082 154.656 28.6842 153.675 29.1109C152.715 29.5376 151.616 29.7509 150.379 29.7509C149.142 29.7509 148.032 29.5376 147.051 29.1109C146.091 28.6842 145.27 28.1082 144.587 27.3829C143.926 26.6362 143.414 25.7722 143.051 24.7909C142.71 23.7882 142.539 22.7216 142.539 21.5909V13.5909H146.379V21.5909C146.379 22.9349 146.699 24.0336 147.339 24.8869C148 25.7402 149.014 26.1669 150.379 26.1669ZM165.885 29.5909H162.045V21.6229C162.045 20.4922 162.226 19.4256 162.589 18.4229C162.952 17.4202 163.485 16.5562 164.189 15.8309C164.893 15.0842 165.757 14.4976 166.781 14.0709C167.805 13.6442 168.978 13.4309 170.301 13.4309C170.536 13.4309 170.77 13.4522 171.005 13.4949C171.24 13.5162 171.474 13.5482 171.709 13.5909V17.3029C171.496 17.2602 171.293 17.2282 171.101 17.2069C170.909 17.1642 170.706 17.1429 170.493 17.1429C169.618 17.1429 168.882 17.2602 168.285 17.4949C167.709 17.7296 167.24 18.0496 166.877 18.4549C166.514 18.8389 166.258 19.3082 166.109 19.8629C165.96 20.3962 165.885 20.9722 165.885 21.5909V29.5909ZM180.858 19.9269C181.647 20.0762 182.405 20.2469 183.13 20.4389C183.877 20.6096 184.538 20.8656 185.114 21.2069C185.69 21.5269 186.149 21.9642 186.49 22.5189C186.831 23.0522 187.002 23.7562 187.002 24.6309C187.002 25.5269 186.81 26.3056 186.426 26.9669C186.042 27.6069 185.509 28.1402 184.826 28.5669C184.165 28.9722 183.386 29.2816 182.49 29.4949C181.594 29.6869 180.623 29.7829 179.578 29.7829C179.151 29.7829 178.671 29.7616 178.138 29.7189C177.626 29.6976 177.093 29.6549 176.538 29.5909C175.983 29.5269 175.439 29.4522 174.906 29.3669C174.373 29.2816 173.882 29.1856 173.434 29.0789V25.4629C173.797 25.5696 174.234 25.6656 174.746 25.7509C175.279 25.8149 175.834 25.8789 176.41 25.9429C176.986 25.9856 177.562 26.0282 178.138 26.0709C178.735 26.0922 179.279 26.1029 179.77 26.1029C181.05 26.1029 181.957 26.0069 182.49 25.8149C183.045 25.6016 183.322 25.2709 183.322 24.8229C183.322 24.6736 183.269 24.5456 183.162 24.4389C183.077 24.3109 182.885 24.1936 182.586 24.0869C182.309 23.9589 181.903 23.8416 181.37 23.7349C180.837 23.6069 180.133 23.4576 179.258 23.2869C178.853 23.2016 178.33 23.0949 177.69 22.9669C177.05 22.8389 176.421 22.6042 175.802 22.2629C175.205 21.9216 174.682 21.4522 174.234 20.8549C173.786 20.2576 173.562 19.4576 173.562 18.4549C173.562 17.6016 173.733 16.8656 174.074 16.2469C174.415 15.6069 174.885 15.0842 175.482 14.6789C176.101 14.2522 176.826 13.9429 177.658 13.7509C178.49 13.5376 179.397 13.4309 180.378 13.4309C180.762 13.4309 181.199 13.4522 181.69 13.4949C182.202 13.5162 182.714 13.5589 183.226 13.6229C183.738 13.6869 184.25 13.7616 184.762 13.8469C185.274 13.9322 185.743 14.0282 186.17 14.1349V17.7509C185.871 17.6656 185.477 17.5909 184.986 17.5269C184.495 17.4416 183.973 17.3669 183.418 17.3029C182.885 17.2389 182.33 17.1962 181.754 17.1749C181.199 17.1322 180.698 17.1109 180.25 17.1109C179.119 17.1109 178.33 17.2176 177.882 17.4309C177.455 17.6442 177.242 17.9429 177.242 18.3269C177.242 18.5402 177.295 18.7216 177.402 18.8709C177.53 18.9989 177.733 19.1269 178.01 19.2549C178.287 19.3616 178.661 19.4682 179.13 19.5749C179.599 19.6816 180.175 19.7989 180.858 19.9269ZM192.707 21.5909C192.707 22.2309 192.782 22.8282 192.931 23.3829C193.102 23.9376 193.358 24.4282 193.699 24.8549C194.062 25.2602 194.51 25.5802 195.043 25.8149C195.598 26.0496 196.259 26.1669 197.027 26.1669C197.795 26.1669 198.446 26.0496 198.979 25.8149C199.534 25.5802 199.982 25.2602 200.323 24.8549C200.686 24.4282 200.942 23.9376 201.091 23.3829C201.262 22.8282 201.347 22.2309 201.347 21.5909C201.347 20.9509 201.262 20.3536 201.091 19.7989C200.942 19.2442 200.686 18.7642 200.323 18.3589C199.982 17.9322 199.534 17.6016 198.979 17.3669C198.446 17.1322 197.795 17.0149 197.027 17.0149C196.259 17.0149 195.598 17.1322 195.043 17.3669C194.51 17.6016 194.062 17.9322 193.699 18.3589C193.358 18.7642 193.102 19.2442 192.931 19.7989C192.782 20.3536 192.707 20.9509 192.707 21.5909ZM188.867 21.5909C188.867 20.4602 189.048 19.4042 189.411 18.4229C189.774 17.4202 190.307 16.5562 191.011 15.8309C191.715 15.0842 192.568 14.4976 193.571 14.0709C194.595 13.6442 195.747 13.4309 197.027 13.4309C198.307 13.4309 199.448 13.6442 200.451 14.0709C201.475 14.4976 202.339 15.0842 203.043 15.8309C203.747 16.5562 204.28 17.4202 204.643 18.4229C205.006 19.4042 205.187 20.4602 205.187 21.5909C205.187 22.7216 205.006 23.7882 204.643 24.7909C204.28 25.7722 203.747 26.6362 203.043 27.3829C202.339 28.1082 201.475 28.6842 200.451 29.1109C199.448 29.5376 198.307 29.7509 197.027 29.7509C195.747 29.7509 194.595 29.5376 193.571 29.1109C192.568 28.6842 191.715 28.1082 191.011 27.3829C190.307 26.6362 189.774 25.7722 189.411 24.7909C189.048 23.7882 188.867 22.7216 188.867 21.5909ZM214.733 19.9269C215.522 20.0762 216.28 20.2469 217.005 20.4389C217.752 20.6096 218.413 20.8656 218.989 21.2069C219.565 21.5269 220.024 21.9642 220.365 22.5189C220.706 23.0522 220.877 23.7562 220.877 24.6309C220.877 25.5269 220.685 26.3056 220.301 26.9669C219.917 27.6069 219.384 28.1402 218.701 28.5669C218.04 28.9722 217.261 29.2816 216.365 29.4949C215.469 29.6869 214.498 29.7829 213.453 29.7829C213.026 29.7829 212.546 29.7616 212.013 29.7189C211.501 29.6976 210.968 29.6549 210.413 29.5909C209.858 29.5269 209.314 29.4522 208.781 29.3669C208.248 29.2816 207.757 29.1856 207.309 29.0789V25.4629C207.672 25.5696 208.109 25.6656 208.621 25.7509C209.154 25.8149 209.709 25.8789 210.285 25.9429C210.861 25.9856 211.437 26.0282 212.013 26.0709C212.61 26.0922 213.154 26.1029 213.645 26.1029C214.925 26.1029 215.832 26.0069 216.365 25.8149C216.92 25.6016 217.197 25.2709 217.197 24.8229C217.197 24.6736 217.144 24.5456 217.037 24.4389C216.952 24.3109 216.76 24.1936 216.461 24.0869C216.184 23.9589 215.778 23.8416 215.245 23.7349C214.712 23.6069 214.008 23.4576 213.133 23.2869C212.728 23.2016 212.205 23.0949 211.565 22.9669C210.925 22.8389 210.296 22.6042 209.677 22.2629C209.08 21.9216 208.557 21.4522 208.109 20.8549C207.661 20.2576 207.437 19.4576 207.437 18.4549C207.437 17.6016 207.608 16.8656 207.949 16.2469C208.29 15.6069 208.76 15.0842 209.357 14.6789C209.976 14.2522 210.701 13.9429 211.533 13.7509C212.365 13.5376 213.272 13.4309 214.253 13.4309C214.637 13.4309 215.074 13.4522 215.565 13.4949C216.077 13.5162 216.589 13.5589 217.101 13.6229C217.613 13.6869 218.125 13.7616 218.637 13.8469C219.149 13.9322 219.618 14.0282 220.045 14.1349V17.7509C219.746 17.6656 219.352 17.5909 218.861 17.5269C218.37 17.4416 217.848 17.3669 217.293 17.3029C216.76 17.2389 216.205 17.1962 215.629 17.1749C215.074 17.1322 214.573 17.1109 214.125 17.1109C212.994 17.1109 212.205 17.2176 211.757 17.4309C211.33 17.6442 211.117 17.9429 211.117 18.3269C211.117 18.5402 211.17 18.7216 211.277 18.8709C211.405 18.9989 211.608 19.1269 211.885 19.2549C212.162 19.3616 212.536 19.4682 213.005 19.5749C213.474 19.6816 214.05 19.7989 214.733 19.9269Z" fill="#354A9D"/>
<path d="M81.312 24.8869L81.1577 24.7596L81.1577 24.7596L81.312 24.8869ZM82.368 10.0069V9.80691H82.168V10.0069H82.368ZM86.208 10.0069H86.408V9.80691H86.208V10.0069ZM85.664 24.7909L85.8516 24.8602L85.8521 24.8589L85.664 24.7909ZM84.064 27.3829L83.9185 27.2457L83.9184 27.2458L84.064 27.3829ZM81.504 29.1109L81.4271 28.9263L81.4257 28.9269L81.504 29.1109ZM74.56 29.1109L74.4817 29.2949L74.4831 29.2955L74.56 29.1109ZM72 27.3829L71.8523 27.5179L71.8565 27.5222L72 27.3829ZM70.432 24.7909L70.2439 24.8589L70.2444 24.8602L70.432 24.7909ZM69.888 10.0069V9.80691H69.688V10.0069H69.888ZM73.728 10.0069H73.928V9.80691H73.728V10.0069ZM74.784 24.8869L74.9383 24.7596L74.9383 24.7596L74.784 24.8869ZM78.048 26.3669C79.5586 26.3669 80.7127 25.9277 81.4663 25.0142L81.1577 24.7596C80.5033 25.5528 79.4814 25.9669 78.048 25.9669V26.3669ZM81.4663 25.0142C82.2058 24.1178 82.568 22.971 82.568 21.5909H82.168C82.168 22.8988 81.8262 23.9494 81.1577 24.7596L81.4663 25.0142ZM82.568 21.5909V10.0069H82.168V21.5909H82.568ZM82.368 10.2069H86.208V9.80691H82.368V10.2069ZM86.008 10.0069V21.5909H86.408V10.0069H86.008ZM86.008 21.5909C86.008 22.6998 85.8302 23.7433 85.4759 24.7229L85.8521 24.8589C86.2231 23.8332 86.408 22.7434 86.408 21.5909H86.008ZM85.4764 24.7216C85.1229 25.6782 84.6037 26.519 83.9185 27.2457L84.2095 27.5201C84.9323 26.7535 85.4798 25.8663 85.8516 24.8602L85.4764 24.7216ZM83.9184 27.2458C83.2571 27.9484 82.4281 28.5092 81.4271 28.9263L81.5809 29.2955C82.628 28.8593 83.5056 28.268 84.2096 27.52L83.9184 27.2458ZM81.4257 28.9269C80.4521 29.3412 79.3276 29.5509 78.048 29.5509V29.9509C79.3711 29.9509 80.5506 29.734 81.5823 29.2949L81.4257 28.9269ZM78.048 29.5509C76.7686 29.5509 75.6327 29.3412 74.6369 28.9263L74.4831 29.2955C75.5353 29.7339 76.7248 29.9509 78.048 29.9509V29.5509ZM74.6383 28.9269C73.6582 28.5098 72.8276 27.9484 72.1435 27.2436L71.8565 27.5222C72.5804 28.2681 73.4565 28.8587 74.4817 29.2949L74.6383 28.9269ZM72.1476 27.248C71.483 26.521 70.9736 25.6795 70.6196 24.7216L70.2444 24.8602C70.6157 25.865 71.1517 26.7515 71.8524 27.5179L72.1476 27.248ZM70.6201 24.7229C70.2658 23.7433 70.088 22.6998 70.088 21.5909H69.688C69.688 22.7434 69.8729 23.8332 70.2439 24.8589L70.6201 24.7229ZM70.088 21.5909V10.0069H69.688V21.5909H70.088ZM69.888 10.2069H73.728V9.80691H69.888V10.2069ZM73.528 10.0069V21.5909H73.928V10.0069H73.528ZM73.528 21.5909C73.528 22.971 73.8902 24.1178 74.6297 25.0142L74.9383 24.7596C74.2698 23.9494 73.928 22.8988 73.928 21.5909H73.528ZM74.6297 25.0142C75.3833 25.9277 76.5374 26.3669 78.048 26.3669V25.9669C76.6146 25.9669 75.5927 25.5528 74.9383 24.7596L74.6297 25.0142ZM94.7825 18.2949L94.6244 18.1724L94.6225 18.1749L94.7825 18.2949ZM93.8225 29.5909V29.7909H94.0225V29.5909H93.8225ZM89.9825 29.5909H89.7825V29.7909H89.9825V29.5909ZM90.4945 18.4229L90.3064 18.3549L90.3056 18.3572L90.4945 18.4229ZM92.0305 15.8309L91.8829 15.696L91.8827 15.6962L92.0305 15.8309ZM94.4945 14.0709L94.4148 13.8875L94.4133 13.8881L94.4945 14.0709ZM101.119 14.0709L101.037 14.2537L101.039 14.2543L101.119 14.0709ZM103.583 15.8309L103.433 15.9636L103.437 15.968L103.583 15.8309ZM105.119 18.4229L104.929 18.4874L104.931 18.4922L105.119 18.4229ZM105.663 29.5909V29.7909H105.863V29.5909H105.663ZM101.823 29.5909H101.623V29.7909H101.823V29.5909ZM100.831 18.2949L100.67 18.4149L100.672 18.4174L100.831 18.2949ZM97.8225 16.8149C96.4133 16.8149 95.3334 17.2575 94.6244 18.1724L94.9406 18.4174C95.5542 17.6256 96.501 17.2149 97.8225 17.2149V16.8149ZM94.6225 18.1749C93.9504 19.071 93.6225 20.215 93.6225 21.5909H94.0225C94.0225 20.2788 94.3346 19.2255 94.9425 18.4149L94.6225 18.1749ZM93.6225 21.5909V29.5909H94.0225V21.5909H93.6225ZM93.8225 29.3909H89.9825V29.7909H93.8225V29.3909ZM90.1825 29.5909V21.5909H89.7825V29.5909H90.1825ZM90.1825 21.5909C90.1825 20.4806 90.35 19.447 90.6834 18.4886L90.3056 18.3572C89.9563 19.3615 89.7825 20.4398 89.7825 21.5909H90.1825ZM90.6826 18.4909C91.0371 17.5108 91.5361 16.67 92.1783 15.9657L91.8827 15.6962C91.2022 16.4425 90.6772 17.3297 90.3064 18.3549L90.6826 18.4909ZM92.1781 15.9659C92.8415 15.2403 93.6399 14.6696 94.5757 14.2537L94.4133 13.8881C93.4291 14.3256 92.5849 14.9282 91.8829 15.696L92.1781 15.9659ZM94.5742 14.2543C95.5268 13.8402 96.6084 13.6309 97.8225 13.6309V13.2309C96.562 13.2309 95.4249 13.4483 94.4148 13.8875L94.5742 14.2543ZM97.8225 13.6309C99.0368 13.6309 100.107 13.8402 101.037 14.2537L101.2 13.8881C100.21 13.4483 99.0829 13.2309 97.8225 13.2309V13.6309ZM101.039 14.2543C101.995 14.6702 102.792 15.2402 103.433 15.9635L103.732 15.6983C103.05 14.9282 102.204 14.3249 101.198 13.8875L101.039 14.2543ZM103.437 15.968C104.099 16.6712 104.596 17.51 104.929 18.4874L105.308 18.3585C104.958 17.3305 104.432 16.4413 103.728 15.6938L103.437 15.968ZM104.931 18.4922C105.285 19.4497 105.463 20.482 105.463 21.5909H105.863C105.863 20.4385 105.678 19.3588 105.306 18.3536L104.931 18.4922ZM105.463 21.5909V29.5909H105.863V21.5909H105.463ZM105.663 29.3909H101.823V29.7909H105.663V29.3909ZM102.023 29.5909V21.5909H101.623V29.5909H102.023ZM102.023 21.5909C102.023 20.2136 101.683 19.0686 100.989 18.1724L100.672 18.4174C101.3 19.2278 101.623 20.2802 101.623 21.5909H102.023ZM100.991 18.1749C100.302 17.2575 99.2314 16.8149 97.8225 16.8149V17.2149C99.1443 17.2149 100.079 17.6257 100.671 18.4149L100.991 18.1749ZM113.073 29.5909V29.7909H113.273V29.5909H113.073ZM109.233 29.5909H109.033V29.7909H109.233V29.5909ZM109.233 13.5909V13.3909H109.033V13.5909H109.233ZM113.073 13.5909H113.273V13.3909H113.073V13.5909ZM109.329 7.57491L109.184 7.43678L109.181 7.44038L109.329 7.57491ZM112.945 7.60691L112.794 7.73818L112.797 7.74145L112.945 7.60691ZM112.945 11.0629L113.093 11.1975L113.095 11.1941L112.945 11.0629ZM109.329 11.0629L109.177 11.1943L109.184 11.201L109.329 11.0629ZM113.073 29.3909H109.233V29.7909H113.073V29.3909ZM109.433 29.5909V13.5909H109.033V29.5909H109.433ZM109.233 13.7909H113.073V13.3909H109.233V13.7909ZM112.873 13.5909V29.5909H113.273V13.5909H112.873ZM108.889 9.30291C108.889 8.66586 109.086 8.13902 109.476 7.70945L109.181 7.44038C108.718 7.94947 108.489 8.57463 108.489 9.30291H108.889ZM109.473 7.71301C109.877 7.29044 110.428 7.07091 111.153 7.07091V6.67091C110.341 6.67091 109.676 6.92072 109.184 7.43682L109.473 7.71301ZM111.153 7.07091C111.874 7.07091 112.412 7.29918 112.794 7.73815L113.095 7.47567C112.624 6.93331 111.967 6.67091 111.153 6.67091V7.07091ZM112.797 7.74145C113.188 8.17227 113.385 8.689 113.385 9.30291H113.785C113.785 8.59416 113.554 7.98021 113.092 7.47238L112.797 7.74145ZM113.385 9.30291C113.385 9.93997 113.187 10.4793 112.794 10.9317L113.095 11.1941C113.555 10.6652 113.785 10.0312 113.785 9.30291H113.385ZM112.797 10.9284C112.416 11.3474 111.877 11.5669 111.153 11.5669V11.9669C111.964 11.9669 112.62 11.7171 113.092 11.1974L112.797 10.9284ZM111.153 11.5669C110.428 11.5669 109.877 11.3474 109.473 10.9248L109.184 11.201C109.676 11.7171 110.341 11.9669 111.153 11.9669V11.5669ZM109.479 10.9317C109.086 10.4793 108.889 9.93997 108.889 9.30291H108.489C108.489 10.0312 108.718 10.6652 109.178 11.1941L109.479 10.9317ZM120.76 29.5909V29.7909H120.96V29.5909H120.76ZM116.92 29.5909H116.72V29.7909H116.92V29.5909ZM116.92 7.19091V6.99091H116.72V7.19091H116.92ZM120.76 7.19091H120.96V6.99091H120.76V7.19091ZM120.76 29.3909H116.92V29.7909H120.76V29.3909ZM117.12 29.5909V7.19091H116.72V29.5909H117.12ZM116.92 7.39091H120.76V6.99091H116.92V7.39091ZM120.56 7.19091V29.5909H120.96V7.19091H120.56ZM128.288 22.2949L128.093 22.3434L128.095 22.3484L128.288 22.2949ZM129.312 24.3109L129.156 24.4374L129.162 24.4434L129.312 24.3109ZM131.232 25.6229L131.156 25.8083L131.158 25.8089L131.232 25.6229ZM137.184 25.8789L137.214 26.0767L137.218 26.076L137.184 25.8789ZM139.583 25.1749H139.783V24.8563L139.497 24.9948L139.583 25.1749ZM139.583 29.1109L139.64 29.3026L139.783 29.2601V29.1109H139.583ZM136.96 29.6229L136.937 29.4241L136.933 29.4247L136.96 29.6229ZM129.792 29.0469L129.711 29.2301L129.715 29.2317L129.792 29.0469ZM126.72 26.9029L126.573 27.039L126.72 26.9029ZM124.799 23.7349L124.611 23.8011L124.612 23.8041L124.799 23.7349ZM124.799 15.9269L124.612 15.8578L124.611 15.8607L124.799 15.9269ZM126.72 12.7589L126.573 12.6228L126.573 12.6228L126.72 12.7589ZM129.792 10.6469L129.869 10.8312L129.871 10.8306L129.792 10.6469ZM136.96 10.0389L136.933 10.2372L136.937 10.2377L136.96 10.0389ZM139.583 10.5509H139.783V10.4017L139.64 10.3592L139.583 10.5509ZM139.583 14.4869L139.497 14.667L139.783 14.8055V14.4869H139.583ZM137.184 13.8149L137.149 14.012L137.153 14.0126L137.184 13.8149ZM131.232 14.0389L131.158 13.8529L131.156 13.8536L131.232 14.0389ZM129.312 15.3829L129.159 15.2532L129.159 15.2537L129.312 15.3829ZM128.288 17.3669L128.095 17.3134L128.094 17.3171L128.288 17.3669ZM127.8 19.7989C127.8 20.7092 127.897 21.5576 128.093 22.3434L128.482 22.2464C128.294 21.4962 128.2 20.6807 128.2 19.7989H127.8ZM128.095 22.3484C128.315 23.1411 128.668 23.8383 129.156 24.4372L129.467 24.1846C129.016 23.6315 128.687 22.9847 128.48 22.2414L128.095 22.3484ZM129.162 24.4434C129.676 25.0245 130.343 25.4784 131.156 25.8083L131.307 25.4376C130.542 25.1274 129.929 24.7067 129.461 24.1784L129.162 24.4434ZM131.158 25.8089C131.999 26.1408 133.017 26.3029 134.208 26.3029V25.9029C133.051 25.9029 132.086 25.7451 131.305 25.4369L131.158 25.8089ZM134.208 26.3029C135.22 26.3029 136.222 26.2275 137.214 26.0766L137.153 25.6812C136.182 25.829 135.2 25.9029 134.208 25.9029V26.3029ZM137.218 26.076C138.21 25.9034 139.029 25.6645 139.67 25.355L139.497 24.9948C138.9 25.2827 138.12 25.5131 137.149 25.6819L137.218 26.076ZM139.383 25.1749V29.1109H139.783V25.1749H139.383ZM139.527 28.9192C138.75 29.15 137.888 29.3186 136.937 29.4241L136.982 29.8217C137.951 29.7139 138.838 29.5412 139.64 29.3026L139.527 28.9192ZM136.933 29.4247C135.982 29.5515 135.01 29.6149 134.016 29.6149V30.0149C135.027 30.0149 136.017 29.9504 136.986 29.8212L136.933 29.4247ZM134.016 29.6149C132.458 29.6149 131.077 29.3624 129.868 28.8621L129.715 29.2317C130.981 29.7554 132.415 30.0149 134.016 30.0149V29.6149ZM129.872 28.8638C128.679 28.3405 127.678 27.6411 126.866 26.7668L126.573 27.039C127.425 27.9567 128.472 28.6867 129.711 29.2301L129.872 28.8638ZM126.866 26.7668C126.053 25.8913 125.427 24.8585 124.987 23.6658L124.612 23.8041C125.068 25.0434 125.722 26.1225 126.573 27.039L126.866 26.7668ZM124.988 23.6687C124.57 22.4755 124.36 21.1967 124.36 19.8309H123.96C123.96 21.2384 124.176 22.5623 124.611 23.8011L124.988 23.6687ZM124.36 19.8309C124.36 18.4651 124.57 17.1863 124.988 15.9931L124.611 15.8607C124.176 17.0995 123.96 18.4234 123.96 19.8309H124.36ZM124.987 15.9961C125.427 14.8034 126.053 13.7705 126.866 12.895L126.573 12.6228C125.722 13.5393 125.068 14.6185 124.612 15.8578L124.987 15.9961ZM126.866 12.895C127.677 12.0214 128.677 11.3331 129.869 10.8312L129.714 10.4626C128.474 10.9847 127.426 11.7044 126.573 12.6228L126.866 12.895ZM129.871 10.8306C131.079 10.3097 132.459 10.0469 134.016 10.0469V9.64691C132.414 9.64691 130.979 9.91745 129.712 10.4632L129.871 10.8306ZM134.016 10.0469C135.01 10.0469 135.982 10.1104 136.933 10.2372L136.986 9.84067C136.017 9.71146 135.027 9.64691 134.016 9.64691V10.0469ZM136.937 10.2377C137.888 10.3433 138.75 10.5119 139.527 10.7426L139.64 10.3592C138.838 10.1206 137.951 9.9479 136.982 9.84014L136.937 10.2377ZM139.383 10.5509V14.4869H139.783V10.5509H139.383ZM139.67 14.3068C139.028 13.9965 138.207 13.7683 137.214 13.6172L137.153 14.0126C138.123 14.1602 138.902 14.3799 139.497 14.667L139.67 14.3068ZM137.218 13.6179C136.225 13.4452 135.222 13.3589 134.208 13.3589V13.7589C135.199 13.7589 136.179 13.8433 137.149 14.012L137.218 13.6179ZM134.208 13.3589C133.017 13.3589 131.999 13.5211 131.158 13.8529L131.305 14.2249C132.086 13.9168 133.051 13.7589 134.208 13.7589V13.3589ZM131.156 13.8536C130.341 14.1841 129.673 14.6498 129.159 15.2532L129.464 15.5126C129.931 14.964 130.543 14.5337 131.307 14.2243L131.156 13.8536ZM129.159 15.2537C128.669 15.8325 128.315 16.5203 128.095 17.3134L128.48 17.4204C128.687 16.6775 129.015 16.0427 129.464 15.5121L129.159 15.2537ZM128.094 17.3171C127.897 18.0821 127.8 18.9097 127.8 19.7989H128.2C128.2 18.9388 128.294 18.1451 128.481 17.4167L128.094 17.3171ZM153.387 24.8869L153.229 24.7644L153.227 24.7669L153.387 24.8869ZM154.379 13.5909V13.3909H154.179V13.5909H154.379ZM158.219 13.5909H158.419V13.3909H158.219V13.5909ZM157.675 24.7909L157.487 24.7229L157.486 24.7252L157.675 24.7909ZM156.139 27.3829L155.991 27.248L155.991 27.2482L156.139 27.3829ZM153.675 29.1109L153.595 28.9275L153.594 28.9281L153.675 29.1109ZM147.051 29.1109L146.97 29.2937L146.971 29.2943L147.051 29.1109ZM144.587 27.3829L144.437 27.5156L144.441 27.52L144.587 27.3829ZM143.051 24.7909L142.862 24.8554L142.863 24.8602L143.051 24.7909ZM142.539 13.5909V13.3909H142.339V13.5909H142.539ZM146.379 13.5909H146.579V13.3909H146.379V13.5909ZM147.339 24.8869L147.179 25.0069L147.181 25.0094L147.339 24.8869ZM150.379 26.3669C151.788 26.3669 152.859 25.9243 153.547 25.0069L153.227 24.7669C152.635 25.5562 151.701 25.9669 150.379 25.9669V26.3669ZM153.545 25.0094C154.24 24.1132 154.579 22.9682 154.579 21.5909H154.179C154.179 22.9016 153.857 23.954 153.229 24.7644L153.545 25.0094ZM154.579 21.5909V13.5909H154.179V21.5909H154.579ZM154.379 13.7909H158.219V13.3909H154.379V13.7909ZM158.019 13.5909V21.5909H158.419V13.5909H158.019ZM158.019 21.5909C158.019 22.6998 157.841 23.7433 157.487 24.7229L157.863 24.8589C158.234 23.8332 158.419 22.7434 158.419 21.5909H158.019ZM157.486 24.7252C157.153 25.6816 156.655 26.5219 155.991 27.248L156.287 27.5179C156.988 26.7506 157.514 25.8629 157.864 24.8566L157.486 24.7252ZM155.991 27.2482C155.351 27.9508 154.553 28.511 153.595 28.9275L153.755 29.2943C154.76 28.8574 155.605 28.2657 156.287 27.5177L155.991 27.2482ZM153.594 28.9281C152.663 29.3416 151.593 29.5509 150.379 29.5509V29.9509C151.639 29.9509 152.767 29.7335 153.756 29.2937L153.594 28.9281ZM150.379 29.5509C149.165 29.5509 148.083 29.3416 147.131 28.9275L146.971 29.2943C147.981 29.7335 149.118 29.9509 150.379 29.9509V29.5509ZM147.132 28.9281C146.195 28.5117 145.396 27.9508 144.733 27.2458L144.441 27.52C145.143 28.2657 145.987 28.8568 146.97 29.2937L147.132 28.9281ZM144.737 27.2503C144.093 26.5231 143.593 25.6808 143.239 24.7216L142.863 24.8602C143.234 25.8637 143.759 26.7494 144.437 27.5155L144.737 27.2503ZM143.24 24.7265C142.907 23.7459 142.739 22.7011 142.739 21.5909H142.339C142.339 22.742 142.513 23.8306 142.862 24.8554L143.24 24.7265ZM142.739 21.5909V13.5909H142.339V21.5909H142.739ZM142.539 13.7909H146.379V13.3909H142.539V13.7909ZM146.179 13.5909V21.5909H146.579V13.5909H146.179ZM146.179 21.5909C146.179 22.9668 146.507 24.1108 147.179 25.0069L147.499 24.7669C146.891 23.9563 146.579 22.903 146.579 21.5909H146.179ZM147.181 25.0094C147.89 25.9243 148.97 26.3669 150.379 26.3669V25.9669C149.058 25.9669 148.111 25.5562 147.497 24.7644L147.181 25.0094ZM165.885 29.5909V29.7909H166.085V29.5909H165.885ZM162.045 29.5909H161.845V29.7909H162.045V29.5909ZM162.589 18.4229L162.777 18.4909L162.777 18.4909L162.589 18.4229ZM164.189 15.8309L164.333 15.9702L164.335 15.9681L164.189 15.8309ZM166.781 14.0709L166.704 13.8863L166.704 13.8863L166.781 14.0709ZM171.005 13.4949L170.969 13.6917L170.978 13.6933L170.987 13.6941L171.005 13.4949ZM171.709 13.5909H171.909V13.424L171.745 13.3941L171.709 13.5909ZM171.709 17.3029L171.67 17.499L171.909 17.5469V17.3029H171.709ZM171.101 17.2069L171.058 17.4021L171.068 17.4045L171.079 17.4057L171.101 17.2069ZM168.285 17.4949L168.212 17.3087L168.21 17.3097L168.285 17.4949ZM166.877 18.4549L167.022 18.5923L167.026 18.5883L166.877 18.4549ZM166.109 19.8629L166.302 19.9168L166.302 19.9149L166.109 19.8629ZM165.885 29.3909H162.045V29.7909H165.885V29.3909ZM162.245 29.5909V21.6229H161.845V29.5909H162.245ZM162.245 21.6229C162.245 20.514 162.423 19.4705 162.777 18.4909L162.401 18.3549C162.03 19.3807 161.845 20.4705 161.845 21.6229H162.245ZM162.777 18.4909C163.131 17.5134 163.649 16.6741 164.333 15.9702L164.045 15.6916C163.321 16.4384 162.773 17.3271 162.401 18.3549L162.777 18.4909ZM164.335 15.9681C165.018 15.2435 165.858 14.6723 166.858 14.2555L166.704 13.8863C165.656 14.3229 164.768 14.925 164.043 15.6937L164.335 15.9681ZM166.858 14.2555C167.853 13.8408 169 13.6309 170.301 13.6309V13.2309C168.957 13.2309 167.757 13.4477 166.704 13.8863L166.858 14.2555ZM170.301 13.6309C170.523 13.6309 170.746 13.6511 170.969 13.6917L171.041 13.2981C170.794 13.2534 170.548 13.2309 170.301 13.2309V13.6309ZM170.987 13.6941C171.216 13.7149 171.444 13.7461 171.673 13.7877L171.745 13.3941C171.504 13.3504 171.264 13.3176 171.023 13.2957L170.987 13.6941ZM171.509 13.5909V17.3029H171.909V13.5909H171.509ZM171.748 17.1068C171.53 17.0631 171.321 17.0302 171.123 17.0081L171.079 17.4057C171.265 17.4263 171.461 17.4574 171.67 17.499L171.748 17.1068ZM171.144 17.0117C170.937 16.9656 170.72 16.9429 170.493 16.9429V17.3429C170.693 17.3429 170.881 17.3629 171.058 17.4021L171.144 17.0117ZM170.493 16.9429C169.602 16.9429 168.839 17.0623 168.212 17.3088L168.358 17.6811C168.925 17.4582 169.635 17.3429 170.493 17.3429V16.9429ZM168.21 17.3097C167.609 17.5542 167.114 17.8905 166.728 18.3216L167.026 18.5883C167.366 18.2086 167.809 17.905 168.36 17.6801L168.21 17.3097ZM166.732 18.3176C166.344 18.7277 166.073 19.2272 165.916 19.8109L166.302 19.9149C166.444 19.3893 166.684 18.9501 167.022 18.5922L166.732 18.3176ZM165.916 19.809C165.762 20.3618 165.685 20.9561 165.685 21.5909H166.085C166.085 20.9884 166.158 20.4307 166.302 19.9168L165.916 19.809ZM165.685 21.5909V29.5909H166.085V21.5909H165.685ZM180.858 19.9269L180.895 19.7304L180.895 19.7303L180.858 19.9269ZM183.13 20.4389L183.079 20.6324L183.085 20.6339L183.13 20.4389ZM185.114 21.2069L185.012 21.379L185.017 21.3817L185.114 21.2069ZM186.49 22.5189L186.32 22.6237L186.322 22.6267L186.49 22.5189ZM186.426 26.9669L186.598 27.0698L186.599 27.0673L186.426 26.9669ZM184.826 28.5669L184.931 28.7374L184.932 28.7365L184.826 28.5669ZM182.49 29.4949L182.532 29.6905L182.536 29.6895L182.49 29.4949ZM178.138 29.7189L178.154 29.5194L178.146 29.5191L178.138 29.7189ZM176.538 29.5909L176.515 29.7896L176.515 29.7896L176.538 29.5909ZM174.906 29.3669L174.938 29.1694L174.906 29.3669ZM173.434 29.0789H173.234V29.2369L173.388 29.2735L173.434 29.0789ZM173.434 25.4629L173.49 25.271L173.234 25.1956V25.4629H173.434ZM174.746 25.7509L174.713 25.9484L174.722 25.9495L174.746 25.7509ZM176.41 25.9429L176.388 26.1418L176.395 26.1424L176.41 25.9429ZM178.138 26.0709L178.123 26.2705L178.131 26.2708L178.138 26.0709ZM182.49 25.8149L182.558 26.0031L182.562 26.0016L182.49 25.8149ZM183.162 24.4389L182.996 24.5499L183.007 24.5663L183.021 24.5803L183.162 24.4389ZM182.586 24.0869L182.502 24.2685L182.51 24.2723L182.519 24.2753L182.586 24.0869ZM181.37 23.7349L181.323 23.9295L181.331 23.931L181.37 23.7349ZM179.258 23.2869L179.217 23.4826L179.22 23.4832L179.258 23.2869ZM177.69 22.9669L177.729 22.7708L177.729 22.7708L177.69 22.9669ZM175.802 22.2629L175.703 22.4366L175.705 22.438L175.802 22.2629ZM174.234 20.8549L174.074 20.9749L174.074 20.9749L174.234 20.8549ZM174.074 16.2469L174.249 16.3435L174.25 16.341L174.074 16.2469ZM175.482 14.6789L175.594 14.8444L175.596 14.8436L175.482 14.6789ZM177.658 13.7509L177.703 13.9458L177.708 13.9446L177.658 13.7509ZM181.69 13.4949L181.673 13.6944L181.682 13.6947L181.69 13.4949ZM183.226 13.6229L183.201 13.8214L183.201 13.8214L183.226 13.6229ZM184.762 13.8469L184.729 14.0442L184.729 14.0442L184.762 13.8469ZM186.17 14.1349H186.37V13.9788L186.219 13.9409L186.17 14.1349ZM186.17 17.7509L186.115 17.9432L186.37 18.0161V17.7509H186.17ZM184.986 17.5269L184.952 17.7241L184.96 17.7252L184.986 17.5269ZM183.418 17.3029L183.394 17.5015L183.395 17.5016L183.418 17.3029ZM181.754 17.1749L181.739 17.3745L181.747 17.3748L181.754 17.1749ZM177.882 17.4309L177.796 17.2503L177.793 17.252L177.882 17.4309ZM177.402 18.8709L177.239 18.9872L177.249 19.0006L177.261 19.0123L177.402 18.8709ZM178.01 19.2549L177.926 19.4369L177.938 19.4416L178.01 19.2549ZM179.13 19.5749L179.086 19.7699L179.086 19.7699L179.13 19.5749ZM180.821 20.1234C181.606 20.2719 182.358 20.4416 183.079 20.6323L183.181 20.2456C182.451 20.0523 181.689 19.8806 180.895 19.7304L180.821 20.1234ZM183.085 20.6339C183.815 20.8006 184.456 21.0496 185.012 21.379L185.216 21.0349C184.62 20.6816 183.939 20.4186 183.175 20.2439L183.085 20.6339ZM185.017 21.3817C185.563 21.6853 185.997 22.0987 186.32 22.6237L186.66 22.4141C186.301 21.8298 185.817 21.3685 185.211 21.0321L185.017 21.3817ZM186.322 22.6267C186.636 23.1178 186.802 23.7804 186.802 24.6309H187.202C187.202 23.7321 187.027 22.9867 186.658 22.4111L186.322 22.6267ZM186.802 24.6309C186.802 25.4977 186.616 26.2405 186.253 26.8665L186.599 27.0673C187.004 26.3706 187.202 25.5561 187.202 24.6309H186.802ZM186.255 26.864C185.888 27.4748 185.378 27.986 184.72 28.3973L184.932 28.7365C185.639 28.2944 186.196 27.739 186.597 27.0698L186.255 26.864ZM184.721 28.3964C184.081 28.7888 183.323 29.091 182.444 29.3004L182.536 29.6895C183.449 29.4721 184.248 29.1556 184.931 28.7374L184.721 28.3964ZM182.448 29.2994C181.568 29.488 180.611 29.5829 179.578 29.5829V29.9829C180.635 29.9829 181.62 29.8858 182.532 29.6905L182.448 29.2994ZM179.578 29.5829C179.158 29.5829 178.683 29.5619 178.154 29.5195L178.122 29.9183C178.659 29.9613 179.145 29.9829 179.578 29.9829V29.5829ZM178.146 29.5191C177.64 29.498 177.111 29.4557 176.561 29.3922L176.515 29.7896C177.074 29.8541 177.612 29.8972 178.13 29.9187L178.146 29.5191ZM176.561 29.3922C176.009 29.3286 175.468 29.2543 174.938 29.1694L174.874 29.5644C175.411 29.6502 175.958 29.7253 176.515 29.7896L176.561 29.3922ZM174.938 29.1694C174.408 29.0848 173.923 28.9897 173.48 28.8844L173.388 29.2735C173.841 29.3815 174.337 29.4784 174.874 29.5644L174.938 29.1694ZM173.634 29.0789V25.4629H173.234V29.0789H173.634ZM173.378 25.6548C173.75 25.7644 174.196 25.862 174.713 25.9482L174.779 25.5536C174.272 25.4692 173.843 25.3748 173.49 25.271L173.378 25.6548ZM174.722 25.9495C175.256 26.0136 175.811 26.0776 176.388 26.1417L176.432 25.7441C175.857 25.6802 175.303 25.6163 174.77 25.5523L174.722 25.9495ZM176.395 26.1424C176.971 26.185 177.547 26.2277 178.123 26.2704L178.153 25.8715C177.577 25.8288 177.001 25.7861 176.425 25.7435L176.395 26.1424ZM178.131 26.2708C178.73 26.2922 179.277 26.3029 179.77 26.3029V25.9029C179.282 25.9029 178.741 25.8923 178.145 25.871L178.131 26.2708ZM179.77 26.3029C181.051 26.3029 181.989 26.2079 182.558 26.0031L182.422 25.6267C181.924 25.8059 181.049 25.9029 179.77 25.9029V26.3029ZM182.562 26.0016C182.859 25.8871 183.1 25.7347 183.267 25.5354C183.437 25.3326 183.522 25.092 183.522 24.8229H183.122C183.122 25.0019 183.068 25.1505 182.961 25.2784C182.851 25.4098 182.675 25.5294 182.418 25.6282L182.562 26.0016ZM183.522 24.8229C183.522 24.6199 183.447 24.4412 183.303 24.2975L183.021 24.5803C183.09 24.6499 183.122 24.7272 183.122 24.8229H183.522ZM183.328 24.328C183.205 24.1421 182.957 24.0071 182.653 23.8986L182.519 24.2753C182.812 24.3801 182.949 24.4797 182.996 24.5499L183.328 24.328ZM182.67 23.9053C182.371 23.7675 181.948 23.6465 181.409 23.5388L181.331 23.931C181.859 24.0366 182.246 24.1503 182.502 24.2685L182.67 23.9053ZM181.417 23.5404C180.879 23.4115 180.172 23.2615 179.296 23.0906L179.22 23.4832C180.093 23.6536 180.794 23.8023 181.323 23.9294L181.417 23.5404ZM179.299 23.0912C178.893 23.0057 178.37 22.8989 177.729 22.7708L177.651 23.163C178.29 23.291 178.812 23.3975 179.217 23.4826L179.299 23.0912ZM177.729 22.7708C177.111 22.6471 176.501 22.42 175.899 22.0878L175.705 22.438C176.341 22.7884 176.989 23.0307 177.651 23.163L177.729 22.7708ZM175.901 22.0893C175.33 21.7626 174.827 21.3123 174.394 20.7349L174.074 20.9749C174.537 21.5922 175.08 22.0806 175.703 22.4366L175.901 22.0893ZM174.394 20.7349C173.98 20.1824 173.762 19.429 173.762 18.4549H173.362C173.362 19.4862 173.592 20.3328 174.074 20.9749L174.394 20.7349ZM173.762 18.4549C173.762 17.6284 173.927 16.927 174.249 16.3435L173.899 16.1503C173.538 16.8041 173.362 17.5748 173.362 18.4549H173.762ZM174.25 16.341C174.577 15.7295 175.024 15.2314 175.594 14.8444L175.37 14.5134C174.745 14.9371 174.254 15.4843 173.898 16.1528L174.25 16.341ZM175.596 14.8436C176.191 14.433 176.892 14.1329 177.703 13.9458L177.613 13.556C176.76 13.7529 176.01 14.0715 175.368 14.5143L175.596 14.8436ZM177.708 13.9446C178.521 13.736 179.411 13.6309 180.378 13.6309V13.2309C179.382 13.2309 178.459 13.3391 177.608 13.5572L177.708 13.9446ZM180.378 13.6309C180.755 13.6309 181.186 13.6519 181.673 13.6942L181.707 13.2957C181.212 13.2526 180.769 13.2309 180.378 13.2309V13.6309ZM181.682 13.6947C182.188 13.7158 182.695 13.758 183.201 13.8214L183.251 13.4245C182.733 13.3598 182.216 13.3166 181.698 13.2951L181.682 13.6947ZM183.201 13.8214C183.71 13.885 184.22 13.9593 184.729 14.0442L184.795 13.6496C184.28 13.5639 183.766 13.4888 183.251 13.4245L183.201 13.8214ZM184.729 14.0442C185.237 14.1288 185.701 14.2238 186.121 14.3289L186.219 13.9409C185.786 13.8327 185.311 13.7357 184.795 13.6496L184.729 14.0442ZM185.97 14.1349V17.7509H186.37V14.1349H185.97ZM186.225 17.5586C185.913 17.4694 185.507 17.3932 185.012 17.3286L184.96 17.7252C185.446 17.7886 185.83 17.8617 186.115 17.9432L186.225 17.5586ZM185.02 17.3299C184.525 17.2438 183.999 17.1686 183.441 17.1042L183.395 17.5016C183.946 17.5652 184.465 17.6393 184.952 17.724L185.02 17.3299ZM183.442 17.1043C182.903 17.0396 182.342 16.9966 181.761 16.975L181.747 17.3748C182.318 17.3959 182.867 17.4382 183.394 17.5015L183.442 17.1043ZM181.769 16.9755C181.211 16.9325 180.704 16.9109 180.25 16.9109V17.3109C180.692 17.3109 181.188 17.332 181.739 17.3743L181.769 16.9755ZM180.25 16.9109C179.118 16.9109 178.288 17.0159 177.796 17.2503L177.968 17.6115C178.372 17.4192 179.12 17.3109 180.25 17.3109V16.9109ZM177.793 17.252C177.318 17.4894 177.042 17.8474 177.042 18.3269H177.442C177.442 18.0384 177.593 17.7991 177.971 17.6098L177.793 17.252ZM177.042 18.3269C177.042 18.5749 177.105 18.7986 177.239 18.9872L177.565 18.7547C177.486 18.6445 177.442 18.5056 177.442 18.3269H177.042ZM177.261 19.0123C177.413 19.1646 177.64 19.3044 177.926 19.4365L178.094 19.0733C177.825 18.9494 177.647 18.8332 177.543 18.7295L177.261 19.0123ZM177.938 19.4416C178.228 19.5531 178.612 19.6623 179.086 19.7699L179.174 19.3799C178.709 19.2742 178.346 19.17 178.082 19.0682L177.938 19.4416ZM179.086 19.7699C179.558 19.8774 180.137 19.9952 180.821 20.1235L180.895 19.7303C180.214 19.6026 179.64 19.4858 179.174 19.3799L179.086 19.7699ZM192.931 23.3829L192.738 23.4349L192.74 23.4417L192.931 23.3829ZM193.699 24.8549L193.543 24.98L193.55 24.9883L193.699 24.8549ZM195.043 25.8149L194.962 25.998L194.965 25.9991L195.043 25.8149ZM198.979 25.8149L198.901 25.6307L198.898 25.6318L198.979 25.8149ZM200.323 24.8549L200.171 24.7254L200.17 24.7261L200.323 24.8549ZM201.091 23.3829L200.9 23.3241L200.898 23.3309L201.091 23.3829ZM201.091 19.7989L200.898 19.8509L200.9 19.8577L201.091 19.7989ZM200.323 18.3589L200.167 18.484L200.174 18.4923L200.323 18.3589ZM198.979 17.3669L198.898 17.55L198.901 17.5511L198.979 17.3669ZM195.043 17.3669L194.965 17.1827L194.962 17.1838L195.043 17.3669ZM193.699 18.3589L193.547 18.2294L193.546 18.2301L193.699 18.3589ZM192.931 19.7989L192.74 19.7401L192.738 19.7469L192.931 19.7989ZM189.411 18.4229L189.599 18.4922L189.599 18.4909L189.411 18.4229ZM191.011 15.8309L191.155 15.9702L191.157 15.9681L191.011 15.8309ZM193.571 14.0709L193.494 13.8863L193.493 13.8869L193.571 14.0709ZM200.451 14.0709L200.373 14.2549L200.374 14.2555L200.451 14.0709ZM203.043 15.8309L202.897 15.9681L202.899 15.9702L203.043 15.8309ZM204.643 18.4229L204.455 18.4909L204.455 18.4922L204.643 18.4229ZM204.643 24.7909L204.831 24.8602L204.831 24.8589L204.643 24.7909ZM203.043 27.3829L203.187 27.5222L203.189 27.5201L203.043 27.3829ZM200.451 29.1109L200.374 28.9263L200.373 28.9269L200.451 29.1109ZM193.571 29.1109L193.493 29.2949L193.494 29.2955L193.571 29.1109ZM191.011 27.3829L190.865 27.5201L190.867 27.5222L191.011 27.3829ZM189.411 24.7909L189.223 24.8589L189.223 24.8602L189.411 24.7909ZM192.507 21.5909C192.507 22.2465 192.583 22.8615 192.738 23.4349L193.124 23.3309C192.98 22.795 192.907 22.2153 192.907 21.5909H192.507ZM192.74 23.4417C192.917 24.0189 193.185 24.5323 193.543 24.9799L193.855 24.73C193.531 24.3241 193.286 23.8562 193.122 23.3241L192.74 23.4417ZM193.55 24.9883C193.933 25.4164 194.405 25.7526 194.962 25.998L195.124 25.6318C194.614 25.4078 194.19 25.1041 193.848 24.7216L193.55 24.9883ZM194.965 25.9991C195.55 26.2466 196.239 26.3669 197.027 26.3669V25.9669C196.279 25.9669 195.645 25.8525 195.121 25.6307L194.965 25.9991ZM197.027 26.3669C197.814 26.3669 198.494 26.2468 199.06 25.998L198.898 25.6318C198.397 25.8524 197.776 25.9669 197.027 25.9669V26.3669ZM199.057 25.9991C199.637 25.7538 200.112 25.4163 200.476 24.9837L200.17 24.7261C199.852 25.1042 199.431 25.4066 198.901 25.6307L199.057 25.9991ZM200.475 24.9844C200.858 24.5347 201.127 24.0174 201.284 23.4349L200.898 23.3309C200.756 23.8578 200.514 24.3218 200.171 24.7254L200.475 24.9844ZM201.282 23.4417C201.459 22.8662 201.547 22.2488 201.547 21.5909H201.147C201.147 22.213 201.064 22.7903 200.9 23.3241L201.282 23.4417ZM201.547 21.5909C201.547 20.933 201.459 20.3157 201.282 19.7401L200.9 19.8577C201.064 20.3915 201.147 20.9688 201.147 21.5909H201.547ZM201.284 19.7469C201.127 19.1638 200.857 18.6555 200.472 18.2256L200.174 18.4923C200.515 18.873 200.756 19.3247 200.898 19.8509L201.284 19.7469ZM200.479 18.234C200.115 17.7788 199.639 17.429 199.057 17.1827L198.901 17.5511C199.428 17.7742 199.848 18.0857 200.167 18.4839L200.479 18.234ZM199.06 17.1838C198.494 16.9351 197.814 16.8149 197.027 16.8149V17.2149C197.776 17.2149 198.397 17.3294 198.898 17.55L199.06 17.1838ZM197.027 16.8149C196.239 16.8149 195.55 16.9352 194.965 17.1827L195.121 17.5511C195.645 17.3293 196.279 17.2149 197.027 17.2149V16.8149ZM194.962 17.1838C194.403 17.4302 193.93 17.7787 193.547 18.2294L193.851 18.4884C194.194 18.0858 194.617 17.773 195.124 17.55L194.962 17.1838ZM193.546 18.2301C193.186 18.6578 192.918 19.1622 192.74 19.7401L193.122 19.8577C193.286 19.3263 193.53 18.8707 193.852 18.4877L193.546 18.2301ZM192.738 19.7469C192.583 20.3203 192.507 20.9353 192.507 21.5909H192.907C192.907 20.9665 192.98 20.3868 193.124 19.8509L192.738 19.7469ZM189.067 21.5909C189.067 20.482 189.245 19.4497 189.599 18.4922L189.223 18.3536C188.852 19.3588 188.667 20.4385 188.667 21.5909H189.067ZM189.599 18.4909C189.953 17.5134 190.471 16.6741 191.155 15.9702L190.867 15.6916C190.143 16.4384 189.595 17.3271 189.223 18.3549L189.599 18.4909ZM191.157 15.9681C191.84 15.2428 192.67 14.6715 193.649 14.2549L193.493 13.8869C192.466 14.3237 191.59 14.9257 190.865 15.6937L191.157 15.9681ZM193.648 14.2555C194.644 13.8405 195.769 13.6309 197.027 13.6309V13.2309C195.725 13.2309 194.546 13.448 193.494 13.8863L193.648 14.2555ZM197.027 13.6309C198.285 13.6309 199.399 13.8405 200.373 14.2549L200.529 13.8869C199.498 13.448 198.329 13.2309 197.027 13.2309V13.6309ZM200.374 14.2555C201.374 14.6723 202.214 15.2435 202.897 15.9681L203.189 15.6937C202.464 14.925 201.576 14.3229 200.528 13.8863L200.374 14.2555ZM202.899 15.9702C203.583 16.6741 204.101 17.5134 204.455 18.4909L204.831 18.3549C204.459 17.3271 203.911 16.4384 203.187 15.6916L202.899 15.9702ZM204.455 18.4922C204.809 19.4497 204.987 20.482 204.987 21.5909H205.387C205.387 20.4385 205.202 19.3588 204.831 18.3536L204.455 18.4922ZM204.987 21.5909C204.987 22.6998 204.809 23.7433 204.455 24.7229L204.831 24.8589C205.202 23.8332 205.387 22.7434 205.387 21.5909H204.987ZM204.455 24.7216C204.102 25.6782 203.583 26.519 202.897 27.2457L203.189 27.5201C203.911 26.7535 204.459 25.8663 204.831 24.8602L204.455 24.7216ZM202.899 27.2436C202.216 27.9477 201.375 28.509 200.374 28.9263L200.528 29.2955C201.575 28.8595 202.462 28.2688 203.187 27.5222L202.899 27.2436ZM200.373 28.9269C199.399 29.3413 198.285 29.5509 197.027 29.5509V29.9509C198.329 29.9509 199.498 29.7338 200.529 29.2949L200.373 28.9269ZM197.027 29.5509C195.769 29.5509 194.644 29.3414 193.648 28.9263L193.494 29.2955C194.546 29.7338 195.725 29.9509 197.027 29.9509V29.5509ZM193.649 28.9269C192.669 28.5098 191.839 27.9484 191.155 27.2436L190.867 27.5222C191.591 28.2681 192.467 28.8587 193.493 29.2949L193.649 28.9269ZM191.157 27.2457C190.471 26.519 189.952 25.6782 189.599 24.7216L189.223 24.8602C189.595 25.8663 190.143 26.7535 190.865 27.5201L191.157 27.2457ZM189.599 24.7229C189.245 23.7433 189.067 22.6998 189.067 21.5909H188.667C188.667 22.7434 188.852 23.8332 189.223 24.8589L189.599 24.7229ZM214.733 19.9269L214.77 19.7304L214.77 19.7303L214.733 19.9269ZM217.005 20.4389L216.954 20.6324L216.96 20.6339L217.005 20.4389ZM218.989 21.2069L218.887 21.379L218.892 21.3817L218.989 21.2069ZM220.365 22.5189L220.195 22.6237L220.197 22.6267L220.365 22.5189ZM220.301 26.9669L220.473 27.0698L220.474 27.0673L220.301 26.9669ZM218.701 28.5669L218.806 28.7374L218.807 28.7365L218.701 28.5669ZM216.365 29.4949L216.407 29.6905L216.411 29.6895L216.365 29.4949ZM212.013 29.7189L212.029 29.5194L212.021 29.5191L212.013 29.7189ZM210.413 29.5909L210.39 29.7896L210.39 29.7896L210.413 29.5909ZM208.781 29.3669L208.813 29.1694L208.781 29.3669ZM207.309 29.0789H207.109V29.2369L207.263 29.2735L207.309 29.0789ZM207.309 25.4629L207.365 25.271L207.109 25.1956V25.4629H207.309ZM208.621 25.7509L208.588 25.9484L208.597 25.9495L208.621 25.7509ZM210.285 25.9429L210.263 26.1418L210.27 26.1424L210.285 25.9429ZM212.013 26.0709L211.998 26.2705L212.006 26.2708L212.013 26.0709ZM216.365 25.8149L216.433 26.0031L216.437 26.0016L216.365 25.8149ZM217.037 24.4389L216.871 24.5499L216.882 24.5663L216.896 24.5803L217.037 24.4389ZM216.461 24.0869L216.377 24.2685L216.385 24.2723L216.394 24.2753L216.461 24.0869ZM215.245 23.7349L215.198 23.9295L215.206 23.931L215.245 23.7349ZM213.133 23.2869L213.092 23.4826L213.095 23.4832L213.133 23.2869ZM211.565 22.9669L211.604 22.7708L211.604 22.7708L211.565 22.9669ZM209.677 22.2629L209.578 22.4366L209.58 22.438L209.677 22.2629ZM208.109 20.8549L207.949 20.9749L207.949 20.9749L208.109 20.8549ZM207.949 16.2469L208.124 16.3435L208.125 16.341L207.949 16.2469ZM209.357 14.6789L209.469 14.8444L209.471 14.8436L209.357 14.6789ZM211.533 13.7509L211.578 13.9458L211.583 13.9446L211.533 13.7509ZM215.565 13.4949L215.548 13.6944L215.557 13.6947L215.565 13.4949ZM217.101 13.6229L217.076 13.8214L217.076 13.8214L217.101 13.6229ZM218.637 13.8469L218.604 14.0442L218.604 14.0442L218.637 13.8469ZM220.045 14.1349H220.245V13.9788L220.094 13.9409L220.045 14.1349ZM220.045 17.7509L219.99 17.9432L220.245 18.0161V17.7509H220.045ZM218.861 17.5269L218.827 17.7241L218.835 17.7252L218.861 17.5269ZM217.293 17.3029L217.269 17.5015L217.27 17.5016L217.293 17.3029ZM215.629 17.1749L215.614 17.3745L215.622 17.3748L215.629 17.1749ZM211.757 17.4309L211.671 17.2503L211.668 17.252L211.757 17.4309ZM211.277 18.8709L211.114 18.9872L211.124 19.0006L211.136 19.0123L211.277 18.8709ZM211.885 19.2549L211.801 19.4369L211.813 19.4416L211.885 19.2549ZM213.005 19.5749L212.961 19.7699L212.961 19.7699L213.005 19.5749ZM214.696 20.1234C215.481 20.2719 216.233 20.4416 216.954 20.6323L217.056 20.2456C216.326 20.0523 215.564 19.8806 214.77 19.7304L214.696 20.1234ZM216.96 20.6339C217.69 20.8006 218.331 21.0496 218.887 21.379L219.091 21.0349C218.495 20.6816 217.814 20.4186 217.05 20.2439L216.96 20.6339ZM218.892 21.3817C219.438 21.6853 219.872 22.0987 220.195 22.6237L220.535 22.4141C220.176 21.8298 219.692 21.3685 219.086 21.0321L218.892 21.3817ZM220.197 22.6267C220.511 23.1178 220.677 23.7804 220.677 24.6309H221.077C221.077 23.7321 220.902 22.9867 220.533 22.4111L220.197 22.6267ZM220.677 24.6309C220.677 25.4977 220.491 26.2405 220.128 26.8665L220.474 27.0673C220.879 26.3706 221.077 25.5561 221.077 24.6309H220.677ZM220.13 26.864C219.763 27.4748 219.253 27.986 218.595 28.3973L218.807 28.7365C219.514 28.2944 220.071 27.739 220.472 27.0698L220.13 26.864ZM218.596 28.3964C217.956 28.7888 217.198 29.091 216.319 29.3004L216.411 29.6895C217.324 29.4721 218.123 29.1556 218.806 28.7374L218.596 28.3964ZM216.323 29.2994C215.443 29.488 214.486 29.5829 213.453 29.5829V29.9829C214.51 29.9829 215.495 29.8858 216.407 29.6905L216.323 29.2994ZM213.453 29.5829C213.033 29.5829 212.558 29.5619 212.029 29.5195L211.997 29.9183C212.534 29.9613 213.02 29.9829 213.453 29.9829V29.5829ZM212.021 29.5191C211.515 29.498 210.986 29.4557 210.436 29.3922L210.39 29.7896C210.949 29.8541 211.487 29.8972 212.005 29.9187L212.021 29.5191ZM210.436 29.3922C209.884 29.3286 209.343 29.2543 208.813 29.1694L208.749 29.5644C209.286 29.6502 209.833 29.7253 210.39 29.7896L210.436 29.3922ZM208.813 29.1694C208.283 29.0848 207.798 28.9897 207.355 28.8844L207.263 29.2735C207.716 29.3815 208.212 29.4784 208.749 29.5644L208.813 29.1694ZM207.509 29.0789V25.4629H207.109V29.0789H207.509ZM207.253 25.6548C207.625 25.7644 208.071 25.862 208.588 25.9482L208.654 25.5536C208.147 25.4692 207.718 25.3748 207.365 25.271L207.253 25.6548ZM208.597 25.9495C209.131 26.0136 209.686 26.0776 210.263 26.1417L210.307 25.7441C209.732 25.6802 209.178 25.6163 208.645 25.5523L208.597 25.9495ZM210.27 26.1424C210.846 26.185 211.422 26.2277 211.998 26.2704L212.028 25.8715C211.452 25.8288 210.876 25.7861 210.3 25.7435L210.27 26.1424ZM212.006 26.2708C212.605 26.2922 213.152 26.3029 213.645 26.3029V25.9029C213.157 25.9029 212.616 25.8923 212.02 25.871L212.006 26.2708ZM213.645 26.3029C214.926 26.3029 215.864 26.2079 216.433 26.0031L216.297 25.6267C215.799 25.8059 214.924 25.9029 213.645 25.9029V26.3029ZM216.437 26.0016C216.734 25.8871 216.975 25.7347 217.142 25.5354C217.312 25.3326 217.397 25.092 217.397 24.8229H216.997C216.997 25.0019 216.943 25.1505 216.836 25.2784C216.726 25.4098 216.55 25.5294 216.293 25.6282L216.437 26.0016ZM217.397 24.8229C217.397 24.6199 217.322 24.4412 217.178 24.2975L216.896 24.5803C216.965 24.6499 216.997 24.7272 216.997 24.8229H217.397ZM217.203 24.328C217.08 24.1421 216.832 24.0071 216.528 23.8986L216.394 24.2753C216.687 24.3801 216.824 24.4797 216.871 24.5499L217.203 24.328ZM216.545 23.9053C216.246 23.7675 215.823 23.6465 215.284 23.5388L215.206 23.931C215.734 24.0366 216.121 24.1503 216.377 24.2685L216.545 23.9053ZM215.292 23.5404C214.754 23.4115 214.047 23.2615 213.171 23.0906L213.095 23.4832C213.968 23.6536 214.669 23.8023 215.198 23.9294L215.292 23.5404ZM213.174 23.0912C212.768 23.0057 212.245 22.8989 211.604 22.7708L211.526 23.163C212.165 23.291 212.687 23.3975 213.092 23.4826L213.174 23.0912ZM211.604 22.7708C210.986 22.6471 210.376 22.42 209.774 22.0878L209.58 22.438C210.216 22.7884 210.864 23.0307 211.526 23.163L211.604 22.7708ZM209.776 22.0893C209.205 21.7626 208.702 21.3123 208.269 20.7349L207.949 20.9749C208.412 21.5922 208.955 22.0806 209.578 22.4366L209.776 22.0893ZM208.269 20.7349C207.855 20.1824 207.637 19.429 207.637 18.4549H207.237C207.237 19.4862 207.467 20.3328 207.949 20.9749L208.269 20.7349ZM207.637 18.4549C207.637 17.6284 207.802 16.927 208.124 16.3435L207.774 16.1503C207.413 16.8041 207.237 17.5748 207.237 18.4549H207.637ZM208.125 16.341C208.452 15.7295 208.899 15.2314 209.469 14.8444L209.245 14.5134C208.62 14.9371 208.129 15.4843 207.773 16.1528L208.125 16.341ZM209.471 14.8436C210.066 14.433 210.767 14.1329 211.578 13.9458L211.488 13.556C210.635 13.7529 209.885 14.0715 209.243 14.5143L209.471 14.8436ZM211.583 13.9446C212.396 13.736 213.286 13.6309 214.253 13.6309V13.2309C213.257 13.2309 212.334 13.3391 211.483 13.5572L211.583 13.9446ZM214.253 13.6309C214.63 13.6309 215.061 13.6519 215.548 13.6942L215.582 13.2957C215.087 13.2526 214.644 13.2309 214.253 13.2309V13.6309ZM215.557 13.6947C216.063 13.7158 216.57 13.758 217.076 13.8214L217.126 13.4245C216.608 13.3598 216.091 13.3166 215.573 13.2951L215.557 13.6947ZM217.076 13.8214C217.585 13.885 218.095 13.9593 218.604 14.0442L218.67 13.6496C218.155 13.5639 217.641 13.4888 217.126 13.4245L217.076 13.8214ZM218.604 14.0442C219.112 14.1288 219.576 14.2238 219.996 14.3289L220.094 13.9409C219.661 13.8327 219.186 13.7357 218.67 13.6496L218.604 14.0442ZM219.845 14.1349V17.7509H220.245V14.1349H219.845ZM220.1 17.5586C219.788 17.4694 219.382 17.3932 218.887 17.3286L218.835 17.7252C219.321 17.7886 219.705 17.8617 219.99 17.9432L220.1 17.5586ZM218.895 17.3299C218.4 17.2438 217.874 17.1686 217.316 17.1042L217.27 17.5016C217.821 17.5652 218.34 17.6393 218.827 17.724L218.895 17.3299ZM217.317 17.1043C216.778 17.0396 216.217 16.9966 215.636 16.975L215.622 17.3748C216.193 17.3959 216.742 17.4382 217.269 17.5015L217.317 17.1043ZM215.644 16.9755C215.086 16.9325 214.579 16.9109 214.125 16.9109V17.3109C214.567 17.3109 215.063 17.332 215.614 17.3743L215.644 16.9755ZM214.125 16.9109C212.993 16.9109 212.163 17.0159 211.671 17.2503L211.843 17.6115C212.247 17.4192 212.995 17.3109 214.125 17.3109V16.9109ZM211.668 17.252C211.193 17.4894 210.917 17.8474 210.917 18.3269H211.317C211.317 18.0384 211.468 17.7991 211.846 17.6098L211.668 17.252ZM210.917 18.3269C210.917 18.5749 210.98 18.7986 211.114 18.9872L211.44 18.7547C211.361 18.6445 211.317 18.5056 211.317 18.3269H210.917ZM211.136 19.0123C211.288 19.1646 211.515 19.3044 211.801 19.4365L211.969 19.0733C211.7 18.9494 211.522 18.8332 211.418 18.7295L211.136 19.0123ZM211.813 19.4416C212.103 19.5531 212.487 19.6623 212.961 19.7699L213.049 19.3799C212.584 19.2742 212.221 19.17 211.957 19.0682L211.813 19.4416ZM212.961 19.7699C213.433 19.8774 214.012 19.9952 214.696 20.1235L214.77 19.7303C214.089 19.6026 213.515 19.4858 213.049 19.3799L212.961 19.7699Z" fill="#354A9D" mask="url(#path-89-outside-1_1_94)"/>
</svg>
