<svg width="260" height="48" viewBox="0 0 260 48" fill="none" xmlns="http://www.w3.org/2000/svg">
<g clip-path="url(#clip0_3_96)">
<path d="M28.9863 1.48197C28.8991 1.74247 28.6377 1.91614 28.3327 1.87273C28.0713 1.7859 27.8971 1.52538 27.9406 1.22147C28.0278 0.960966 28.2892 0.787299 28.5941 0.830715C28.8556 0.917549 29.0298 1.17805 28.9863 1.48197Z" fill="#4A6CF7"/>
<path d="M24.0629 0.830717C23.9756 1.17805 23.6271 1.35172 23.3221 1.26489C22.9736 1.17805 22.7993 0.830716 22.8864 0.526796C22.9736 0.179459 23.3221 0.00578952 23.6271 0.0926239C23.9756 0.179459 24.15 0.526796 24.0629 0.830717Z" fill="#4A6CF7"/>
<path d="M19.3137 1.30832C19.2265 1.69907 18.8344 1.91616 18.4858 1.82933C18.0937 1.74249 17.8758 1.35174 17.9629 1.0044C18.0501 0.613644 18.4422 0.396557 18.7909 0.483392C19.183 0.570226 19.4008 0.960981 19.3137 1.30832Z" fill="#4A6CF7"/>
<path d="M14.8694 2.82793C14.7823 3.2621 14.3466 3.47918 13.9109 3.39235C13.4751 3.30552 13.2573 2.87134 13.3444 2.43717C13.4316 2.00299 13.8674 1.78592 14.303 1.87275C14.6951 2.00299 14.9566 2.43717 14.8694 2.82793Z" fill="#4A6CF7"/>
<path d="M10.861 5.30269C10.7303 5.78028 10.2945 6.04079 9.81528 5.91053C9.336 5.78028 9.07457 5.34611 9.20529 4.86852C9.336 4.39094 9.7717 4.13043 10.251 4.26068C10.6867 4.34751 10.9481 4.8251 10.861 5.30269Z" fill="#4A6CF7"/>
<path d="M7.46241 8.60239C7.33171 9.12339 6.80885 9.42731 6.32958 9.29706C5.80674 9.16681 5.50174 8.6458 5.63246 8.16821C5.76316 7.64721 6.286 7.34329 6.76528 7.47353C7.24456 7.60379 7.59312 8.08138 7.46241 8.60239Z" fill="#4A6CF7"/>
<path d="M4.84818 12.6402C4.71747 13.2047 4.15104 13.5086 3.58463 13.3783C3.01821 13.248 2.71322 12.6836 2.84393 12.1192C2.97463 11.5548 3.54106 11.2509 4.10747 11.3811C4.63032 11.5114 4.97888 12.0758 4.84818 12.6402Z" fill="#4A6CF7"/>
<path d="M3.14896 17.3293C3.01825 17.9371 2.40827 18.2844 1.79827 18.1542C1.18828 18.0239 0.839721 17.416 0.970431 16.8082C1.10114 16.2003 1.71114 15.8531 2.32112 15.9833C2.93111 16.1136 3.27968 16.7214 3.14896 17.3293Z" fill="#4A6CF7"/>
<path d="M2.53896 22.3222C2.36468 22.9735 1.71112 23.3643 1.05756 23.1906C0.404002 23.0169 0.0118673 22.3657 0.18615 21.7144C0.360432 21.0631 1.01399 20.6724 1.66755 20.8461C2.32111 21.0197 2.71324 21.671 2.53896 22.3222Z" fill="#4A6CF7"/>
<path d="M3.10541 27.1416C2.93113 27.8363 2.23399 28.2269 1.53686 28.0533C0.839735 27.8797 0.447601 27.185 0.621883 26.4903C0.796165 25.7956 1.49329 25.4049 2.19042 25.5785C2.84398 25.7956 3.27969 26.4903 3.10541 27.1416Z" fill="#4A6CF7"/>
<path d="M4.67394 31.7004C4.49966 32.4384 3.75896 32.8726 3.01826 32.6989C2.27756 32.5253 1.84185 31.7871 2.01613 31.0491C2.19041 30.311 2.93112 29.8768 3.67182 30.0505C4.41251 30.2242 4.89179 30.9622 4.67394 31.7004Z" fill="#4A6CF7"/>
<path d="M7.20101 35.825C6.98316 36.6064 6.19888 37.0841 5.41461 36.8669C4.63034 36.6499 4.15107 35.8684 4.36892 35.0868C4.58677 34.3054 5.37104 33.8278 6.15531 34.0449C6.93958 34.2185 7.41886 35.0435 7.20101 35.825Z" fill="#4A6CF7"/>
<path d="M10.5995 39.2983C10.3817 40.1233 9.55382 40.6009 8.72598 40.4272C7.89814 40.2101 7.41886 39.3852 7.59314 38.5603C7.811 37.7354 8.63883 37.2577 9.46667 37.4314C10.2945 37.6485 10.7738 38.4734 10.5995 39.2983Z" fill="#4A6CF7"/>
<path d="M14.6952 41.9902C14.4773 42.8586 13.6058 43.3796 12.7345 43.1624C11.863 42.9454 11.3402 42.077 11.5581 41.2087C11.7759 40.3404 12.6474 39.8194 13.5187 40.0364C14.3902 40.2535 14.913 41.1218 14.6952 41.9902Z" fill="#4A6CF7"/>
<path d="M19.488 43.8137C19.2701 44.7255 18.3115 45.2899 17.3966 45.0294C16.4816 44.8123 15.9152 43.8571 16.1766 42.9454C16.3944 42.0336 17.353 41.4692 18.2679 41.7297C19.1394 41.9467 19.7058 42.9019 19.488 43.8137Z" fill="#4A6CF7"/>
<path d="M24.5421 44.465C24.2807 45.4202 23.3221 45.9846 22.3635 45.7675C21.405 45.507 20.8387 44.5518 21.0565 43.5966C21.3179 42.6414 22.2764 42.077 23.235 42.2941C24.1936 42.5546 24.8035 43.5098 24.5421 44.465Z" fill="#4A6CF7"/>
<path d="M29.4656 44.0307C29.2042 45.0294 28.202 45.6372 27.1999 45.3767C26.1978 45.1162 25.5878 44.1176 25.8493 43.1191C26.1107 42.1205 27.1127 41.5126 28.1149 41.7731C29.1171 42.0336 29.727 43.0322 29.4656 44.0307Z" fill="#4A6CF7"/>
<path d="M34.084 42.5546C33.8226 43.5966 32.7333 44.2479 31.6877 43.9874C30.642 43.7269 29.9884 42.6414 30.2498 41.5995C30.5112 40.5574 31.6006 39.9061 32.6462 40.1666C33.7355 40.4272 34.3454 41.5126 34.084 42.5546Z" fill="#4A6CF7"/>
<path d="M38.2669 40.1666C38.0054 41.2521 36.8726 41.9034 35.7834 41.6428C34.6941 41.3823 34.0406 40.2535 34.302 39.1681C34.5634 38.0826 35.6963 37.4315 36.7854 37.6919C37.8747 37.9524 38.5283 39.0378 38.2669 40.1666Z" fill="#4A6CF7"/>
<path d="M41.796 36.9104C41.4911 38.0392 40.3582 38.7339 39.2253 38.43C38.0926 38.126 37.3954 36.9972 37.7005 35.8684C38.0054 34.7395 39.1382 34.0449 40.2711 34.3488C41.4039 34.6093 42.101 35.7381 41.796 36.9104Z" fill="#4A6CF7"/>
<path d="M44.5846 32.8726C44.2796 34.0449 43.0596 34.7829 41.8832 34.479C40.7067 34.1751 39.9661 32.9595 40.2711 31.7871C40.576 30.6149 41.796 29.8768 42.9725 30.1807C44.1925 30.4847 44.8896 31.7004 44.5846 32.8726Z" fill="#4A6CF7"/>
<path d="M46.4581 28.2269C46.1532 29.4426 44.8896 30.1808 43.6696 29.8769C42.4496 29.5729 41.7089 28.3138 42.0139 27.0981C42.3189 25.8824 43.5824 25.1444 44.8024 25.4483C46.0223 25.7522 46.7631 27.0113 46.4581 28.2269Z" fill="#4A6CF7"/>
<path d="M26.0236 5.12902C25.98 5.34611 25.7621 5.47637 25.5443 5.38953C25.3264 5.34611 25.1957 5.12902 25.2828 4.91193C25.3264 4.69486 25.5443 4.5646 25.7621 4.65144C25.9364 4.69486 26.0671 4.91193 26.0236 5.12902Z" fill="#4A6CF7"/>
<path d="M22.4943 4.65141C22.4508 4.8685 22.1894 5.04217 21.9714 4.95533C21.7536 4.91192 21.5793 4.65141 21.6664 4.43432C21.71 4.21725 21.9714 4.04357 22.1894 4.13041C22.4072 4.17382 22.5379 4.43432 22.4943 4.65141Z" fill="#4A6CF7"/>
<path d="M19.0523 4.99877C18.965 5.25928 18.7036 5.43294 18.4422 5.34611C18.1808 5.25928 18.0065 4.99878 18.0937 4.73827C18.1808 4.47777 18.4422 4.3041 18.7036 4.39094C18.965 4.47777 19.1394 4.73827 19.0523 4.99877Z" fill="#4A6CF7"/>
<path d="M15.828 6.12761C15.7409 6.43154 15.4359 6.6052 15.1308 6.51837C14.8258 6.43154 14.6516 6.12761 14.7387 5.82369C14.8258 5.51977 15.1308 5.3461 15.4359 5.43294C15.7409 5.51977 15.9151 5.82369 15.828 6.12761Z" fill="#4A6CF7"/>
<path d="M12.9523 7.86431C12.8652 8.21166 12.5167 8.38532 12.2116 8.29849C11.863 8.21166 11.6888 7.86431 11.7759 7.5604C11.863 7.21306 12.2116 7.03939 12.5167 7.12622C12.8216 7.21306 12.9959 7.56039 12.9523 7.86431Z" fill="#4A6CF7"/>
<path d="M10.4688 10.2522C10.3817 10.5996 9.98956 10.8601 9.641 10.7298C9.29244 10.643 9.03101 10.2522 9.16172 9.90491C9.24886 9.55757 9.641 9.29706 9.98956 9.42732C10.3381 9.51415 10.556 9.90491 10.4688 10.2522Z" fill="#4A6CF7"/>
<path d="M8.59527 13.2046C8.50813 13.5954 8.07242 13.8558 7.68029 13.7257C7.28816 13.6388 7.02673 13.2046 7.15745 12.8139C7.24458 12.4231 7.68029 12.1626 8.07242 12.2928C8.42099 12.3797 8.68242 12.7705 8.59527 13.2046Z" fill="#4A6CF7"/>
<path d="M7.37531 16.5912C7.2446 17.0254 6.8089 17.2859 6.37319 17.1556C5.93749 17.0254 5.67606 16.5912 5.80677 16.157C5.93749 15.7228 6.37319 15.4623 6.8089 15.5925C7.20103 15.7228 7.46246 16.157 7.37531 16.5912Z" fill="#4A6CF7"/>
<path d="M6.93958 20.1948C6.80887 20.6724 6.32959 20.9329 5.89389 20.8026C5.41461 20.6724 5.15319 20.1948 5.2839 19.7607C5.41461 19.283 5.89389 19.0225 6.32959 19.1528C6.7653 19.2396 7.0703 19.7172 6.93958 20.1948Z" fill="#4A6CF7"/>
<path d="M7.33174 23.6681C7.20102 24.1458 6.67818 24.4497 6.1989 24.3194C5.71963 24.1892 5.41464 23.6681 5.54534 23.1906C5.67605 22.713 6.1989 22.4091 6.67818 22.5393C7.15746 22.6696 7.46245 23.1906 7.33174 23.6681Z" fill="#4A6CF7"/>
<path d="M8.46457 26.9678C8.33385 27.4889 7.81101 27.8363 7.24459 27.706C6.72173 27.5757 6.37317 27.0547 6.50388 26.4903C6.6346 25.9693 7.15744 25.6219 7.72386 25.7522C8.29028 25.8824 8.59527 26.4468 8.46457 26.9678Z" fill="#4A6CF7"/>
<path d="M10.2945 29.9203C10.1638 30.4847 9.59736 30.832 9.03095 30.7017C8.46454 30.5715 8.11597 30.007 8.24667 29.4426C8.37739 28.8782 8.94381 28.5308 9.51023 28.6611C10.1202 28.7915 10.4252 29.3559 10.2945 29.9203Z" fill="#4A6CF7"/>
<path d="M12.7345 32.4384C12.6038 33.0462 11.9937 33.3936 11.3838 33.2634C10.7738 33.1331 10.4252 32.5253 10.5559 31.9174C10.6867 31.3096 11.2967 30.9622 11.9066 31.0925C12.5166 31.2661 12.9088 31.874 12.7345 32.4384Z" fill="#4A6CF7"/>
<path d="M15.6973 34.3922C15.5231 35.0001 14.913 35.3908 14.2595 35.2606C13.6495 35.0868 13.2573 34.479 13.388 33.8277C13.5624 33.2199 14.1724 32.8292 14.8259 32.9594C15.4795 33.1331 15.8716 33.7844 15.6973 34.3922Z" fill="#4A6CF7"/>
<path d="M19.183 35.6947C19.0087 36.346 18.3551 36.7368 17.7016 36.6065C17.0479 36.4328 16.6558 35.7816 16.7865 35.1303C16.9608 34.479 17.6144 34.0883 18.2679 34.2185C18.9214 34.3488 19.3137 35.0435 19.183 35.6947Z" fill="#4A6CF7"/>
<path d="M22.8429 36.2158C22.6686 36.9104 21.9714 37.3446 21.2743 37.171C20.5773 36.9972 20.1415 36.3025 20.3157 35.6079C20.49 34.9132 21.1872 34.4791 21.8843 34.6527C22.5815 34.8263 23.0172 35.5211 22.8429 36.2158Z" fill="#4A6CF7"/>
<path d="M26.3721 35.8684C26.1978 36.6064 25.457 37.0407 24.7164 36.8669C23.9756 36.6933 23.5399 35.9552 23.7142 35.2171C23.8885 34.479 24.6293 34.0449 25.3699 34.2185C26.1107 34.4357 26.5463 35.1737 26.3721 35.8684Z" fill="#4A6CF7"/>
<path d="M29.727 34.8264C29.5527 35.5645 28.7684 36.042 27.9842 35.8684C27.2434 35.6947 26.7642 34.9132 26.9385 34.1318C27.1127 33.3936 27.8971 32.9161 28.6813 33.0897C29.4656 33.3067 29.9013 34.0449 29.727 34.8264Z" fill="#4A6CF7"/>
<path d="M32.7334 33.0462C32.5155 33.8278 31.7312 34.3054 30.947 34.1317C30.1627 33.9146 29.6834 33.1331 29.8577 32.3517C30.0756 31.5701 30.8598 31.0925 31.6441 31.2661C32.4719 31.4832 32.9513 32.2648 32.7334 33.0462Z" fill="#4A6CF7"/>
<path d="M35.304 30.7017C35.0862 31.5266 34.2583 32.0043 33.4305 31.8305C32.6026 31.6135 32.1234 30.7886 32.2976 29.9636C32.5155 29.1387 33.3434 28.6611 34.1712 28.8348C34.9991 29.0519 35.5219 29.8768 35.304 30.7017Z" fill="#4A6CF7"/>
<path d="M37.3083 27.8363C37.0904 28.7046 36.2191 29.2256 35.3476 29.0085C34.4762 28.7913 33.9533 27.923 34.1713 27.0547C34.3891 26.1863 35.2605 25.6654 36.1319 25.8824C37.0033 26.0995 37.5262 26.9678 37.3083 27.8363Z" fill="#4A6CF7"/>
<path d="M38.659 24.4497C38.4411 25.318 37.5262 25.8824 36.6547 25.6654C35.7834 25.4483 35.2169 24.5366 35.4347 23.6681C35.6527 22.7998 36.5676 22.2354 37.4391 22.4525C38.354 22.6696 38.8768 23.5814 38.659 24.4497Z" fill="#4A6CF7"/>
<path d="M41.4039 46.7227C41.4039 46.4188 41.6653 46.2016 41.9703 46.2016C42.2753 46.2016 42.4931 46.4621 42.4931 46.766C42.4931 47.07 42.2317 47.2871 41.9267 47.2871C41.6218 47.2437 41.4039 46.9832 41.4039 46.7227Z" fill="#4A6CF7"/>
<path d="M46.3274 46.2885C46.3274 45.9412 46.6324 45.6807 46.9809 45.6807C47.3295 45.6807 47.5909 45.9846 47.5909 46.3319C47.5909 46.6793 47.2859 46.9398 46.9374 46.9398C46.5888 46.9398 46.3274 46.6359 46.3274 46.2885Z" fill="#4A6CF7"/>
<path d="M50.8587 44.8123C50.8587 44.4215 51.2074 44.1176 51.5995 44.1611C51.9916 44.1611 52.2966 44.5084 52.253 44.8992C52.253 45.2899 51.9044 45.5938 51.5123 45.5504C51.1638 45.5504 50.8587 45.2031 50.8587 44.8123Z" fill="#4A6CF7"/>
<path d="M54.9108 42.4244C54.9108 41.9902 55.3029 41.6428 55.7386 41.6862C56.1743 41.7297 56.5229 42.077 56.4794 42.5112C56.4794 42.9454 56.0872 43.2927 55.6515 43.2493C55.2594 43.2058 54.9108 42.8585 54.9108 42.4244Z" fill="#4A6CF7"/>
<path d="M58.3093 39.1681C58.3093 38.6905 58.745 38.2998 59.2242 38.3431C59.7036 38.3431 60.0957 38.7773 60.0521 39.2549C60.0521 39.7325 59.6165 40.1233 59.1371 40.0799C58.6579 40.0364 58.3093 39.6457 58.3093 39.1681Z" fill="#4A6CF7"/>
<path d="M60.9235 35.2171C60.9235 34.6962 61.4027 34.3054 61.9257 34.3054C62.4485 34.3054 62.8406 34.7396 62.8406 35.304C62.8406 35.825 62.4049 36.2158 61.8385 36.2158C61.3156 36.1723 60.9235 35.7381 60.9235 35.2171Z" fill="#4A6CF7"/>
<path d="M62.6227 30.7017C62.6227 30.1373 63.102 29.7031 63.712 29.7031C64.2784 29.7031 64.7141 30.1808 64.7141 30.7886C64.7141 31.353 64.2349 31.7871 63.6249 31.7871C63.0584 31.7871 62.6227 31.3096 62.6227 30.7017Z" fill="#4A6CF7"/>
<path d="M63.3199 25.7522C63.3199 25.1444 63.8428 24.6667 64.4964 24.6667C65.1063 24.6667 65.5856 25.1877 65.5856 25.839C65.5856 26.4468 65.0628 26.9245 64.4093 26.9245C63.7556 26.881 63.2764 26.4034 63.3199 25.7522Z" fill="#4A6CF7"/>
<path d="M62.797 20.8026C62.8407 20.1513 63.3635 19.6304 64.0606 19.6304C64.7142 19.6738 65.237 20.1948 65.237 20.8895C65.1935 21.5408 64.6707 22.0617 63.9735 22.0617C63.32 22.0183 62.797 21.4539 62.797 20.8026Z" fill="#4A6CF7"/>
<path d="M61.2722 16.157C61.3157 15.4623 61.8821 14.8979 62.6228 14.8979C63.32 14.9414 63.8863 15.5058 63.8863 16.2438C63.8428 16.9385 63.2764 17.5029 62.5356 17.5029C61.795 17.4595 61.2285 16.8516 61.2722 16.157Z" fill="#4A6CF7"/>
<path d="M58.745 12.0323C58.7886 11.2943 59.3985 10.6864 60.1828 10.7298C60.9235 10.7732 61.5336 11.3811 61.49 12.1626C61.4464 12.9006 60.8364 13.5085 60.0521 13.4652C59.3114 13.4217 58.7014 12.8139 58.745 12.0323Z" fill="#4A6CF7"/>
<path d="M55.3901 8.55898C55.4336 7.77747 56.0872 7.12621 56.9151 7.16962C57.7428 7.21305 58.3529 7.8643 58.3093 8.68923C58.2658 9.47073 57.6121 10.122 56.7844 10.0786C56 10.0352 55.3901 9.3839 55.3901 8.55898Z" fill="#4A6CF7"/>
<path d="M51.3816 5.86711C51.4252 4.99877 52.1223 4.34751 52.9938 4.39094C53.8651 4.43435 54.5187 5.12902 54.475 5.99737C54.4315 6.86571 53.7344 7.51697 52.863 7.47355C51.9916 7.43013 51.3381 6.73545 51.3816 5.86711Z" fill="#4A6CF7"/>
<path d="M46.7631 4.08701C46.8067 3.17525 47.5475 2.48057 48.4624 2.52399C49.3774 2.5674 50.0745 3.3055 50.0309 4.21726C49.9874 5.12902 49.2467 5.8237 48.3317 5.78028C47.4602 5.73687 46.7196 4.99877 46.7631 4.08701Z" fill="#4A6CF7"/>
<path d="M41.7089 3.34891C41.7525 2.39373 42.5367 1.65563 43.4953 1.69906C44.4538 1.74247 45.1946 2.52398 45.151 3.47915C45.1074 4.43434 44.3231 5.17243 43.3646 5.12901C42.406 5.0856 41.6654 4.30409 41.7089 3.34891Z" fill="#4A6CF7"/>
<path d="M36.6111 3.73969C36.6547 2.74109 37.4826 1.95958 38.4847 2.00301C39.4868 2.04642 40.2711 2.87135 40.2275 3.86994C40.1839 4.86854 39.3561 5.65005 38.354 5.60662C37.3519 5.56321 36.6111 4.73828 36.6111 3.73969Z" fill="#4A6CF7"/>
<path d="M31.9055 5.21587C31.9491 4.17384 32.8206 3.39233 33.8662 3.39233C34.9119 3.43576 35.6962 4.3041 35.6962 5.34611C35.6527 6.38812 34.7812 7.16963 33.7355 7.16963C32.6898 7.12622 31.8619 6.25788 31.9055 5.21587Z" fill="#4A6CF7"/>
<path d="M27.7228 7.6472C27.7664 6.56178 28.6813 5.73685 29.7706 5.73685C30.8598 5.78027 31.6877 6.69202 31.6877 7.77746C31.6441 8.86289 30.7291 9.68782 29.6399 9.68782C28.507 9.60098 27.6792 8.73263 27.7228 7.6472Z" fill="#4A6CF7"/>
<path d="M24.15 10.8601C24.1936 9.73125 25.1521 8.8629 26.2849 8.90631C27.4177 8.94974 28.2892 9.90491 28.2456 11.0338C28.202 12.1626 27.2434 13.031 26.1107 12.9875C24.9778 12.9441 24.1064 11.9889 24.15 10.8601Z" fill="#4A6CF7"/>
<path d="M21.3614 14.8111C21.405 13.6388 22.4072 12.727 23.5835 12.7705C24.76 12.8139 25.675 13.8124 25.6314 14.9847C25.5879 16.157 24.5857 17.0688 23.4092 17.0254C22.2329 16.9819 21.3179 15.9833 21.3614 14.8111Z" fill="#4A6CF7"/>
<path d="M19.4879 19.3264C19.5315 18.1108 20.5771 17.1556 21.7971 17.199C23.0171 17.2424 23.9756 18.2844 23.9321 19.5001C23.8885 20.7158 22.8429 21.671 21.6229 21.6275C20.4029 21.5408 19.4444 20.5421 19.4879 19.3264Z" fill="#4A6CF7"/>
<path d="M18.66 24.2326C18.7036 22.9735 19.7493 21.9749 21.0565 22.0183C22.3201 22.0617 23.3221 23.1037 23.2785 24.4062C23.235 25.6654 22.1892 26.6639 20.8822 26.6206C19.6186 26.5771 18.6165 25.5351 18.66 24.2326Z" fill="#4A6CF7"/>
<path d="M43.5389 42.5113C43.5389 42.2941 43.7132 42.1205 43.931 42.1639C44.1488 42.1639 44.3232 42.3375 44.2797 42.5547C44.2797 42.7717 44.1053 42.9454 43.8874 42.9019C43.6696 42.9019 43.4953 42.7283 43.5389 42.5113Z" fill="#4A6CF7"/>
<path d="M47.0681 42.2506C47.0681 41.9901 47.2859 41.8165 47.5473 41.8165C47.8087 41.8165 47.9831 42.0336 47.9831 42.2941C47.9831 42.5546 47.7652 42.7283 47.5473 42.7283C47.2424 42.6849 47.0681 42.4678 47.0681 42.2506Z" fill="#4A6CF7"/>
<path d="M50.3795 41.1653C50.3795 40.9048 50.6409 40.6877 50.9023 40.6877C51.1638 40.6877 51.3816 40.9482 51.3816 41.2087C51.3816 41.4692 51.1202 41.6863 50.8587 41.6863C50.5537 41.6863 50.3359 41.4692 50.3795 41.1653Z" fill="#4A6CF7"/>
<path d="M53.2987 39.4286C53.2987 39.1247 53.5601 38.8642 53.8651 38.8642C54.1701 38.8642 54.4315 39.1247 54.4315 39.4286C54.4315 39.7325 54.1701 39.993 53.8651 39.993C53.5166 39.993 53.2552 39.7325 53.2987 39.4286Z" fill="#4A6CF7"/>
<path d="M55.7386 37.0841C55.7386 36.7367 56.0436 36.4763 56.3922 36.4763C56.7408 36.4763 57.0022 36.7802 57.0022 37.1275C57.0022 37.4749 56.6972 37.7354 56.3487 37.7354C56 37.6919 55.7386 37.4315 55.7386 37.0841Z" fill="#4A6CF7"/>
<path d="M57.6121 34.2185C57.6121 33.8278 57.9607 33.5239 58.3093 33.5673C58.7014 33.5673 59.0064 33.9146 58.9628 34.2619C58.9628 34.6527 58.6143 34.9566 58.2658 34.9132C57.9171 34.9132 57.6121 34.6093 57.6121 34.2185Z" fill="#4A6CF7"/>
<path d="M58.8757 30.9622C58.8757 30.5714 59.2243 30.2242 59.6601 30.2242C60.0522 30.2242 60.4007 30.5714 60.4007 31.0056C60.4007 31.3964 60.0522 31.7437 59.6165 31.7437C59.1807 31.7437 58.8322 31.3964 58.8757 30.9622Z" fill="#4A6CF7"/>
<path d="M59.355 27.402C59.355 26.9678 59.7472 26.6206 60.1829 26.6206C60.6185 26.6206 60.9671 27.0112 60.9671 27.4455C60.9671 27.8796 60.575 28.2269 60.1393 28.2269C59.6601 28.2269 59.3114 27.8363 59.355 27.402Z" fill="#4A6CF7"/>
<path d="M59.0064 23.7984C59.0064 23.3208 59.4421 22.9301 59.9215 22.9735C60.4007 22.9735 60.7928 23.4076 60.7492 23.8853C60.7492 24.3628 60.3136 24.7536 59.8343 24.7102C59.355 24.6667 58.9629 24.2759 59.0064 23.7984Z" fill="#4A6CF7"/>
<path d="M57.8735 20.4553C57.8735 19.9343 58.3093 19.5435 58.8321 19.5435C59.355 19.5435 59.7472 19.9777 59.7472 20.4987C59.7472 21.0197 59.3114 21.4105 58.7886 21.4105C58.2222 21.4105 57.83 20.9762 57.8735 20.4553Z" fill="#4A6CF7"/>
<path d="M56.0436 17.5029C56.0436 16.9385 56.5229 16.5477 57.0893 16.5477C57.6557 16.5477 58.0479 17.0254 58.0479 17.5898C58.0479 18.1542 57.5686 18.545 57.0022 18.545C56.4358 18.5015 56.0436 18.0239 56.0436 17.5029Z" fill="#4A6CF7"/>
<path d="M53.6473 14.9847C53.6473 14.4203 54.1701 13.9427 54.7366 13.9861C55.3029 13.9861 55.7822 14.5071 55.7386 15.0715C55.7386 15.6359 55.2158 16.1136 54.6494 16.0702C54.0829 16.0267 53.6037 15.5491 53.6473 14.9847Z" fill="#4A6CF7"/>
<path d="M50.728 13.0309C50.728 12.4231 51.2509 11.9456 51.8609 11.9456C52.4708 11.9456 52.9502 12.4665 52.9502 13.0744C52.9502 13.6822 52.4272 14.1598 51.8173 14.1598C51.1638 14.1598 50.6844 13.6388 50.728 13.0309Z" fill="#4A6CF7"/>
<path d="M47.373 11.7284C47.4166 11.0772 47.9395 10.5562 48.5931 10.5996C49.2467 10.643 49.7695 11.164 49.7259 11.8153C49.7259 12.4665 49.1594 12.9875 48.5059 12.9441C47.896 12.9006 47.373 12.3797 47.373 11.7284Z" fill="#4A6CF7"/>
<path d="M43.7567 11.2074C43.8003 10.5128 44.3667 9.99174 45.0203 10.0352C45.7174 10.0786 46.2403 10.643 46.1967 11.2942C46.1532 11.9889 45.5867 12.51 44.9332 12.4665C44.236 12.4231 43.7131 11.8587 43.7567 11.2074Z" fill="#4A6CF7"/>
<path d="M40.0532 11.4679C40.0968 10.7733 40.6632 10.2088 41.4039 10.2088C42.101 10.2522 42.6675 10.8167 42.6675 11.5548C42.6239 12.2495 42.0574 12.8139 41.3168 12.8139C40.6196 12.7705 40.0532 12.206 40.0532 11.4679Z" fill="#4A6CF7"/>
<path d="M36.6547 12.5534C36.6983 11.8153 37.3082 11.2074 38.049 11.2508C38.7897 11.2943 39.3997 11.9021 39.3561 12.6402C39.3126 13.3783 38.7025 13.9862 37.9619 13.9427C37.2211 13.8993 36.6112 13.2914 36.6547 12.5534Z" fill="#4A6CF7"/>
<path d="M33.6048 14.2901C33.6483 13.5085 34.3018 12.9007 35.0862 12.9441C35.8704 12.9875 36.4805 13.6388 36.4369 14.4203C36.3933 15.2018 35.7397 15.8097 34.9555 15.7663C34.2147 15.7228 33.6048 15.0715 33.6048 14.2901Z" fill="#4A6CF7"/>
<path d="M31.0342 16.6346C31.0777 15.8097 31.7312 15.2018 32.5591 15.2018C33.3869 15.2452 33.9969 15.8964 33.9969 16.7215C33.9533 17.5463 33.2998 18.1542 32.472 18.1542C31.6441 18.1108 30.9906 17.4595 31.0342 16.6346Z" fill="#4A6CF7"/>
<path d="M29.0298 19.4567C29.0734 18.5883 29.7706 17.9371 30.6419 17.9804C31.5134 18.0239 32.1669 18.7186 32.1234 19.5869C32.0798 20.4552 31.3827 21.1065 30.5112 21.0631C29.6399 21.0197 28.9863 20.3251 29.0298 19.4567Z" fill="#4A6CF7"/>
<path d="M27.6792 22.713C27.7228 21.8447 28.4635 21.15 29.3349 21.15C30.2063 21.1934 30.9035 21.9314 30.9035 22.7998C30.8599 23.6681 30.1191 24.3628 29.2478 24.3628C28.3328 24.3628 27.6357 23.6248 27.6792 22.713Z" fill="#4A6CF7"/>
<path d="M27.0693 26.3166C27.1128 25.4049 27.8535 24.6667 28.7685 24.7102C29.6835 24.7536 30.4242 25.4916 30.3805 26.4034C30.337 27.3152 29.5963 28.0533 28.6813 28.0099C27.7664 27.9664 27.0256 27.2284 27.0693 26.3166Z" fill="#4A6CF7"/>
<path d="M91.4076 30.6344C93.1315 30.6344 94.4058 30.1349 95.2303 29.1359C96.0548 28.1369 96.467 26.8506 96.467 25.2772V11.7154H100.964V25.2772C100.964 26.6009 100.752 27.8496 100.327 29.0235C99.9024 30.1723 99.2779 31.1839 98.4534 32.058C97.6538 32.9072 96.6544 33.5815 95.4552 34.0811C94.2808 34.5806 92.9316 34.8303 91.4076 34.8303C89.8835 34.8303 88.5218 34.5806 87.3225 34.0811C86.1482 33.5815 85.1488 32.9072 84.3243 32.058C83.5248 31.1839 82.9127 30.1723 82.4879 29.0235C82.0632 27.8496 81.8508 26.6009 81.8508 25.2772V11.7154H86.3481V25.2772C86.3481 26.8506 86.7604 28.1369 87.5849 29.1359C88.4094 30.1349 89.6836 30.6344 91.4076 30.6344ZM114.567 19.9199C112.968 19.9199 111.781 20.4194 111.007 21.4184C110.257 22.4174 109.882 23.7037 109.882 25.2772V34.643H105.385V25.2772C105.385 23.9534 105.585 22.7171 105.985 21.5683C106.409 20.3944 107.009 19.3829 107.783 18.5338C108.583 17.6596 109.545 16.9728 110.669 16.4733C111.819 15.9737 113.118 15.724 114.567 15.724C116.016 15.724 117.303 15.9737 118.428 16.4733C119.577 16.9728 120.538 17.6596 121.313 18.5338C122.112 19.3829 122.712 20.3944 123.112 21.5683C123.536 22.7171 123.749 23.9534 123.749 25.2772V34.643H119.252V25.2772C119.252 23.7037 118.865 22.4174 118.09 21.4184C117.341 20.4194 116.166 19.9199 114.567 19.9199ZM132.428 34.643H127.931V15.9113H132.428V34.643ZM127.293 10.8912C127.293 10.092 127.543 9.41766 128.043 8.8682C128.568 8.31874 129.28 8.04401 130.179 8.04401C131.079 8.04401 131.778 8.33122 132.278 8.90567C132.777 9.45512 133.027 10.117 133.027 10.8912C133.027 11.6904 132.777 12.3772 132.278 12.9517C131.778 13.5011 131.079 13.7759 130.179 13.7759C129.28 13.7759 128.568 13.5011 128.043 12.9517C127.543 12.3772 127.293 11.6904 127.293 10.8912ZM141.431 34.643H136.933V8.41864H141.431V34.643ZM149.91 23.1792C149.91 24.2282 150.022 25.2022 150.247 26.1014C150.497 27.0005 150.896 27.7872 151.447 28.4616C152.02 29.111 152.77 29.6229 153.695 29.9976C154.644 30.3722 155.806 30.5595 157.181 30.5595C158.354 30.5595 159.516 30.4721 160.666 30.2973C161.815 30.0974 162.752 29.8228 163.476 29.4731V34.0811C162.552 34.3558 161.528 34.5556 160.404 34.6805C159.279 34.8303 158.129 34.9053 156.956 34.9053C155.106 34.9053 153.457 34.6056 152.009 34.0061C150.585 33.3818 149.385 32.5451 148.411 31.4961C147.436 30.4471 146.687 29.2108 146.161 27.7872C145.662 26.3636 145.413 24.8401 145.413 23.2167C145.413 21.5932 145.662 20.0698 146.161 18.6461C146.687 17.2225 147.436 15.9862 148.411 14.9373C149.385 13.8883 150.585 13.0641 152.009 12.4647C153.457 11.8403 155.106 11.5281 156.956 11.5281C158.129 11.5281 159.279 11.603 160.404 11.7529C161.528 11.8778 162.552 12.0775 163.476 12.3523V16.9603C162.752 16.6106 161.815 16.3483 160.666 16.1736C159.516 15.9737 158.354 15.8738 157.181 15.8738C155.806 15.8738 154.644 16.0612 153.695 16.4358C152.77 16.8104 152.02 17.3349 151.447 18.0093C150.896 18.6587 150.497 19.4329 150.247 20.332C150.022 21.2062 149.91 22.1552 149.91 23.1792ZM176.12 30.6344C177.718 30.6344 178.893 30.1349 179.642 29.1359C180.417 28.1369 180.804 26.8506 180.804 25.2772V15.9113H185.302V25.2772C185.302 26.6009 185.09 27.8496 184.664 29.0235C184.265 30.1723 183.665 31.1839 182.866 32.058C182.091 32.9072 181.129 33.5815 179.98 34.0811C178.855 34.5806 177.568 34.8303 176.12 34.8303C174.671 34.8303 173.371 34.5806 172.222 34.0811C171.098 33.5815 170.136 32.9072 169.336 32.058C168.562 31.1839 167.962 30.1723 167.537 29.0235C167.138 27.8496 166.938 26.6009 166.938 25.2772V15.9113H171.435V25.2772C171.435 26.8506 171.81 28.1369 172.559 29.1359C173.333 30.1349 174.521 30.6344 176.12 30.6344ZM194.28 34.643H189.782V25.3146C189.782 23.9909 189.994 22.7422 190.42 21.5683C190.845 20.3944 191.469 19.3829 192.293 18.5338C193.118 17.6596 194.13 16.9728 195.329 16.4733C196.528 15.9737 197.902 15.724 199.452 15.724C199.727 15.724 200.001 15.7489 200.276 15.7989C200.551 15.8239 200.825 15.8613 201.101 15.9113V20.2571C200.851 20.2071 200.613 20.1696 200.389 20.1447C200.164 20.0947 199.926 20.0698 199.677 20.0698C198.652 20.0698 197.79 20.2071 197.091 20.4818C196.416 20.7566 195.867 21.1313 195.442 21.6058C195.016 22.0553 194.717 22.6047 194.542 23.2541C194.368 23.8785 194.28 24.5528 194.28 25.2772V34.643ZM211.816 23.3291C212.74 23.5039 213.628 23.7037 214.477 23.9285C215.351 24.1283 216.126 24.428 216.8 24.8276C217.475 25.2022 218.012 25.7142 218.412 26.3636C218.811 26.988 219.011 27.8122 219.011 28.8362C219.011 29.8852 218.787 30.7968 218.337 31.571C217.887 32.3203 217.263 32.9446 216.463 33.4442C215.689 33.9187 214.776 34.2809 213.727 34.5306C212.678 34.7554 211.54 34.8678 210.317 34.8678C209.817 34.8678 209.254 34.8429 208.63 34.7929C208.03 34.7679 207.406 34.7179 206.756 34.643C206.106 34.5681 205.469 34.4806 204.845 34.3808C204.221 34.2809 203.646 34.1685 203.121 34.0436V29.8102C203.546 29.9352 204.058 30.0475 204.658 30.1474C205.282 30.2223 205.932 30.2973 206.606 30.3722C207.281 30.4222 207.956 30.4721 208.63 30.522C209.329 30.547 209.966 30.5595 210.541 30.5595C212.041 30.5595 213.103 30.4471 213.727 30.2223C214.377 29.9726 214.701 29.5855 214.701 29.061C214.701 28.8862 214.639 28.7363 214.514 28.6114C214.415 28.4616 214.19 28.3242 213.839 28.1993C213.515 28.0495 213.04 27.9121 212.415 27.7872C211.791 27.6374 210.967 27.4626 209.942 27.2627C209.467 27.1629 208.855 27.0379 208.105 26.8881C207.356 26.7382 206.619 26.4635 205.894 26.0639C205.195 25.6643 204.583 25.1148 204.058 24.4155C203.533 23.7162 203.271 22.7796 203.271 21.6058C203.271 20.6068 203.471 19.7451 203.87 19.0208C204.27 18.2715 204.82 17.6596 205.519 17.1851C206.244 16.6855 207.094 16.3234 208.068 16.0986C209.042 15.8489 210.105 15.724 211.254 15.724C211.703 15.724 212.215 15.7489 212.79 15.7989C213.39 15.8239 213.989 15.8738 214.589 15.9488C215.189 16.0237 215.788 16.1112 216.388 16.211C216.988 16.3109 217.537 16.4233 218.037 16.5482V20.7816C217.687 20.6817 217.225 20.5942 216.65 20.5193C216.075 20.4194 215.464 20.332 214.814 20.2571C214.19 20.1821 213.54 20.1322 212.865 20.1072C212.215 20.0572 211.628 20.0323 211.104 20.0323C209.779 20.0323 208.855 20.1572 208.33 20.4069C207.83 20.6566 207.581 21.0063 207.581 21.4559C207.581 21.7056 207.643 21.918 207.768 22.0928C207.918 22.2426 208.156 22.3925 208.48 22.5423C208.805 22.6673 209.243 22.7921 209.792 22.917C210.341 23.0419 211.016 23.1792 211.816 23.3291ZM225.693 25.2772C225.693 26.0264 225.781 26.7257 225.955 27.3751C226.156 28.0245 226.455 28.5989 226.855 29.0984C227.28 29.5729 227.805 29.9476 228.429 30.2223C229.079 30.4971 229.853 30.6344 230.752 30.6344C231.652 30.6344 232.414 30.4971 233.038 30.2223C233.688 29.9476 234.213 29.5729 234.613 29.0984C235.038 28.5989 235.338 28.0245 235.512 27.3751C235.712 26.7257 235.812 26.0264 235.812 25.2772C235.812 24.5279 235.712 23.8286 235.512 23.1792C235.338 22.5298 235.038 21.9679 234.613 21.4934C234.213 20.9938 233.688 20.6068 233.038 20.332C232.414 20.0572 231.652 19.9199 230.752 19.9199C229.853 19.9199 229.079 20.0572 228.429 20.332C227.805 20.6068 227.28 20.9938 226.855 21.4934C226.455 21.9679 226.156 22.5298 225.955 23.1792C225.781 23.8286 225.693 24.5279 225.693 25.2772ZM221.196 25.2772C221.196 23.9534 221.408 22.7171 221.833 21.5683C222.258 20.3944 222.882 19.3829 223.707 18.5338C224.531 17.6596 225.53 16.9728 226.705 16.4733C227.904 15.9737 229.253 15.724 230.752 15.724C232.251 15.724 233.588 15.9737 234.762 16.4733C235.962 16.9728 236.974 17.6596 237.798 18.5338C238.623 19.3829 239.247 20.3944 239.672 21.5683C240.097 22.7171 240.309 23.9534 240.309 25.2772C240.309 26.6009 240.097 27.8496 239.672 29.0235C239.247 30.1723 238.623 31.1839 237.798 32.058C236.974 32.9072 235.962 33.5815 234.762 34.0811C233.588 34.5806 232.251 34.8303 230.752 34.8303C229.253 34.8303 227.904 34.5806 226.705 34.0811C225.53 33.5815 224.531 32.9072 223.707 32.058C222.882 31.1839 222.258 30.1723 221.833 29.0235C221.408 27.8496 221.196 26.6009 221.196 25.2772ZM251.489 23.3291C252.413 23.5039 253.301 23.7037 254.15 23.9285C255.025 24.1283 255.799 24.428 256.474 24.8276C257.148 25.2022 257.686 25.7142 258.085 26.3636C258.485 26.988 258.685 27.8122 258.685 28.8362C258.685 29.8852 258.46 30.7968 258.01 31.571C257.56 32.3203 256.936 32.9446 256.136 33.4442C255.362 33.9187 254.45 34.2809 253.4 34.5306C252.351 34.7554 251.214 34.8678 249.99 34.8678C249.49 34.8678 248.928 34.8429 248.304 34.7929C247.704 34.7679 247.08 34.7179 246.43 34.643C245.78 34.5681 245.143 34.4806 244.518 34.3808C243.894 34.2809 243.319 34.1685 242.794 34.0436V29.8102C243.219 29.9352 243.731 30.0475 244.331 30.1474C244.955 30.2223 245.605 30.2973 246.28 30.3722C246.954 30.4222 247.629 30.4721 248.304 30.522C249.003 30.547 249.64 30.5595 250.215 30.5595C251.714 30.5595 252.776 30.4471 253.4 30.2223C254.05 29.9726 254.375 29.5855 254.375 29.061C254.375 28.8862 254.313 28.7363 254.188 28.6114C254.088 28.4616 253.863 28.3242 253.513 28.1993C253.188 28.0495 252.713 27.9121 252.089 27.7872C251.465 27.6374 250.64 27.4626 249.615 27.2627C249.141 27.1629 248.528 27.0379 247.779 26.8881C247.029 26.7382 246.293 26.4635 245.568 26.0639C244.868 25.6643 244.256 25.1148 243.731 24.4155C243.207 23.7162 242.944 22.7796 242.944 21.6058C242.944 20.6068 243.145 19.7451 243.544 19.0208C243.943 18.2715 244.494 17.6596 245.193 17.1851C245.918 16.6855 246.767 16.3234 247.741 16.0986C248.716 15.8489 249.778 15.724 250.927 15.724C251.377 15.724 251.888 15.7489 252.464 15.7989C253.063 15.8239 253.663 15.8738 254.262 15.9488C254.862 16.0237 255.462 16.1112 256.061 16.211C256.661 16.3109 257.21 16.4233 257.71 16.5482V20.7816C257.36 20.6817 256.899 20.5942 256.324 20.5193C255.749 20.4194 255.137 20.332 254.487 20.2571C253.863 20.1821 253.213 20.1322 252.538 20.1072C251.888 20.0572 251.302 20.0323 250.777 20.0323C249.452 20.0323 248.528 20.1572 248.004 20.4069C247.504 20.6566 247.254 21.0063 247.254 21.4559C247.254 21.7056 247.316 21.918 247.442 22.0928C247.591 22.2426 247.829 22.3925 248.154 22.5423C248.478 22.6673 248.916 22.7921 249.465 22.917C250.015 23.0419 250.689 23.1792 251.489 23.3291Z" fill="#121B62"/>
<mask id="mask0_3_96" style="mask-type:luminance" maskUnits="userSpaceOnUse" x="80" y="7" width="180" height="29">
<path d="M260 7.71619H80.8108V35.8137H260V7.71619Z" fill="white"/>
<path d="M91.4076 30.6344C93.1315 30.6344 94.4058 30.1349 95.2303 29.1359C96.0548 28.1369 96.467 26.8506 96.467 25.2772V11.7154H100.964V25.2772C100.964 26.6009 100.752 27.8496 100.327 29.0235C99.9024 30.1723 99.2779 31.1839 98.4534 32.058C97.6538 32.9072 96.6544 33.5815 95.4552 34.0811C94.2808 34.5806 92.9316 34.8303 91.4076 34.8303C89.8835 34.8303 88.5218 34.5806 87.3225 34.0811C86.1482 33.5815 85.1488 32.9072 84.3243 32.058C83.5248 31.1839 82.9127 30.1723 82.4879 29.0235C82.0632 27.8496 81.8508 26.6009 81.8508 25.2772V11.7154H86.3481V25.2772C86.3481 26.8506 86.7604 28.1369 87.5849 29.1359C88.4094 30.1349 89.6836 30.6344 91.4076 30.6344ZM114.567 19.9199C112.968 19.9199 111.781 20.4194 111.007 21.4184C110.257 22.4174 109.882 23.7037 109.882 25.2772V34.643H105.385V25.2772C105.385 23.9534 105.585 22.7171 105.985 21.5683C106.409 20.3944 107.009 19.3829 107.783 18.5338C108.583 17.6596 109.545 16.9728 110.669 16.4733C111.819 15.9737 113.118 15.724 114.567 15.724C116.016 15.724 117.303 15.9737 118.428 16.4733C119.577 16.9728 120.538 17.6596 121.313 18.5338C122.112 19.3829 122.712 20.3944 123.112 21.5683C123.536 22.7171 123.749 23.9534 123.749 25.2772V34.643H119.252V25.2772C119.252 23.7037 118.865 22.4174 118.09 21.4184C117.341 20.4194 116.166 19.9199 114.567 19.9199ZM132.428 34.643H127.931V15.9113H132.428V34.643ZM127.293 10.8912C127.293 10.092 127.543 9.41766 128.043 8.8682C128.568 8.31874 129.28 8.04401 130.179 8.04401C131.079 8.04401 131.778 8.33122 132.278 8.90567C132.777 9.45512 133.027 10.117 133.027 10.8912C133.027 11.6904 132.777 12.3772 132.278 12.9517C131.778 13.5011 131.079 13.7759 130.179 13.7759C129.28 13.7759 128.568 13.5011 128.043 12.9517C127.543 12.3772 127.293 11.6904 127.293 10.8912ZM141.431 34.643H136.933V8.41864H141.431V34.643ZM149.91 23.1792C149.91 24.2282 150.022 25.2022 150.247 26.1014C150.497 27.0005 150.896 27.7872 151.447 28.4616C152.02 29.111 152.77 29.6229 153.695 29.9976C154.644 30.3722 155.806 30.5595 157.181 30.5595C158.354 30.5595 159.516 30.4721 160.666 30.2973C161.815 30.0974 162.752 29.8228 163.476 29.4731V34.0811C162.552 34.3558 161.528 34.5556 160.404 34.6805C159.279 34.8303 158.129 34.9053 156.956 34.9053C155.106 34.9053 153.457 34.6056 152.009 34.0061C150.585 33.3818 149.385 32.5451 148.411 31.4961C147.436 30.4471 146.687 29.2108 146.161 27.7872C145.662 26.3636 145.413 24.8401 145.413 23.2167C145.413 21.5932 145.662 20.0698 146.161 18.6461C146.687 17.2225 147.436 15.9862 148.411 14.9373C149.385 13.8883 150.585 13.0641 152.009 12.4647C153.457 11.8403 155.106 11.5281 156.956 11.5281C158.129 11.5281 159.279 11.603 160.404 11.7529C161.528 11.8778 162.552 12.0775 163.476 12.3523V16.9603C162.752 16.6106 161.815 16.3483 160.666 16.1736C159.516 15.9737 158.354 15.8738 157.181 15.8738C155.806 15.8738 154.644 16.0612 153.695 16.4358C152.77 16.8104 152.02 17.3349 151.447 18.0093C150.896 18.6587 150.497 19.4329 150.247 20.332C150.022 21.2062 149.91 22.1552 149.91 23.1792ZM176.12 30.6344C177.718 30.6344 178.893 30.1349 179.642 29.1359C180.417 28.1369 180.804 26.8506 180.804 25.2772V15.9113H185.302V25.2772C185.302 26.6009 185.09 27.8496 184.664 29.0235C184.265 30.1723 183.665 31.1839 182.866 32.058C182.091 32.9072 181.129 33.5815 179.98 34.0811C178.855 34.5806 177.568 34.8303 176.12 34.8303C174.671 34.8303 173.371 34.5806 172.222 34.0811C171.098 33.5815 170.136 32.9072 169.336 32.058C168.562 31.1839 167.962 30.1723 167.537 29.0235C167.138 27.8496 166.938 26.6009 166.938 25.2772V15.9113H171.435V25.2772C171.435 26.8506 171.81 28.1369 172.559 29.1359C173.333 30.1349 174.521 30.6344 176.12 30.6344ZM194.28 34.643H189.782V25.3146C189.782 23.9909 189.994 22.7422 190.42 21.5683C190.845 20.3944 191.469 19.3829 192.293 18.5338C193.118 17.6596 194.13 16.9728 195.329 16.4733C196.528 15.9737 197.902 15.724 199.452 15.724C199.727 15.724 200.001 15.7489 200.276 15.7989C200.551 15.8239 200.825 15.8613 201.101 15.9113V20.2571C200.851 20.2071 200.613 20.1696 200.389 20.1447C200.164 20.0947 199.926 20.0698 199.677 20.0698C198.652 20.0698 197.79 20.2071 197.091 20.4818C196.416 20.7566 195.867 21.1313 195.442 21.6058C195.016 22.0553 194.717 22.6047 194.542 23.2541C194.368 23.8785 194.28 24.5528 194.28 25.2772V34.643ZM211.816 23.3291C212.74 23.5039 213.628 23.7037 214.477 23.9285C215.351 24.1283 216.126 24.428 216.8 24.8276C217.475 25.2022 218.012 25.7142 218.412 26.3636C218.811 26.988 219.011 27.8122 219.011 28.8362C219.011 29.8852 218.787 30.7968 218.337 31.571C217.887 32.3203 217.263 32.9446 216.463 33.4442C215.689 33.9187 214.776 34.2809 213.727 34.5306C212.678 34.7554 211.54 34.8678 210.317 34.8678C209.817 34.8678 209.254 34.8429 208.63 34.7929C208.03 34.7679 207.406 34.7179 206.756 34.643C206.106 34.5681 205.469 34.4806 204.845 34.3808C204.221 34.2809 203.646 34.1685 203.121 34.0436V29.8102C203.546 29.9352 204.058 30.0475 204.658 30.1474C205.282 30.2223 205.932 30.2973 206.606 30.3722C207.281 30.4222 207.956 30.4721 208.63 30.522C209.329 30.547 209.966 30.5595 210.541 30.5595C212.041 30.5595 213.103 30.4471 213.727 30.2223C214.377 29.9726 214.701 29.5855 214.701 29.061C214.701 28.8862 214.639 28.7363 214.514 28.6114C214.415 28.4616 214.19 28.3242 213.839 28.1993C213.515 28.0495 213.04 27.9121 212.415 27.7872C211.791 27.6374 210.967 27.4626 209.942 27.2627C209.467 27.1629 208.855 27.0379 208.105 26.8881C207.356 26.7382 206.619 26.4635 205.894 26.0639C205.195 25.6643 204.583 25.1148 204.058 24.4155C203.533 23.7162 203.271 22.7796 203.271 21.6058C203.271 20.6068 203.471 19.7451 203.87 19.0208C204.27 18.2715 204.82 17.6596 205.519 17.1851C206.244 16.6855 207.094 16.3234 208.068 16.0986C209.042 15.8489 210.105 15.724 211.254 15.724C211.703 15.724 212.215 15.7489 212.79 15.7989C213.39 15.8239 213.989 15.8738 214.589 15.9488C215.189 16.0237 215.788 16.1112 216.388 16.211C216.988 16.3109 217.537 16.4233 218.037 16.5482V20.7816C217.687 20.6817 217.225 20.5942 216.65 20.5193C216.075 20.4194 215.464 20.332 214.814 20.2571C214.19 20.1821 213.54 20.1322 212.865 20.1072C212.215 20.0572 211.628 20.0323 211.104 20.0323C209.779 20.0323 208.855 20.1572 208.33 20.4069C207.83 20.6566 207.581 21.0063 207.581 21.4559C207.581 21.7056 207.643 21.918 207.768 22.0928C207.918 22.2426 208.156 22.3925 208.48 22.5423C208.805 22.6673 209.243 22.7921 209.792 22.917C210.341 23.0419 211.016 23.1792 211.816 23.3291ZM225.693 25.2772C225.693 26.0264 225.781 26.7257 225.955 27.3751C226.156 28.0245 226.455 28.5989 226.855 29.0984C227.28 29.5729 227.805 29.9476 228.429 30.2223C229.079 30.4971 229.853 30.6344 230.752 30.6344C231.652 30.6344 232.414 30.4971 233.038 30.2223C233.688 29.9476 234.213 29.5729 234.613 29.0984C235.038 28.5989 235.338 28.0245 235.512 27.3751C235.712 26.7257 235.812 26.0264 235.812 25.2772C235.812 24.5279 235.712 23.8286 235.512 23.1792C235.338 22.5298 235.038 21.9679 234.613 21.4934C234.213 20.9938 233.688 20.6068 233.038 20.332C232.414 20.0572 231.652 19.9199 230.752 19.9199C229.853 19.9199 229.079 20.0572 228.429 20.332C227.805 20.6068 227.28 20.9938 226.855 21.4934C226.455 21.9679 226.156 22.5298 225.955 23.1792C225.781 23.8286 225.693 24.5279 225.693 25.2772ZM221.196 25.2772C221.196 23.9534 221.408 22.7171 221.833 21.5683C222.258 20.3944 222.882 19.3829 223.707 18.5338C224.531 17.6596 225.53 16.9728 226.705 16.4733C227.904 15.9737 229.253 15.724 230.752 15.724C232.251 15.724 233.588 15.9737 234.762 16.4733C235.962 16.9728 236.974 17.6596 237.798 18.5338C238.623 19.3829 239.247 20.3944 239.672 21.5683C240.097 22.7171 240.309 23.9534 240.309 25.2772C240.309 26.6009 240.097 27.8496 239.672 29.0235C239.247 30.1723 238.623 31.1839 237.798 32.058C236.974 32.9072 235.962 33.5815 234.762 34.0811C233.588 34.5806 232.251 34.8303 230.752 34.8303C229.253 34.8303 227.904 34.5806 226.705 34.0811C225.53 33.5815 224.531 32.9072 223.707 32.058C222.882 31.1839 222.258 30.1723 221.833 29.0235C221.408 27.8496 221.196 26.6009 221.196 25.2772ZM251.489 23.3291C252.413 23.5039 253.301 23.7037 254.15 23.9285C255.025 24.1283 255.799 24.428 256.474 24.8276C257.148 25.2022 257.686 25.7142 258.085 26.3636C258.485 26.988 258.685 27.8122 258.685 28.8362C258.685 29.8852 258.46 30.7968 258.01 31.571C257.56 32.3203 256.936 32.9446 256.136 33.4442C255.362 33.9187 254.45 34.2809 253.4 34.5306C252.351 34.7554 251.214 34.8678 249.99 34.8678C249.49 34.8678 248.928 34.8429 248.304 34.7929C247.704 34.7679 247.08 34.7179 246.43 34.643C245.78 34.5681 245.143 34.4806 244.518 34.3808C243.894 34.2809 243.319 34.1685 242.794 34.0436V29.8102C243.219 29.9352 243.731 30.0475 244.331 30.1474C244.955 30.2223 245.605 30.2973 246.28 30.3722C246.954 30.4222 247.629 30.4721 248.304 30.522C249.003 30.547 249.64 30.5595 250.215 30.5595C251.714 30.5595 252.776 30.4471 253.4 30.2223C254.05 29.9726 254.375 29.5855 254.375 29.061C254.375 28.8862 254.313 28.7363 254.188 28.6114C254.088 28.4616 253.863 28.3242 253.513 28.1993C253.188 28.0495 252.713 27.9121 252.089 27.7872C251.465 27.6374 250.64 27.4626 249.615 27.2627C249.141 27.1629 248.528 27.0379 247.779 26.8881C247.029 26.7382 246.293 26.4635 245.568 26.0639C244.868 25.6643 244.256 25.1148 243.731 24.4155C243.207 23.7162 242.944 22.7796 242.944 21.6058C242.944 20.6068 243.145 19.7451 243.544 19.0208C243.943 18.2715 244.494 17.6596 245.193 17.1851C245.918 16.6855 246.767 16.3234 247.741 16.0986C248.716 15.8489 249.778 15.724 250.927 15.724C251.377 15.724 251.888 15.7489 252.464 15.7989C253.063 15.8239 253.663 15.8738 254.262 15.9488C254.862 16.0237 255.462 16.1112 256.061 16.211C256.661 16.3109 257.21 16.4233 257.71 16.5482V20.7816C257.36 20.6817 256.899 20.5942 256.324 20.5193C255.749 20.4194 255.137 20.332 254.487 20.2571C253.863 20.1821 253.213 20.1322 252.538 20.1072C251.888 20.0572 251.302 20.0323 250.777 20.0323C249.452 20.0323 248.528 20.1572 248.004 20.4069C247.504 20.6566 247.254 21.0063 247.254 21.4559C247.254 21.7056 247.316 21.918 247.442 22.0928C247.591 22.2426 247.829 22.3925 248.154 22.5423C248.478 22.6673 248.916 22.7921 249.465 22.917C250.015 23.0419 250.689 23.1792 251.489 23.3291Z" fill="black"/>
</mask>
<g mask="url(#mask0_3_96)">
<path d="M96.467 11.7154V11.4813H96.2328V11.7154H96.467ZM100.964 11.7154H101.199V11.4813H100.964V11.7154ZM100.327 29.0235L100.547 29.1046L100.547 29.1031L100.327 29.0235ZM95.4551 34.0811L95.3651 33.8649L95.3634 33.8656L95.4551 34.0811ZM87.3225 34.0811L87.2308 34.2965L87.2325 34.2972L87.3225 34.0811ZM84.3243 32.058L84.1513 32.2161L84.1563 32.2211L84.3243 32.058ZM82.4879 29.0235L82.2676 29.1031L82.2682 29.1046L82.4879 29.0235ZM81.8508 11.7154V11.4813H81.6166V11.7154H81.8508ZM86.3481 11.7154H86.5823V11.4813H86.3481V11.7154ZM91.4076 30.8686C93.1767 30.8686 94.5284 30.3544 95.411 29.2849L95.0496 28.9868C94.2831 29.9155 93.0863 30.4003 91.4076 30.4003V30.8686ZM95.411 29.2849C96.2771 28.2355 96.7013 26.8929 96.7013 25.2772H96.2328C96.2328 26.8084 95.8325 28.0383 95.0496 28.9868L95.411 29.2849ZM96.7013 25.2772V11.7154H96.2328V25.2772H96.7013ZM96.467 11.9495H100.964V11.4813H96.467V11.9495ZM100.73 11.7154V25.2772H101.199V11.7154H100.73ZM100.73 25.2772C100.73 26.5754 100.522 27.797 100.107 28.9439L100.547 29.1031C100.982 27.9023 101.199 26.6264 101.199 25.2772H100.73ZM100.107 28.9424C99.6935 30.0623 99.0854 31.0466 98.2829 31.8974L98.6237 32.2187C99.4703 31.3212 100.111 30.2825 100.547 29.1046L100.107 28.9424ZM98.2829 31.8974C97.5084 32.72 96.5374 33.3766 95.3651 33.8649L95.5452 34.2972C96.7715 33.7865 97.7992 33.0944 98.6237 32.2187L98.2829 31.8974ZM95.3634 33.8656C94.2232 34.3507 92.9062 34.5962 91.4076 34.5962V35.0645C92.9571 35.0645 94.3385 34.8105 95.5468 34.2965L95.3634 33.8656ZM91.4076 34.5962C89.9092 34.5962 88.5788 34.3507 87.4126 33.8649L87.2325 34.2972C88.4648 34.8104 89.8579 35.0645 91.4076 35.0645V34.5962ZM87.4142 33.8656C86.2664 33.3773 85.2936 32.7201 84.4924 31.8949L84.1563 32.2211C85.0041 33.0944 86.0301 33.7858 87.2308 34.2965L87.4142 33.8656ZM84.4972 31.9001C83.7188 31.049 83.1222 30.0638 82.7076 28.9424L82.2682 29.1046C82.7031 30.281 83.3307 31.3188 84.1513 32.2161L84.4972 31.9001ZM82.7082 28.9439C82.2933 27.797 82.085 26.5754 82.085 25.2772H81.6166C81.6166 26.6264 81.8331 27.9023 82.2676 29.1031L82.7082 28.9439ZM82.085 25.2772V11.7154H81.6166V25.2772H82.085ZM81.8508 11.9495H86.3481V11.4813H81.8508V11.9495ZM86.1139 11.7154V25.2772H86.5823V11.7154H86.1139ZM86.1139 25.2772C86.1139 26.8929 86.5381 28.2355 87.4041 29.2849L87.7656 28.9868C86.9826 28.0383 86.5823 26.8084 86.5823 25.2772H86.1139ZM87.4041 29.2849C88.2867 30.3544 89.6384 30.8686 91.4076 30.8686V30.4003C89.7288 30.4003 88.532 29.9155 87.7656 28.9868L87.4041 29.2849ZM111.007 21.4184L110.821 21.275L110.819 21.2779L111.007 21.4184ZM109.882 34.643V34.8771H110.116V34.643H109.882ZM105.385 34.643H105.151V34.8771H105.385V34.643ZM105.985 21.5683L105.764 21.4887L105.763 21.4914L105.985 21.5683ZM110.669 16.4732L110.576 16.2585L110.574 16.2592L110.669 16.4732ZM118.428 16.4732L118.332 16.6873L118.334 16.688L118.428 16.4732ZM121.313 18.5337L121.138 18.6891L121.142 18.6942L121.313 18.5337ZM123.112 21.5683L122.89 21.6438L122.892 21.6494L123.112 21.5683ZM123.749 34.643V34.8771H123.984V34.643H123.749ZM119.252 34.643H119.018V34.8771H119.252V34.643ZM118.09 21.4184L117.902 21.5589L117.904 21.5618L118.09 21.4184ZM114.567 19.6857C112.916 19.6857 111.652 20.2039 110.821 21.275L111.192 21.5618C111.91 20.6348 113.019 20.154 114.567 20.154V19.6857ZM110.819 21.2779C110.032 22.327 109.648 23.6663 109.648 25.2772H110.116C110.116 23.741 110.482 22.5079 111.194 21.5589L110.819 21.2779ZM109.648 25.2772V34.643H110.116V25.2772H109.648ZM109.882 34.4089H105.385V34.8771H109.882V34.4089ZM105.619 34.643V25.2772H105.151V34.643H105.619ZM105.619 25.2772C105.619 23.9773 105.815 22.7672 106.206 21.6452L105.763 21.4914C105.354 22.6671 105.151 23.9295 105.151 25.2772H105.619ZM106.205 21.6479C106.62 20.5004 107.204 19.5161 107.957 18.6916L107.611 18.3758C106.814 19.2495 106.199 20.2884 105.764 21.4887L106.205 21.6479ZM107.957 18.6916C108.734 17.8421 109.668 17.1742 110.764 16.6873L110.574 16.2592C109.421 16.7714 108.433 17.4769 107.611 18.3758L107.957 18.6916ZM110.763 16.688C111.878 16.2032 113.145 15.9581 114.567 15.9581V15.4898C113.091 15.4898 111.759 15.7443 110.576 16.2585L110.763 16.688ZM114.567 15.9581C115.989 15.9581 117.242 16.2032 118.332 16.6873L118.523 16.2592C117.363 15.7443 116.043 15.4898 114.567 15.4898V15.9581ZM118.334 16.688C119.454 17.1749 120.387 17.8423 121.138 18.6891L121.488 18.3785C120.689 17.4769 119.698 16.7706 118.52 16.2585L118.334 16.688ZM121.142 18.6942C121.918 19.5175 122.5 20.4995 122.89 21.6438L123.334 21.4929C122.924 20.2894 122.308 19.2484 121.483 18.3732L121.142 18.6942ZM122.892 21.6494C123.307 22.7704 123.515 23.9789 123.515 25.2772H123.984C123.984 23.928 123.767 22.664 123.331 21.4871L122.892 21.6494ZM123.515 25.2772V34.643H123.984V25.2772H123.515ZM123.749 34.4089H119.252V34.8771H123.749V34.4089ZM119.486 34.643V25.2772H119.018V34.643H119.486ZM119.486 25.2772C119.486 23.6647 119.088 22.3242 118.275 21.275L117.904 21.5618C118.64 22.5106 119.018 23.7427 119.018 25.2772H119.486ZM118.278 21.2779C117.471 20.2039 116.217 19.6857 114.567 19.6857V20.154C116.115 20.154 117.208 20.635 117.902 21.5589L118.278 21.2779ZM132.428 34.643V34.8771H132.662V34.643H132.428ZM127.931 34.643H127.696V34.8771H127.931V34.643ZM127.931 15.9113V15.6771H127.696V15.9113H127.931ZM132.428 15.9113H132.662V15.6771H132.428V15.9113ZM128.043 8.86819L127.873 8.70647L127.87 8.71069L128.043 8.86819ZM132.278 8.90565L132.101 9.05933L132.105 9.06316L132.278 8.90565ZM132.278 12.9517L132.451 13.1093L132.454 13.1053L132.278 12.9517ZM128.043 12.9517L127.865 13.1055L127.873 13.1134L128.043 12.9517ZM132.428 34.4089H127.931V34.8771H132.428V34.4089ZM128.165 34.643V15.9113H127.696V34.643H128.165ZM127.931 16.1454H132.428V15.6771H127.931V16.1454ZM132.194 15.9113V34.643H132.662V15.9113H132.194ZM127.528 10.8912C127.528 10.1454 127.758 9.52861 128.215 9.0257L127.87 8.71069C127.327 9.3067 127.059 10.0386 127.059 10.8912H127.528ZM128.212 9.02986C128.685 8.53515 129.33 8.27814 130.179 8.27814V7.80984C129.228 7.80984 128.449 8.10226 127.873 8.70647L128.212 9.02986ZM130.179 8.27814C131.024 8.27814 131.654 8.54542 132.101 9.05933L132.454 8.752C131.902 8.11704 131.133 7.80984 130.179 7.80984V8.27814ZM132.105 9.06316C132.563 9.56753 132.793 10.1725 132.793 10.8912H133.262C133.262 10.0615 132.991 9.34268 132.45 8.74815L132.105 9.06316ZM132.793 10.8912C132.793 11.637 132.561 12.2684 132.101 12.7981L132.454 13.1053C132.992 12.4861 133.262 11.7438 133.262 10.8912H132.793ZM132.105 12.7942C131.658 13.2848 131.027 13.5417 130.179 13.5417V14.01C131.129 14.01 131.897 13.7176 132.45 13.1092L132.105 12.7942ZM130.179 13.5417C129.33 13.5417 128.685 13.2848 128.212 12.79L127.873 13.1134C128.449 13.7176 129.228 14.01 130.179 14.01V13.5417ZM128.219 12.7981C127.758 12.2684 127.528 11.637 127.528 10.8912H127.059C127.059 11.7438 127.327 12.4861 127.866 13.1053L128.219 12.7981ZM141.431 34.643V34.8771H141.665V34.643H141.431ZM136.933 34.643H136.699V34.8771H136.933V34.643ZM136.933 8.41863V8.18448H136.699V8.41863H136.933ZM141.431 8.41863H141.665V8.18448H141.431V8.41863ZM141.431 34.4089H136.933V34.8771H141.431V34.4089ZM137.168 34.643V8.41863H136.699V34.643H137.168ZM136.933 8.65277H141.431V8.18448H136.933V8.65277ZM141.196 8.41863V34.643H141.665V8.41863H141.196ZM150.247 26.1013L150.019 26.1581L150.021 26.164L150.247 26.1013ZM151.446 28.4615L151.264 28.6096L151.271 28.6167L151.446 28.4615ZM153.695 29.9975L153.606 30.2146L153.608 30.2153L153.695 29.9975ZM160.666 30.2972L160.701 30.5288L160.706 30.528L160.666 30.2972ZM163.476 29.4731H163.71V29.1001L163.375 29.2622L163.476 29.4731ZM163.476 34.0811L163.542 34.3055L163.71 34.2557V34.0811H163.476ZM160.404 34.6805L160.377 34.4477L160.372 34.4484L160.404 34.6805ZM152.009 34.0061L151.914 34.2206L151.918 34.2225L152.009 34.0061ZM146.161 27.7872L145.941 27.8647L145.942 27.8682L146.161 27.7872ZM146.161 18.6461L145.942 18.5652L145.941 18.5686L146.161 18.6461ZM152.009 12.4647L152.099 12.6804L152.101 12.6797L152.009 12.4647ZM160.404 11.7529L160.372 11.985L160.377 11.9856L160.404 11.7529ZM163.476 12.3523H163.71V12.1776L163.542 12.1278L163.476 12.3523ZM163.476 16.9603L163.375 17.1711L163.71 17.3333V16.9603H163.476ZM160.666 16.1735L160.625 16.4043L160.63 16.405L160.666 16.1735ZM153.695 16.4358L153.608 16.218L153.606 16.2188L153.695 16.4358ZM150.247 20.332L150.021 20.2693L150.02 20.2737L150.247 20.332ZM149.676 23.1792C149.676 24.2449 149.789 25.2382 150.019 26.1581L150.474 26.0446C150.254 25.1663 150.144 24.2116 150.144 23.1792H149.676ZM150.021 26.164C150.279 27.092 150.692 27.9085 151.264 28.6096L151.628 28.3137C151.1 27.6661 150.714 26.9089 150.472 26.0387L150.021 26.164ZM151.271 28.6167C151.873 29.297 152.654 29.8284 153.606 30.2146L153.783 29.7806C152.887 29.4174 152.169 28.9249 151.621 28.3064L151.271 28.6167ZM153.608 30.2153C154.593 30.6039 155.786 30.7936 157.181 30.7936V30.3253C155.825 30.3253 154.695 30.1406 153.781 29.7798L153.608 30.2153ZM157.181 30.7936C158.366 30.7936 159.539 30.7055 160.701 30.5288L160.63 30.0658C159.492 30.2388 158.342 30.3253 157.181 30.3253V30.7936ZM160.706 30.528C161.868 30.3259 162.827 30.0462 163.577 29.6839L163.375 29.2622C162.676 29.5993 161.762 29.869 160.625 30.0666L160.706 30.528ZM163.241 29.4731V34.0811H163.71V29.4731H163.241ZM163.41 33.8566C162.5 34.1268 161.49 34.3242 160.377 34.4477L160.429 34.9132C161.564 34.787 162.603 34.5848 163.542 34.3055L163.41 33.8566ZM160.372 34.4484C159.258 34.5969 158.12 34.6711 156.956 34.6711V35.1394C158.14 35.1394 159.299 35.0639 160.434 34.9126L160.372 34.4484ZM156.956 34.6711C155.131 34.6711 153.514 34.3755 152.098 33.7898L151.918 34.2225C153.401 34.8356 155.081 35.1394 156.956 35.1394V34.6711ZM152.102 33.7918C150.705 33.1791 149.533 32.3603 148.582 31.3367L148.239 31.6554C149.236 32.7298 150.463 33.5844 151.914 34.2206L152.102 33.7918ZM148.582 31.3367C147.63 30.3118 146.896 29.1026 146.381 27.7063L145.942 27.8682C146.476 29.3191 147.242 30.5824 148.239 31.6554L148.582 31.3367ZM146.382 27.7097C145.893 26.3128 145.647 24.8156 145.647 23.2167H145.178C145.178 24.8645 145.431 26.4144 145.941 27.8647L146.382 27.7097ZM145.647 23.2167C145.647 21.6177 145.893 20.1205 146.382 18.7236L145.941 18.5686C145.431 20.0189 145.178 21.5689 145.178 23.2167H145.647ZM146.381 18.7271C146.896 17.3308 147.63 16.1216 148.582 15.0966L148.239 14.7779C147.242 15.8509 146.476 17.1143 145.942 18.5652L146.381 18.7271ZM148.582 15.0966C149.532 14.0738 150.703 13.268 152.099 12.6804L151.917 12.2489C150.465 12.8601 149.238 13.7027 148.239 14.7779L148.582 15.0966ZM152.101 12.6797C153.516 12.0699 155.132 11.7622 156.956 11.7622V11.2939C155.079 11.2939 153.399 11.6107 151.915 12.2496L152.101 12.6797ZM156.956 11.7622C158.12 11.7622 159.258 11.8366 160.372 11.985L160.434 11.5208C159.299 11.3695 158.14 11.2939 156.956 11.2939V11.7622ZM160.377 11.9856C161.49 12.1092 162.5 12.3066 163.41 12.5767L163.542 12.1278C162.603 11.8485 161.564 11.6463 160.429 11.5202L160.377 11.9856ZM163.241 12.3523V16.9603H163.71V12.3523H163.241ZM163.577 16.7494C162.826 16.3861 161.864 16.119 160.701 15.9421L160.63 16.405C161.766 16.5778 162.678 16.835 163.375 17.1711L163.577 16.7494ZM160.706 15.9429C159.543 15.7407 158.368 15.6397 157.181 15.6397V16.108C158.341 16.108 159.489 16.2068 160.625 16.4043L160.706 15.9429ZM157.181 15.6397C155.786 15.6397 154.593 15.8296 153.608 16.218L153.781 16.6535C154.695 16.2928 155.825 16.108 157.181 16.108V15.6397ZM153.606 16.2188C152.652 16.6058 151.869 17.151 151.267 17.8574L151.625 18.1611C152.171 17.5188 152.888 17.0151 153.783 16.6528L153.606 16.2188ZM151.267 17.8574C150.693 18.535 150.279 19.3408 150.021 20.2693L150.472 20.3946C150.714 19.5249 151.099 18.7823 151.625 18.1611L151.267 17.8574ZM150.02 20.2737C149.789 21.1693 149.676 22.1382 149.676 23.1792H150.144C150.144 22.1723 150.254 21.243 150.473 20.3903L150.02 20.2737ZM179.642 29.1359L179.457 28.9925L179.455 28.9954L179.642 29.1359ZM180.804 15.9113V15.6771H180.57V15.9113H180.804ZM185.302 15.9113H185.536V15.6771H185.302V15.9113ZM184.664 29.0235L184.444 28.9439L184.443 28.9466L184.664 29.0235ZM179.98 34.0811L179.886 33.8663L179.885 33.867L179.98 34.0811ZM172.222 34.0811L172.127 34.2951L172.128 34.2958L172.222 34.0811ZM169.336 32.058L169.16 32.2134L169.165 32.2185L169.336 32.058ZM167.537 29.0235L167.316 29.099L167.317 29.1046L167.537 29.0235ZM166.938 15.9113V15.6771H166.703V15.9113H166.938ZM171.435 15.9113H171.669V15.6771H171.435V15.9113ZM172.559 29.1359L172.372 29.2764L172.374 29.2793L172.559 29.1359ZM176.12 30.8686C177.77 30.8686 179.024 30.3504 179.83 29.2764L179.455 28.9954C178.762 29.9195 177.668 30.4003 176.12 30.4003V30.8686ZM179.827 29.2793C180.641 28.2301 181.038 26.8896 181.038 25.2772H180.57C180.57 26.8116 180.193 28.0437 179.457 28.9925L179.827 29.2793ZM181.038 25.2772V15.9113H180.57V25.2772H181.038ZM180.804 16.1454H185.302V15.6771H180.804V16.1454ZM185.067 15.9113V25.2772H185.536V15.9113H185.067ZM185.067 25.2772C185.067 26.5754 184.859 27.797 184.444 28.9439L184.885 29.1031C185.319 27.9023 185.536 26.6264 185.536 25.2772H185.067ZM184.443 28.9466C184.053 30.0663 183.47 31.05 182.692 31.9001L183.039 32.2161C183.86 31.3178 184.476 30.2785 184.886 29.1004L184.443 28.9466ZM182.692 31.9001C181.943 32.7227 181.008 33.3787 179.886 33.8663L180.073 34.2958C181.25 33.7843 182.24 33.0918 183.039 32.2161L182.692 31.9001ZM179.885 33.867C178.794 34.3511 177.541 34.5962 176.12 34.5962V35.0645C177.595 35.0645 178.916 34.8099 180.075 34.2951L179.885 33.867ZM176.12 34.5962C174.698 34.5962 173.431 34.3511 172.316 33.8663L172.128 34.2958C173.311 34.8099 174.643 35.0645 176.12 35.0645V34.5962ZM172.317 33.867C171.219 33.3796 170.284 32.7229 169.507 31.8975L169.165 32.2185C169.987 33.0916 170.976 33.7836 172.127 34.2951L172.317 33.867ZM169.512 31.9028C168.758 31.0514 168.172 30.0653 167.757 28.9424L167.317 29.1046C167.752 30.2795 168.366 31.3165 169.16 32.2134L169.512 31.9028ZM167.759 28.9481C167.369 27.8001 167.172 26.5769 167.172 25.2772H166.703C166.703 26.6248 166.907 27.8992 167.316 29.099L167.759 28.9481ZM167.172 25.2772V15.9113H166.703V25.2772H167.172ZM166.938 16.1454H171.435V15.6771H166.938V16.1454ZM171.201 15.9113V25.2772H171.669V15.9113H171.201ZM171.201 25.2772C171.201 26.888 171.585 28.2273 172.372 29.2764L172.747 28.9954C172.034 28.0464 171.669 26.8133 171.669 25.2772H171.201ZM172.374 29.2793C173.204 30.3504 174.469 30.8686 176.12 30.8686V30.4003C174.572 30.4003 173.463 29.9195 172.744 28.9925L172.374 29.2793ZM194.28 34.643V34.8771H194.514V34.643H194.28ZM189.782 34.643H189.548V34.8771H189.782V34.643ZM192.293 18.5337L192.462 18.6968L192.464 18.6944L192.293 18.5337ZM200.276 15.7989L200.234 16.0293L200.244 16.0312L200.255 16.0321L200.276 15.7989ZM201.101 15.9113H201.335V15.7159L201.143 15.6809L201.101 15.9113ZM201.101 20.2571L201.055 20.4866L201.335 20.5427V20.2571H201.101ZM200.389 20.1447L200.338 20.3732L200.35 20.376L200.363 20.3774L200.389 20.1447ZM197.091 20.4818L197.005 20.2638L197.003 20.265L197.091 20.4818ZM195.442 21.6057L195.611 21.7666L195.616 21.7619L195.442 21.6057ZM194.542 23.2541L194.768 23.3172V23.315L194.542 23.2541ZM194.28 34.4089H189.782V34.8771H194.28V34.4089ZM190.017 34.643V25.3146H189.548V34.643H190.017ZM190.017 25.3146C190.017 24.0164 190.225 22.7947 190.64 21.6479L190.199 21.4887C189.765 22.6896 189.548 23.9655 189.548 25.3146H190.017ZM190.64 21.6479C191.054 20.5035 191.661 19.5209 192.462 18.6968L192.125 18.3707C191.277 19.245 190.635 20.2854 190.199 21.4887L190.64 21.6479ZM192.464 18.6944C193.264 17.846 194.248 17.1773 195.419 16.6894L195.239 16.2571C194.012 16.7683 192.972 17.4732 192.122 18.3731L192.464 18.6944ZM195.419 16.6894C196.585 16.2039 197.928 15.9581 199.452 15.9581V15.4898C197.878 15.4898 196.472 15.7436 195.239 16.2571L195.419 16.6894ZM199.452 15.9581C199.712 15.9581 199.973 15.9818 200.234 16.0293L200.318 15.5685C200.029 15.5162 199.741 15.4898 199.452 15.4898V15.9581ZM200.255 16.0321C200.523 16.0565 200.79 16.093 201.058 16.1417L201.143 15.6809C200.861 15.6297 200.579 15.5913 200.297 15.5657L200.255 16.0321ZM200.866 15.9113V20.2571H201.335V15.9113H200.866ZM201.146 20.0275C200.891 19.9763 200.646 19.9378 200.414 19.9119L200.363 20.3774C200.581 20.4015 200.81 20.4379 201.055 20.4866L201.146 20.0275ZM200.439 19.9161C200.196 19.8622 199.942 19.8356 199.676 19.8356V20.3039C199.911 20.3039 200.131 20.3273 200.338 20.3732L200.439 19.9161ZM199.676 19.8356C198.633 19.8356 197.739 19.9753 197.005 20.2638L197.176 20.6998C197.84 20.4389 198.672 20.3039 199.676 20.3039V19.8356ZM197.003 20.265C196.299 20.5513 195.719 20.945 195.267 21.4497L195.616 21.7619C196.014 21.3174 196.533 20.9619 197.178 20.6987L197.003 20.265ZM195.272 21.445C194.817 21.9251 194.5 22.5099 194.316 23.1932L194.768 23.315C194.934 22.6997 195.215 22.1856 195.611 21.7666L195.272 21.445ZM194.316 23.191C194.136 23.8382 194.045 24.534 194.045 25.2772H194.514C194.514 24.5718 194.599 23.9189 194.768 23.3172L194.316 23.191ZM194.045 25.2772V34.643H194.514V25.2772H194.045ZM214.477 23.9285L214.417 24.155L214.424 24.1568L214.477 23.9285ZM216.8 24.8276L216.681 25.0291L216.687 25.0322L216.8 24.8276ZM218.412 26.3636L218.213 26.4863L218.215 26.4898L218.412 26.3636ZM218.337 31.571L218.538 31.6915L218.539 31.6885L218.337 31.571ZM216.463 33.4442L216.586 33.6438L216.587 33.6427L216.463 33.4442ZM213.727 34.5306L213.776 34.7596L213.781 34.7584L213.727 34.5306ZM208.63 34.7929L208.649 34.5593L208.639 34.5589L208.63 34.7929ZM203.121 34.0436H202.887V34.2286L203.067 34.2714L203.121 34.0436ZM203.121 29.8102L203.186 29.5856L202.887 29.4973V29.8102H203.121ZM204.657 30.1474L204.619 30.3786L204.629 30.3799L204.657 30.1474ZM206.606 30.3722L206.581 30.605L206.589 30.6057L206.606 30.3722ZM208.63 30.522L208.613 30.7557L208.622 30.7561L208.63 30.522ZM213.727 30.2223L213.807 30.4427L213.811 30.4409L213.727 30.2223ZM214.514 28.6114L214.32 28.7413L214.333 28.7605L214.349 28.7769L214.514 28.6114ZM213.839 28.1993L213.741 28.4119L213.75 28.4164L213.761 28.4199L213.839 28.1993ZM212.415 27.7872L212.36 28.015L212.37 28.0168L212.415 27.7872ZM209.942 27.2627L209.894 27.4918L209.897 27.4925L209.942 27.2627ZM205.894 26.0639L205.778 26.2672L205.781 26.2689L205.894 26.0639ZM203.87 19.0208L204.075 19.1339L204.077 19.1309L203.87 19.0208ZM205.519 17.1851L205.651 17.3788L205.653 17.3779L205.519 17.1851ZM208.068 16.0986L208.121 16.3268L208.126 16.3254L208.068 16.0986ZM212.79 15.7989L212.77 16.0325L212.781 16.0328L212.79 15.7989ZM218.037 16.5482H218.271V16.3654L218.094 16.3211L218.037 16.5482ZM218.037 20.7815L217.973 21.0067L218.271 21.092V20.7815H218.037ZM216.65 20.5193L216.61 20.7502L216.62 20.7515L216.65 20.5193ZM214.814 20.2571L214.786 20.4896L214.787 20.4897L214.814 20.2571ZM212.865 20.1072L212.847 20.3409L212.857 20.3412L212.865 20.1072ZM208.33 20.4069L208.23 20.1955L208.226 20.1975L208.33 20.4069ZM207.768 22.0928L207.577 22.2289L207.589 22.2446L207.603 22.2583L207.768 22.0928ZM208.48 22.5423L208.382 22.7554L208.396 22.7609L208.48 22.5423ZM211.772 23.5591C212.692 23.733 213.572 23.9317 214.417 24.155L214.536 23.7022C213.681 23.4759 212.789 23.2748 211.859 23.099L211.772 23.5591ZM214.424 24.1568C215.279 24.3519 216.03 24.6434 216.681 25.0291L216.92 24.6262C216.222 24.2126 215.424 23.9047 214.529 23.7002L214.424 24.1568ZM216.687 25.0322C217.326 25.3877 217.834 25.8716 218.213 26.4863L218.611 26.2409C218.19 25.5568 217.623 25.0168 216.914 24.6229L216.687 25.0322ZM218.215 26.4898C218.583 27.0647 218.777 27.8405 218.777 28.8362H219.246C219.246 27.7839 219.041 26.9113 218.608 26.2374L218.215 26.4898ZM218.777 28.8362C218.777 29.851 218.559 30.7206 218.134 31.4535L218.539 31.6885C219.014 30.8729 219.246 29.9193 219.246 28.8362H218.777ZM218.136 31.4505C217.707 32.1656 217.109 32.7641 216.339 33.2456L216.587 33.6427C217.415 33.1251 218.067 32.4749 218.537 31.6915L218.136 31.4505ZM216.34 33.2446C215.59 33.704 214.703 34.0578 213.673 34.3029L213.781 34.7584C214.85 34.5039 215.786 34.1334 216.586 33.6438L216.34 33.2446ZM213.678 34.3017C212.647 34.5225 211.526 34.6336 210.317 34.6336V35.1019C211.554 35.1019 212.708 34.9883 213.776 34.7596L213.678 34.3017ZM210.317 34.6336C209.825 34.6336 209.268 34.6089 208.649 34.5593L208.611 35.0263C209.24 35.0766 209.809 35.1019 210.317 35.1019V34.6336ZM208.639 34.5589C208.047 34.5342 207.427 34.4847 206.783 34.4104L206.729 34.8756C207.384 34.9511 208.014 35.0016 208.621 35.0268L208.639 34.5589ZM206.783 34.4104C206.137 34.3359 205.503 34.2489 204.882 34.1495L204.807 34.612C205.436 34.7124 206.077 34.8003 206.729 34.8756L206.783 34.4104ZM204.882 34.1495C204.262 34.0505 203.694 33.9392 203.175 33.8159L203.067 34.2714C203.598 34.3979 204.178 34.5113 204.807 34.612L204.882 34.1495ZM203.355 34.0436V29.8102H202.887V34.0436H203.355ZM203.055 30.0349C203.491 30.1632 204.013 30.2777 204.619 30.3786L204.696 29.9164C204.102 29.8176 203.6 29.7071 203.186 29.5856L203.055 30.0349ZM204.629 30.3799C205.255 30.4549 205.905 30.53 206.581 30.605L206.632 30.1394C205.959 30.0646 205.31 29.9898 204.686 29.9149L204.629 30.3799ZM206.589 30.6057C207.263 30.6556 207.938 30.7057 208.613 30.7557L208.648 30.2886C207.973 30.2386 207.298 30.1886 206.624 30.1387L206.589 30.6057ZM208.622 30.7561C209.323 30.7811 209.964 30.7936 210.541 30.7936V30.3253C209.97 30.3253 209.336 30.3129 208.638 30.288L208.622 30.7561ZM210.541 30.7936C212.042 30.7936 213.14 30.6824 213.807 30.4427L213.647 30.002C213.064 30.2118 212.039 30.3253 210.541 30.3253V30.7936ZM213.811 30.4409C214.159 30.3068 214.441 30.1284 214.637 29.8951C214.836 29.6577 214.936 29.376 214.936 29.061H214.467C214.467 29.2705 214.404 29.4445 214.279 29.5942C214.15 29.7481 213.944 29.8881 213.643 30.0037L213.811 30.4409ZM214.936 29.061C214.936 28.8233 214.848 28.6141 214.679 28.4459L214.349 28.7769C214.43 28.8584 214.467 28.9489 214.467 29.061H214.936ZM214.708 28.4816C214.564 28.2639 214.274 28.1059 213.918 27.9788L213.761 28.4199C214.104 28.5426 214.265 28.6592 214.32 28.7413L214.708 28.4816ZM213.938 27.9867C213.588 27.8254 213.092 27.6837 212.461 27.5576L212.37 28.0168C212.988 28.1404 213.441 28.2735 213.741 28.4119L213.938 27.9867ZM212.47 27.5595C211.84 27.4086 211.012 27.233 209.986 27.0329L209.897 27.4925C210.92 27.692 211.741 27.8662 212.36 28.015L212.47 27.5595ZM209.99 27.0336C209.514 26.9335 208.902 26.8085 208.151 26.6585L208.06 27.1177C208.808 27.2675 209.419 27.3922 209.894 27.4918L209.99 27.0336ZM208.151 26.6585C207.427 26.5137 206.713 26.2478 206.008 25.8589L205.781 26.2689C206.525 26.6791 207.284 26.9628 208.06 27.1177L208.151 26.6585ZM206.01 25.8606C205.341 25.4782 204.752 24.951 204.245 24.275L203.87 24.556C204.413 25.2787 205.049 25.8505 205.778 26.2672L206.01 25.8606ZM204.245 24.275C203.76 23.6282 203.505 22.7461 203.505 21.6057H203.037C203.037 22.8131 203.306 23.8043 203.87 24.556L204.245 24.275ZM203.505 21.6057C203.505 20.6381 203.698 19.817 204.075 19.1339L203.665 18.9077C203.243 19.6731 203.037 20.5754 203.037 21.6057H203.505ZM204.077 19.1309C204.46 18.415 204.983 17.8319 205.651 17.3788L205.388 16.9913C204.656 17.4873 204.081 18.128 203.664 18.9106L204.077 19.1309ZM205.653 17.3779C206.35 16.8972 207.171 16.5458 208.121 16.3268L208.015 15.8704C207.016 16.101 206.138 16.474 205.386 16.9924L205.653 17.3779ZM208.126 16.3254C209.079 16.0812 210.121 15.9581 211.254 15.9581V15.4898C210.087 15.4898 209.006 15.6165 208.009 15.8718L208.126 16.3254ZM211.254 15.9581C211.695 15.9581 212.2 15.9829 212.77 16.0325L212.81 15.5657C212.23 15.5152 211.711 15.4898 211.254 15.4898V15.9581ZM212.781 16.0328C213.373 16.0575 213.967 16.1069 214.56 16.1811L214.618 15.7165C214.012 15.6407 213.406 15.5902 212.799 15.565L212.781 16.0328ZM214.56 16.1811C215.156 16.2556 215.753 16.3426 216.349 16.442L216.427 15.98C215.823 15.8797 215.221 15.7918 214.618 15.7165L214.56 16.1811ZM216.349 16.442C216.944 16.541 217.488 16.6523 217.98 16.7753L218.094 16.3211C217.587 16.1944 217.031 16.0808 216.427 15.98L216.349 16.442ZM217.803 16.5482V20.7815H218.271V16.5482H217.803ZM218.101 20.5564C217.736 20.452 217.26 20.3628 216.681 20.2871L216.62 20.7515C217.189 20.8257 217.639 20.9113 217.973 21.0067L218.101 20.5564ZM216.69 20.2887C216.11 20.1879 215.494 20.0998 214.841 20.0244L214.787 20.4897C215.432 20.5641 216.04 20.651 216.61 20.7502L216.69 20.2887ZM214.842 20.0245C214.211 19.9488 213.554 19.8985 212.873 19.8732L212.857 20.3412C213.526 20.3659 214.169 20.4155 214.786 20.4896L214.842 20.0245ZM212.883 19.8738C212.229 19.8234 211.635 19.7981 211.104 19.7981V20.2664C211.621 20.2664 212.202 20.2914 212.847 20.3409L212.883 19.8738ZM211.104 19.7981C209.778 19.7981 208.806 19.9211 208.23 20.1955L208.431 20.6183C208.904 20.3932 209.78 20.2664 211.104 20.2664V19.7981ZM208.226 20.1975C207.67 20.4754 207.346 20.8945 207.346 21.4559H207.815C207.815 21.1181 207.992 20.838 208.434 20.6164L208.226 20.1975ZM207.346 21.4559C207.346 21.7462 207.42 22.0081 207.577 22.2289L207.959 21.9567C207.866 21.8277 207.815 21.6651 207.815 21.4559H207.346ZM207.603 22.2583C207.781 22.4366 208.047 22.6007 208.382 22.7554L208.579 22.3297C208.263 22.1847 208.055 22.0486 207.933 21.9272L207.603 22.2583ZM208.396 22.7609C208.735 22.8914 209.185 23.0193 209.74 23.1452L209.843 22.6887C209.299 22.5649 208.874 22.4429 208.564 22.3237L208.396 22.7609ZM209.74 23.1452C210.293 23.2711 210.971 23.4089 211.772 23.5591L211.859 23.099C211.061 22.9495 210.389 22.8126 209.843 22.6887L209.74 23.1452ZM225.955 27.3751L225.729 27.436L225.732 27.4439L225.955 27.3751ZM226.855 29.0984L226.672 29.2449L226.68 29.2546L226.855 29.0984ZM228.429 30.2223L228.334 30.4367L228.337 30.438L228.429 30.2223ZM233.038 30.2223L232.947 30.0067L232.944 30.008L233.038 30.2223ZM234.613 29.0984L234.434 28.9468L234.433 28.9476L234.613 29.0984ZM235.512 27.3751L235.288 27.3063L235.286 27.3142L235.512 27.3751ZM235.512 23.1792L235.286 23.2401L235.288 23.248L235.512 23.1792ZM234.613 21.4933L234.43 21.6398L234.438 21.6495L234.613 21.4933ZM233.038 20.332L232.944 20.5463L232.947 20.5476L233.038 20.332ZM228.429 20.332L228.337 20.1163L228.334 20.1176L228.429 20.332ZM226.855 21.4933L226.677 21.3417L226.675 21.3426L226.855 21.4933ZM225.955 23.1792L225.732 23.1104L225.729 23.1183L225.955 23.1792ZM221.833 21.5683L222.053 21.6494V21.6479L221.833 21.5683ZM223.707 18.5337L223.875 18.6968L223.878 18.6944L223.707 18.5337ZM226.705 16.4732L226.615 16.2571L226.613 16.2578L226.705 16.4732ZM234.762 16.4732L234.671 16.6887L234.672 16.6894L234.762 16.4732ZM237.798 18.5337L237.627 18.6944L237.629 18.6968L237.798 18.5337ZM239.672 21.5683L239.452 21.6479V21.6494L239.672 21.5683ZM239.672 29.0235L239.892 29.1046V29.1031L239.672 29.0235ZM237.798 32.058L237.967 32.2211L237.969 32.2187L237.798 32.058ZM234.762 34.0811L234.672 33.8649L234.671 33.8656L234.762 34.0811ZM226.705 34.0811L226.613 34.2965L226.615 34.2972L226.705 34.0811ZM223.707 32.058L223.536 32.2187L223.538 32.2211L223.707 32.058ZM221.833 29.0235L221.613 29.1031V29.1046L221.833 29.0235ZM225.459 25.2772C225.459 26.0447 225.548 26.7647 225.729 27.436L226.181 27.3142C226.013 26.6868 225.927 26.0082 225.927 25.2772H225.459ZM225.732 27.4439C225.939 28.1197 226.253 28.7209 226.672 29.2449L227.037 28.9522C226.658 28.477 226.371 27.9292 226.179 27.3063L225.732 27.4439ZM226.68 29.2546C227.129 29.7558 227.682 30.1494 228.334 30.4367L228.524 30.008C227.926 29.7457 227.43 29.3902 227.029 28.9424L226.68 29.2546ZM228.337 30.438C229.023 30.7277 229.829 30.8686 230.752 30.8686V30.4003C229.876 30.4003 229.134 30.2663 228.52 30.0067L228.337 30.438ZM230.752 30.8686C231.674 30.8686 232.47 30.728 233.133 30.4367L232.944 30.008C232.357 30.2662 231.63 30.4003 230.752 30.4003V30.8686ZM233.13 30.438C233.809 30.1508 234.365 29.7557 234.792 29.2492L234.433 28.9476C234.061 29.3903 233.568 29.7443 232.947 30.0067L233.13 30.438ZM234.791 29.25C235.239 28.7235 235.554 28.1179 235.738 27.436L235.286 27.3142C235.12 27.9311 234.836 28.4743 234.434 28.9468L234.791 29.25ZM235.736 27.4439C235.943 26.7702 236.046 26.0474 236.046 25.2772H235.578C235.578 26.0055 235.48 26.6813 235.288 27.3063L235.736 27.4439ZM236.046 25.2772C236.046 24.5069 235.943 23.7842 235.736 23.1104L235.288 23.248C235.48 23.873 235.578 24.5488 235.578 25.2772H236.046ZM235.738 23.1183C235.554 22.4357 235.238 21.8406 234.787 21.3373L234.438 21.6495C234.837 22.0952 235.12 22.624 235.286 23.2401L235.738 23.1183ZM234.795 21.3471C234.369 20.8142 233.811 20.4047 233.13 20.1163L232.947 20.5476C233.564 20.8088 234.056 21.1736 234.43 21.6398L234.795 21.3471ZM233.133 20.1176C232.47 19.8265 231.674 19.6857 230.752 19.6857V20.154C231.63 20.154 232.357 20.2881 232.944 20.5463L233.133 20.1176ZM230.752 19.6857C229.829 19.6857 229.023 19.8266 228.337 20.1163L228.52 20.5476C229.134 20.288 229.876 20.154 230.752 20.154V19.6857ZM228.334 20.1176C227.679 20.4061 227.125 20.8141 226.677 21.3417L227.033 21.645C227.434 21.1736 227.93 20.8074 228.524 20.5463L228.334 20.1176ZM226.675 21.3426C226.254 21.8433 225.94 22.4338 225.732 23.1104L226.179 23.248C226.371 22.6259 226.657 22.0925 227.034 21.6441L226.675 21.3426ZM225.729 23.1183C225.548 23.7896 225.459 24.5096 225.459 25.2772H225.927C225.927 24.5461 226.013 23.8675 226.181 23.2401L225.729 23.1183ZM221.43 25.2772C221.43 23.9789 221.638 22.7704 222.053 21.6494L221.613 21.4871C221.178 22.664 220.961 23.928 220.961 25.2772H221.43ZM222.053 21.6479C222.467 20.5035 223.074 19.5209 223.875 18.6968L223.538 18.3707C222.69 19.245 222.048 20.2854 221.613 21.4887L222.053 21.6479ZM223.878 18.6944C224.677 17.8452 225.65 17.1764 226.796 16.6887L226.613 16.2578C225.411 16.7692 224.385 17.474 223.536 18.3731L223.878 18.6944ZM226.795 16.6894C227.961 16.2035 229.279 15.9581 230.752 15.9581V15.4898C229.227 15.4898 227.847 15.744 226.615 16.2571L226.795 16.6894ZM230.752 15.9581C232.226 15.9581 233.53 16.2035 234.671 16.6887L234.854 16.2578C233.646 15.744 232.277 15.4898 230.752 15.4898V15.9581ZM234.672 16.6894C235.843 17.1773 236.827 17.846 237.627 18.6944L237.969 18.3731C237.12 17.4732 236.08 16.7683 234.853 16.2571L234.672 16.6894ZM237.629 18.6968C238.431 19.5209 239.037 20.5035 239.452 21.6479L239.892 21.4887C239.456 20.2854 238.815 19.245 237.967 18.3707L237.629 18.6968ZM239.452 21.6494C239.866 22.7704 240.075 23.9789 240.075 25.2772H240.543C240.543 23.928 240.327 22.664 239.892 21.4871L239.452 21.6494ZM240.075 25.2772C240.075 26.5754 239.866 27.797 239.452 28.9439L239.892 29.1031C240.327 27.9023 240.543 26.6264 240.543 25.2772H240.075ZM239.452 28.9424C239.038 30.0623 238.431 31.0466 237.627 31.8974L237.969 32.2187C238.815 31.3212 239.456 30.2825 239.892 29.1046L239.452 28.9424ZM237.629 31.8949C236.83 32.7193 235.845 33.3764 234.672 33.8649L234.853 34.2972C236.079 33.7867 237.118 33.0952 237.967 32.2211L237.629 31.8949ZM234.671 33.8656C233.53 34.3508 232.226 34.5962 230.752 34.5962V35.0645C232.277 35.0645 233.646 34.8103 234.854 34.2965L234.671 33.8656ZM230.752 34.5962C229.279 34.5962 227.961 34.3509 226.795 33.8649L226.615 34.2972C227.847 34.8103 229.227 35.0645 230.752 35.0645V34.5962ZM226.796 33.8656C225.648 33.3773 224.676 32.7201 223.875 31.8949L223.538 32.2211C224.386 33.0944 225.412 33.7858 226.613 34.2965L226.796 33.8656ZM223.878 31.8974C223.074 31.0466 222.466 30.0623 222.053 28.9424L221.613 29.1046C222.048 30.2825 222.69 31.3212 223.536 32.2187L223.878 31.8974ZM222.053 28.9439C221.638 27.797 221.43 26.5754 221.43 25.2772H220.961C220.961 26.6264 221.178 27.9023 221.613 29.1031L222.053 28.9439ZM254.15 23.9285L254.09 24.155L254.097 24.1568L254.15 23.9285ZM256.474 24.8276L256.354 25.0291L256.36 25.0322L256.474 24.8276ZM258.085 26.3636L257.886 26.4863L257.888 26.4898L258.085 26.3636ZM258.01 31.571L258.212 31.6915L258.213 31.6885L258.01 31.571ZM256.136 33.4442L256.259 33.6438L256.26 33.6427L256.136 33.4442ZM253.4 34.5306L253.45 34.7596L253.454 34.7584L253.4 34.5306ZM248.303 34.7929L248.322 34.5593L248.313 34.5589L248.303 34.7929ZM242.794 34.0436H242.56V34.2286L242.74 34.2714L242.794 34.0436ZM242.794 29.8102L242.86 29.5856L242.56 29.4973V29.8102H242.794ZM244.331 30.1474L244.292 30.3786L244.303 30.3799L244.331 30.1474ZM246.28 30.3722L246.254 30.605L246.262 30.6057L246.28 30.3722ZM248.303 30.522L248.286 30.7557L248.295 30.7561L248.303 30.522ZM253.4 30.2223L253.48 30.4427L253.485 30.4409L253.4 30.2223ZM254.187 28.6114L253.993 28.7413L254.006 28.7605L254.022 28.7769L254.187 28.6114ZM253.513 28.1993L253.414 28.4119L253.424 28.4164L253.434 28.4199L253.513 28.1993ZM252.089 27.7872L252.034 28.015L252.043 28.0168L252.089 27.7872ZM249.615 27.2627L249.567 27.4918L249.571 27.4925L249.615 27.2627ZM245.568 26.0639L245.452 26.2672L245.454 26.2689L245.568 26.0639ZM243.544 19.0208L243.749 19.1339L243.75 19.1309L243.544 19.0208ZM245.193 17.1851L245.324 17.3788L245.326 17.3779L245.193 17.1851ZM247.741 16.0986L247.794 16.3268L247.8 16.3254L247.741 16.0986ZM252.463 15.7989L252.444 16.0325L252.454 16.0328L252.463 15.7989ZM257.71 16.5482H257.945V16.3654L257.768 16.3211L257.71 16.5482ZM257.71 20.7815L257.646 21.0067L257.945 21.092V20.7815H257.71ZM256.324 20.5193L256.284 20.7502L256.293 20.7515L256.324 20.5193ZM254.487 20.2571L254.459 20.4896L254.46 20.4897L254.487 20.2571ZM252.538 20.1072L252.521 20.3409L252.53 20.3412L252.538 20.1072ZM248.004 20.4069L247.903 20.1955L247.899 20.1975L248.004 20.4069ZM247.442 22.0928L247.251 22.2289L247.262 22.2446L247.276 22.2583L247.442 22.0928ZM248.154 22.5423L248.055 22.7554L248.069 22.7609L248.154 22.5423ZM251.446 23.5591C252.365 23.733 253.246 23.9317 254.09 24.155L254.21 23.7022C253.355 23.4759 252.462 23.2748 251.532 23.099L251.446 23.5591ZM254.097 24.1568C254.952 24.3519 255.703 24.6434 256.354 25.0291L256.593 24.6262C255.895 24.2126 255.097 23.9047 254.203 23.7002L254.097 24.1568ZM256.36 25.0322C256.999 25.3877 257.508 25.8716 257.886 26.4863L258.284 26.2409C257.864 25.5568 257.297 25.0168 256.587 24.6229L256.36 25.0322ZM257.888 26.4898C258.256 27.0647 258.451 27.8405 258.451 28.8362H258.919C258.919 27.7839 258.714 26.9113 258.282 26.2374L257.888 26.4898ZM258.451 28.8362C258.451 29.851 258.233 30.7206 257.808 31.4535L258.213 31.6885C258.687 30.8729 258.919 29.9193 258.919 28.8362H258.451ZM257.81 31.4505C257.38 32.1656 256.783 32.7641 256.012 33.2456L256.26 33.6427C257.088 33.1251 257.741 32.4749 258.21 31.6915L257.81 31.4505ZM256.013 33.2446C255.264 33.704 254.376 34.0578 253.347 34.3029L253.454 34.7584C254.524 34.5039 255.459 34.1334 256.259 33.6438L256.013 33.2446ZM253.351 34.3017C252.321 34.5225 251.2 34.6336 249.99 34.6336V35.1019C251.228 35.1019 252.382 34.9883 253.45 34.7596L253.351 34.3017ZM249.99 34.6336C249.498 34.6336 248.942 34.6089 248.322 34.5593L248.285 35.0263C248.914 35.0766 249.483 35.1019 249.99 35.1019V34.6336ZM248.313 34.5589C247.72 34.5342 247.101 34.4847 246.457 34.4104L246.403 34.8756C247.057 34.9511 247.687 35.0016 248.294 35.0268L248.313 34.5589ZM246.457 34.4104C245.81 34.3359 245.176 34.2489 244.556 34.1495L244.481 34.612C245.11 34.7124 245.75 34.8003 246.403 34.8756L246.457 34.4104ZM244.556 34.1495C243.935 34.0505 243.367 33.9392 242.848 33.8159L242.74 34.2714C243.271 34.3979 243.852 34.5113 244.481 34.612L244.556 34.1495ZM243.029 34.0436V29.8102H242.56V34.0436H243.029ZM242.729 30.0349C243.164 30.1632 243.687 30.2777 244.292 30.3786L244.37 29.9164C243.776 29.8176 243.273 29.7071 242.86 29.5856L242.729 30.0349ZM244.303 30.3799C244.928 30.4549 245.578 30.53 246.254 30.605L246.305 30.1394C245.632 30.0646 244.983 29.9898 244.359 29.9149L244.303 30.3799ZM246.262 30.6057C246.937 30.6556 247.611 30.7057 248.286 30.7557L248.321 30.2886C247.646 30.2386 246.972 30.1886 246.297 30.1387L246.262 30.6057ZM248.295 30.7561C248.997 30.7811 249.637 30.7936 250.215 30.7936V30.3253C249.643 30.3253 249.01 30.3129 248.312 30.288L248.295 30.7561ZM250.215 30.7936C251.715 30.7936 252.814 30.6824 253.48 30.4427L253.321 30.002C252.738 30.2118 251.713 30.3253 250.215 30.3253V30.7936ZM253.485 30.4409C253.833 30.3068 254.115 30.1284 254.31 29.8951C254.51 29.6577 254.609 29.376 254.609 29.061H254.141C254.141 29.2705 254.077 29.4445 253.952 29.5942C253.823 29.7481 253.617 29.8881 253.316 30.0037L253.485 30.4409ZM254.609 29.061C254.609 28.8233 254.521 28.6141 254.353 28.4459L254.022 28.7769C254.103 28.8584 254.141 28.9489 254.141 29.061H254.609ZM254.382 28.4816C254.238 28.2639 253.947 28.1059 253.591 27.9788L253.434 28.4199C253.778 28.5426 253.938 28.6592 253.993 28.7413L254.382 28.4816ZM253.611 27.9867C253.261 27.8254 252.766 27.6837 252.134 27.5576L252.043 28.0168C252.661 28.1404 253.115 28.2735 253.414 28.4119L253.611 27.9867ZM252.144 27.5595C251.514 27.4086 250.686 27.233 249.66 27.0329L249.571 27.4925C250.593 27.692 251.414 27.8662 252.034 28.015L252.144 27.5595ZM249.663 27.0336C249.188 26.9335 248.575 26.8085 247.824 26.6585L247.733 27.1177C248.482 27.2675 249.093 27.3922 249.567 27.4918L249.663 27.0336ZM247.824 26.6585C247.101 26.5137 246.386 26.2478 245.681 25.8589L245.454 26.2689C246.199 26.6791 246.958 26.9628 247.733 27.1177L247.824 26.6585ZM245.684 25.8606C245.015 25.4782 244.426 24.951 243.919 24.275L243.544 24.556C244.086 25.2787 244.722 25.8505 245.452 26.2672L245.684 25.8606ZM243.919 24.275C243.434 23.6282 243.178 22.7461 243.178 21.6057H242.71C242.71 22.8131 242.979 23.8043 243.544 24.556L243.919 24.275ZM243.178 21.6057C243.178 20.6381 243.372 19.817 243.749 19.1339L243.339 18.9077C242.916 19.6731 242.71 20.5754 242.71 21.6057H243.178ZM243.75 19.1309C244.133 18.415 244.656 17.8319 245.324 17.3788L245.062 16.9913C244.33 17.4873 243.755 18.128 243.338 18.9106L243.75 19.1309ZM245.326 17.3779C246.023 16.8972 246.844 16.5458 247.794 16.3268L247.689 15.8704C246.69 16.101 245.811 16.474 245.059 16.9924L245.326 17.3779ZM247.8 16.3254C248.752 16.0812 249.794 15.9581 250.927 15.9581V15.4898C249.76 15.4898 248.679 15.6165 247.683 15.8718L247.8 16.3254ZM250.927 15.9581C251.368 15.9581 251.873 15.9829 252.444 16.0325L252.483 15.5657C251.904 15.5152 251.385 15.4898 250.927 15.4898V15.9581ZM252.454 16.0328C253.047 16.0575 253.641 16.1069 254.233 16.1811L254.292 15.7165C253.685 15.6407 253.08 15.5902 252.473 15.565L252.454 16.0328ZM254.233 16.1811C254.829 16.2556 255.427 16.3426 256.023 16.442L256.1 15.98C255.497 15.8797 254.895 15.7918 254.292 15.7165L254.233 16.1811ZM256.023 16.442C256.618 16.541 257.161 16.6523 257.653 16.7753L257.768 16.3211C257.261 16.1944 256.704 16.0808 256.1 15.98L256.023 16.442ZM257.476 16.5482V20.7815H257.945V16.5482H257.476ZM257.775 20.5564C257.409 20.452 256.934 20.3628 256.354 20.2871L256.293 20.7515C256.862 20.8257 257.312 20.9113 257.646 21.0067L257.775 20.5564ZM256.363 20.2887C255.784 20.1879 255.168 20.0998 254.514 20.0244L254.46 20.4897C255.106 20.5641 255.713 20.651 256.284 20.7502L256.363 20.2887ZM254.515 20.0245C253.884 19.9488 253.227 19.8985 252.547 19.8732L252.53 20.3412C253.199 20.3659 253.842 20.4155 254.459 20.4896L254.515 20.0245ZM252.556 19.8738C251.903 19.8234 251.309 19.7981 250.777 19.7981V20.2664C251.295 20.2664 251.876 20.2914 252.521 20.3409L252.556 19.8738ZM250.777 19.7981C249.451 19.7981 248.479 19.9211 247.903 20.1955L248.104 20.6183C248.578 20.3932 249.454 20.2664 250.777 20.2664V19.7981ZM247.899 20.1975C247.343 20.4754 247.02 20.8945 247.02 21.4559H247.488C247.488 21.1181 247.665 20.838 248.108 20.6164L247.899 20.1975ZM247.02 21.4559C247.02 21.7462 247.094 22.0081 247.251 22.2289L247.632 21.9567C247.54 21.8277 247.488 21.6651 247.488 21.4559H247.02ZM247.276 22.2583C247.454 22.4366 247.72 22.6007 248.055 22.7554L248.252 22.3297C247.937 22.1847 247.728 22.0486 247.607 21.9272L247.276 22.2583ZM248.069 22.7609C248.409 22.8914 248.859 23.0193 249.414 23.1452L249.517 22.6887C248.972 22.5649 248.547 22.4429 248.238 22.3237L248.069 22.7609ZM249.414 23.1452C249.967 23.2711 250.645 23.4089 251.446 23.5591L251.532 23.099C250.735 22.9495 250.063 22.8126 249.517 22.6887L249.414 23.1452Z" fill="#121B62"/>
</g>
</g>
<defs>
<clipPath id="clip0_3_96">
<rect width="260" height="48" fill="white"/>
</clipPath>
</defs>
</svg>
